<?xml version="1.0" encoding="UTF-8" standalone="no"?>
<!-- Created with Inkscape (http://www.inkscape.org/) -->

<svg
   xmlns:dc="http://purl.org/dc/elements/1.1/"
   xmlns:cc="http://creativecommons.org/ns#"
   xmlns:rdf="http://www.w3.org/1999/02/22-rdf-syntax-ns#"
   xmlns:svg="http://www.w3.org/2000/svg"
   xmlns="http://www.w3.org/2000/svg"
   xmlns:sodipodi="http://sodipodi.sourceforge.net/DTD/sodipodi-0.dtd"
   xmlns:inkscape="http://www.inkscape.org/namespaces/inkscape"
   version="1.1"
   id="svg2"
   xml:space="preserve"
   width="6633.3335"
   height="6633.3335"
   viewBox="0 0 6633.3335 6633.3335"
   sodipodi:docname="barcode-ii.svg"
   inkscape:version="0.92.3 (2405546, 2018-03-11)"><metadata
     id="metadata8"><rdf:RDF><cc:Work
         rdf:about=""><dc:format>image/svg+xml</dc:format><dc:type
           rdf:resource="http://purl.org/dc/dcmitype/StillImage" /><dc:title></dc:title></cc:Work></rdf:RDF></metadata><defs
     id="defs6"><clipPath
       clipPathUnits="userSpaceOnUse"
       id="clipPath20"><path
         d="M 49750,0 H 0 V 49750 H 49750 V 0 M 16560.1,886.5 v 0 h 616.7 c 106.1,0 192.1,86 192.1,192.2 V 2549.9 4048 c 0,106.2 -86,192.2 -192.1,192.2 h -2969.5 c -106.1,0 -192.2,-86 -192.2,-192.2 V 1078.7 c 0,-106.2 86.1,-192.2 192.2,-192.2 h 2352.8 m 15034.3,0 v 0 h 345 c 106.1,0 192.2,86.098 192.2,192.2 v 1565.8 1403.6 c 0,106.1 -86.1,192.2 -192.2,192.2 H 28970 c -106.1,0 -192.2,-86.1 -192.2,-192.2 V 1078.7 c 0,-106.102 86.1,-192.2 192.2,-192.2 h 2624.4 m 3203.3,1.398 v 0 h 832.3 c 106.2,0 192.2,86.004 192.2,192.202 v 1709.7 1259.6 c 0,106.1 -86,192.2 -192.2,192.2 h -2969.3 c -106.1,0 -192.2,-86.1 -192.2,-192.2 V 1080.1 c 0,-106.198 86.1,-192.202 192.2,-192.202 h 2137 m -6751.4,0 v 0 h 202.4 c 106.1,0 192.2,86.004 192.2,192.202 v 1532.7 1436.6 c 0,106.2 -86.1,192.2 -192.2,192.2 h -2969.4 c -106.1,0 -192.1,-86 -192.1,-192.2 V 1080.1 c 0,-106.198 86,-192.202 192.1,-192.202 h 2767 m -3605,0 v 0 h 116.8 c 106.1,0 192.1,86.004 192.1,192.202 v 1703.1 1266.3 c 0,106.1 -86,192.1 -192.1,192.1 h -2969.4 c -106.1,0 -192.2,-86 -192.2,-192.1 V 1080.1 c 0,-106.198 86.1,-192.202 192.2,-192.202 h 2852.6 m -3815,0 v 0 h 241.1 c 106.1,0 192.2,86.004 192.2,192.202 v 1745.4 1223.9 c 0,106.2 -86.1,192.2 -192.2,192.2 H 17898 c -106.1,0 -192.2,-86 -192.2,-192.2 V 1080.1 c 0,-106.198 86.1,-192.202 192.2,-192.202 h 2728.3 M 23572.2,4674.6 v 0 h 647.9 c 9.1,-0.3 18,-0.5 26.7,-0.5 8.7,0 17.2,0.2 25.5,0.5 h 23.8 c 43,0 83.8,9.4 120.6,26.1 81.2,31.1 130,88.5 153.5,168.4 10.5,30 16.2,62.3 16.2,95.8 v 2.4 c 1.6,25.7 1.5,52.9 0,81.5 v 1868.5 2533.2 c 0,160.3 -130,290.3 -290.3,290.3 h -4485.9 c -160.4,0 -290.3,-130 -290.3,-290.3 V 4964.9 c 0,-160.3 129.9,-290.3 290.3,-290.3 h 3762 m 11539.4,-0.3 v 0 h 369 c 160.2,0 290.3,129.9 290.3,290.3 v 2623.7 0 1862.3 c 0,160.3 -130.1,290.3 -290.3,290.3 h -4486 c -160.3,0 -290.3,-130 -290.3,-290.3 v -4486 c 0,-160.4 130,-290.3 290.3,-290.3 h 4117 m -6519,0 v 0 h 1295.7 c 160.3,0 290.3,129.9 290.3,290.3 0,0 10.3,2239.1 0,2243 v 0 2243 c 0,160.3 -130,290.3 -290.3,290.3 h -4486 c -160.3,0 -290.2,-130 -290.2,-290.3 v -4486 c 0,-160.4 129.9,-290.3 290.2,-290.3 h 3190.3 m -10253.1,0.3 v 0 h 364.2 c 160.3,0 290.3,129.9 290.3,290.3 v 2636.6 1849 c 0,160.2 -130,290.3 -290.3,290.3 h -4485.6 c -160.3,0 -290.3,-130.1 -290.3,-290.3 V 4964.9 c 0,-160.4 130,-290.3 290.3,-290.3 h 4121.4 m 6596.2,34806.6 c -6948.3,0 -12580.2,-5632.7 -12580.2,-12580.1 0,-6948.2 5631.9,-12580 12580.2,-12580 955.7,0 1886.5,106.1 2780.6,307.7 125.7,29.2 250.4,59.1 375.1,91.6 134.5,34.8 267.2,71.2 399.4,110.1 156.3,46.2 311,94.7 464.2,146.6 102,34.8 203.2,70.4 303.6,106.9 90,32.4 178.9,66.4 268.1,101.3 333,130.3 659.4,275.4 976.8,432.5 3600.7,1778.8 6225.8,5233.5 6863.2,9342.6 50.3,325.6 88.3,655.2 113.5,988.2 1.6,23.4 3.9,46.9 4.9,71.3 21.9,289.9 30.7,585.6 30.7,881.2 0,3.3 0,6.6 0,9.8 0,3.4 0,6.8 0,10.2 0,220.3 -5.7,439.8 -16.9,656.9 -1.7,25.9 -2.5,51.9 -5,77.8 l -1.2,0.9 c -32.8,558.2 -102,1106.8 -205.4,1642 -1119.4,5800.4 -6223.2,10182.5 -12351.6,10182.5"
         id="path18"
         inkscape:connector-curvature="0" /></clipPath><radialGradient
       fx="0"
       fy="0"
       cx="0"
       cy="0"
       r="1"
       gradientUnits="userSpaceOnUse"
       gradientTransform="matrix(37768.7,0,0,-37768.7,24875,24875)"
       spreadMethod="pad"
       id="radialGradient34"><stop
         style="stop-opacity:1;stop-color:#ffffff"
         offset="0"
         id="stop24" /><stop
         style="stop-opacity:1;stop-color:#ffffff"
         offset="0.16887895"
         id="stop26" /><stop
         style="stop-opacity:1;stop-color:#ffffff"
         offset="0.382918"
         id="stop28" /><stop
         style="stop-opacity:1;stop-color:#ffffff"
         offset="0.65507068"
         id="stop30" /><stop
         style="stop-opacity:1;stop-color:#7b7979"
         offset="1"
         id="stop32" /></radialGradient><clipPath
       clipPathUnits="userSpaceOnUse"
       id="clipPath132"><path
         d="m 29888.3,4674.3 h -1295.7 1295.7 c 160.3,0 290.3,129.9 290.3,290.3 v 2243 c 10.3,-3.9 0,-2243 0,-2243 0,-160.4 -130,-290.3 -290.3,-290.3"
         id="path130"
         inkscape:connector-curvature="0" /></clipPath><radialGradient
       fx="0"
       fy="0"
       cx="0"
       cy="0"
       r="1"
       gradientUnits="userSpaceOnUse"
       gradientTransform="matrix(37768.7,0,0,-37768.7,24875,24875)"
       spreadMethod="pad"
       id="radialGradient142"><stop
         style="stop-opacity:1;stop-color:#bdbcbd"
         offset="0"
         id="stop136" /><stop
         style="stop-opacity:1;stop-color:#bdbcbd"
         offset="0.382918"
         id="stop138" /><stop
         style="stop-opacity:1;stop-color:#615e5f"
         offset="1"
         id="stop140" /></radialGradient><clipPath
       clipPathUnits="userSpaceOnUse"
       id="clipPath164"><path
         d="m 24246.8,4674.1 c -8.7,0 -17.6,0.2 -26.7,0.5 h -647.9 v 0 h 700.1 c -8.3,-0.3 -16.8,-0.5 -25.5,-0.5 m 169.9,26.6 c 71.5,32.7 127.4,93.6 153.5,168.4 -23.5,-79.9 -72.3,-137.3 -153.5,-168.4 m 169.7,266.6 v 1950 -1868.5 c 1.5,-28.6 1.6,-55.8 0,-81.5"
         id="path162"
         inkscape:connector-curvature="0" /></clipPath><radialGradient
       fx="0"
       fy="0"
       cx="0"
       cy="0"
       r="1"
       gradientUnits="userSpaceOnUse"
       gradientTransform="matrix(37768.7,0,0,-37768.7,24875,24875)"
       spreadMethod="pad"
       id="radialGradient174"><stop
         style="stop-opacity:1;stop-color:#bdbcbd"
         offset="0"
         id="stop168" /><stop
         style="stop-opacity:1;stop-color:#bdbcbd"
         offset="0.382918"
         id="stop170" /><stop
         style="stop-opacity:1;stop-color:#615e5f"
         offset="1"
         id="stop172" /></radialGradient><clipPath
       clipPathUnits="userSpaceOnUse"
       id="clipPath208"><path
         d="m 37515.8,26910.9 c -0.2,217 -5.9,433.3 -16.9,647.1 -1.7,26 -2.5,51.9 -5,77.8 -0.4,7 -0.8,13.9 -1.2,20.9 l 1.2,-0.9 c 2.5,-25.9 3.3,-51.9 5,-77.8 11.2,-217.1 16.9,-436.6 16.9,-656.9 0,-3.4 0,-6.8 0,-10.2"
         id="path206"
         inkscape:connector-curvature="0" /></clipPath><radialGradient
       fx="0"
       fy="0"
       cx="0"
       cy="0"
       r="1"
       gradientUnits="userSpaceOnUse"
       gradientTransform="matrix(37768.7,0,0,-37768.7,24875,24875)"
       spreadMethod="pad"
       id="radialGradient218"><stop
         style="stop-opacity:1;stop-color:#bdbcbd"
         offset="0"
         id="stop212" /><stop
         style="stop-opacity:1;stop-color:#bdbcbd"
         offset="0.382918"
         id="stop214" /><stop
         style="stop-opacity:1;stop-color:#615e5f"
         offset="1"
         id="stop216" /></radialGradient></defs><sodipodi:namedview
     pagecolor="#ffffff"
     bordercolor="#666666"
     borderopacity="1"
     objecttolerance="10"
     gridtolerance="10"
     guidetolerance="10"
     inkscape:pageopacity="0"
     inkscape:pageshadow="2"
     inkscape:window-width="1033"
     inkscape:window-height="556"
     id="namedview4"
     showgrid="false"
     inkscape:zoom="0.035577889"
     inkscape:cx="3305.7533"
     inkscape:cy="3316.6667"
     inkscape:window-x="0"
     inkscape:window-y="27"
     inkscape:window-maximized="0"
     inkscape:current-layer="g10" /><g
     id="g10"
     inkscape:groupmode="layer"
     inkscape:label="ink_ext_XXXXXX"
     transform="matrix(1.3333333,0,0,-1.3333333,0,6633.3333)"><g
       id="g1127"
       transform="matrix(1.9635324,0,0,1.9635324,-2408.7032,-2794.6281)"
       inkscape:export-xdpi="192"
       inkscape:export-ydpi="192"><g
         id="g198"
         transform="scale(0.242216)"><path
           d="m 15488.6,11106.2 c 0,-122 -3.7,-244.1 -12.7,-363.8 -0.4,-10 -1.4,-19.7 -2,-29.4 -10.4,-137.5 -26.1,-273.6 -46.9,-408 -263.1,-1696.44 -1346.9,-3122.73 -2833.5,-3857.12 -131,-64.86 -265.8,-124.76 -403.3,-178.56 -36.8,-14.41 -73.5,-28.44 -110.6,-41.82 -41.5,-15.07 -83.3,-29.77 -125.4,-44.13 -63.2,-21.43 -127.1,-41.45 -191.6,-60.53 -54.6,-16.06 -109.4,-31.09 -164.9,-45.45 -51.5,-13.42 -103,-25.77 -154.9,-37.82 -369.1,-83.23 -753.4,-127.04 -1148,-127.04 -2868.62,0 -5193.77,2325.12 -5193.77,5193.67 0,2868.3 2325.15,5193.8 5193.77,5193.8 2530.2,0 4637.3,-1809.2 5099.4,-4203.9 43.2,-223.7 72,-453.1 85.3,-686.5 1.1,-10.7 1.4,-21.4 2.1,-32.1 4.6,-89.7 7,-180.3 7,-271.3"
           style="fill:#1c6434;fill-opacity:1;fill-rule:nonzero;stroke:none"
           id="path200"
           inkscape:connector-curvature="0" /></g><g
         transform="scale(0.1)"
         id="g202"><g
           id="g204"
           clip-path="url(#clipPath208)"><g
             id="g210"
             transform="scale(2.30158)"><path
               d="m 16300,11692.3 c -0.1,94.3 -2.6,188.3 -7.3,281.2 -0.8,11.3 -1.1,22.5 -2.2,33.8 -0.2,3 -0.4,6 -0.5,9.1 l 0.5,-0.4 c 1.1,-11.3 1.4,-22.6 2.2,-33.8 4.8,-94.3 7.3,-189.7 7.3,-285.4 0,-1.5 0,-3 0,-4.5"
               style="fill:url(#radialGradient218);fill-opacity:1;fill-rule:nonzero;stroke:none"
               id="path220"
               inkscape:connector-curvature="0" /></g></g></g><g
         id="g222"
         transform="scale(0.230158)"><path
           d="m 12378.8,6452.3 -5283.64,3679.8 0.39,3086.5 7512.75,25.3 1681.7,-1227.5 c 0.1,-3.1 0.3,-6.1 0.5,-9.1 1.1,-11.3 1.4,-22.5 2.2,-33.8 4.7,-92.9 7.2,-186.9 7.3,-281.2 -0.1,-126.9 -4,-253.9 -13.3,-378.4 -0.5,-10.6 -1.5,-20.8 -2.2,-31 -10.9,-144.7 -27.4,-287.9 -49.3,-429.4 -276.9,-1785.26 -1417.5,-3286.27 -2981.9,-4059.13 -137.9,-68.26 -279.8,-131.3 -424.4,-187.92 -38.8,-15.16 -77.4,-29.93 -116.5,-44.01 -43.6,-15.86 -87.6,-31.33 -131.9,-46.45 -66.6,-22.55 -133.8,-43.62 -201.7,-63.69"
           style="fill:#154a25;fill-opacity:1;fill-rule:nonzero;stroke:none"
           id="path224"
           inkscape:connector-curvature="0" /></g><g
         id="g226"
         transform="scale(0.205775)"><path
           d="m 13073.5,11322.8 h 776.1 V 14823 h -776.1 z m 1163.8,3500.2 v -3500.2 h 177.9 V 14823 Z M 9310.03,11322.8 h 177.96 V 14823 h -177.96 z m -379.78,0 h 177.86 V 14823 h -177.86 z m -994.34,0 h 776.04 V 14823 h -776.04 z m 3099.49,0 h 178 V 14823 h -178 z m 5086.6,0 h 178 V 14823 h -178 z m -379.7,0 h 177.8 V 14823 h -177.8 z m -4400.3,0 h 776 V 14823 h -776 z m 3405.9,0 h 776 V 14823 h -776 z m -2441,0 H 12687 V 14823 h -380.1 z m -1763.7,0 h 380 V 14823 h -380 z m -775.97,0 h 379.97 V 14823 h -379.97 v -3500.2"
           style="fill:#ffffff;fill-opacity:1;fill-rule:nonzero;stroke:none"
           id="path228"
           inkscape:connector-curvature="0" /></g></g></g></svg>