<?xml version="1.0" encoding="UTF-8" standalone="no"?>
<!-- Created with Inkscape (http://www.inkscape.org/) -->

<svg
   xmlns:dc="http://purl.org/dc/elements/1.1/"
   xmlns:cc="http://creativecommons.org/ns#"
   xmlns:rdf="http://www.w3.org/1999/02/22-rdf-syntax-ns#"
   xmlns:svg="http://www.w3.org/2000/svg"
   xmlns="http://www.w3.org/2000/svg"
   xmlns:sodipodi="http://sodipodi.sourceforge.net/DTD/sodipodi-0.dtd"
   xmlns:inkscape="http://www.inkscape.org/namespaces/inkscape"
   version="1.1"
   id="svg2"
   xml:space="preserve"
   width="1066.6667"
   height="1066.6667"
   viewBox="0 0 1066.6667 1066.6667"
   sodipodi:docname="camera.svg"
   inkscape:version="0.92.3 (2405546, 2018-03-11)"><metadata
     id="metadata8"><rdf:RDF><cc:Work
         rdf:about=""><dc:format>image/svg+xml</dc:format><dc:type
           rdf:resource="http://purl.org/dc/dcmitype/StillImage" /><dc:title></dc:title></cc:Work></rdf:RDF></metadata><defs
     id="defs6"><clipPath
       clipPathUnits="userSpaceOnUse"
       id="clipPath20"><path
         d="M 0,800 H 800 V 0 H 0 Z"
         id="path18"
         inkscape:connector-curvature="0" /></clipPath><clipPath
       clipPathUnits="userSpaceOnUse"
       id="clipPath32"><path
         d="m 234.806,293.158 -3.973,-0.408 -3.259,-3.92 22.097,-21.152 150.779,-150.779 c 148.7,0.235 270.528,115.126 281.801,260.991 v 0 L 572.215,487.926 Z"
         id="path30"
         inkscape:connector-curvature="0" /></clipPath><linearGradient
       x1="0"
       y1="0"
       x2="1"
       y2="0"
       gradientUnits="userSpaceOnUse"
       gradientTransform="matrix(-172.15656,263.97379,263.97379,172.15656,595.53809,148.45312)"
       spreadMethod="pad"
       id="linearGradient46"><stop
         style="stop-opacity:1;stop-color:#ffd93b"
         offset="0"
         id="stop38" /><stop
         style="stop-opacity:1;stop-color:#ffd93b"
         offset="0.10917"
         id="stop40" /><stop
         style="stop-opacity:1;stop-color:#d6ad00"
         offset="0.676856"
         id="stop42" /><stop
         style="stop-opacity:1;stop-color:#d6ad00"
         offset="1"
         id="stop44" /></linearGradient><clipPath
       clipPathUnits="userSpaceOnUse"
       id="clipPath56"><path
         d="M 0,800 H 800 V 0 H 0 Z"
         id="path54"
         inkscape:connector-curvature="0" /></clipPath><clipPath
       clipPathUnits="userSpaceOnUse"
       id="clipPath98"><path
         d="m 388.031,440.368 h 35.844 v -35.843 h -35.844 z"
         id="path96"
         inkscape:connector-curvature="0" /></clipPath><clipPath
       clipPathUnits="userSpaceOnUse"
       id="clipPath114"><path
         d="m 417.28,405.702 h 11.404 V 394.297 H 417.28 Z"
         id="path112"
         inkscape:connector-curvature="0" /></clipPath><clipPath
       clipPathUnits="userSpaceOnUse"
       id="clipPath144"><path
         d="m 544.654,488.107 h 27.771 V 289.043 h -27.771 z"
         id="path142"
         inkscape:connector-curvature="0" /></clipPath><clipPath
       clipPathUnits="userSpaceOnUse"
       id="clipPath158"><path
         d="m 227.574,488.107 h 13.885 V 289.043 h -13.885 z"
         id="path156"
         inkscape:connector-curvature="0" /></clipPath></defs><sodipodi:namedview
     pagecolor="#ffffff"
     bordercolor="#666666"
     borderopacity="1"
     objecttolerance="10"
     gridtolerance="10"
     guidetolerance="10"
     inkscape:pageopacity="0"
     inkscape:pageshadow="2"
     inkscape:window-width="1135"
     inkscape:window-height="578"
     id="namedview4"
     showgrid="false"
     inkscape:zoom="0.22124998"
     inkscape:cx="27.118642"
     inkscape:cy="533.33336"
     inkscape:window-x="0"
     inkscape:window-y="27"
     inkscape:window-maximized="0"
     inkscape:current-layer="g10" /><g
     id="g10"
     inkscape:groupmode="layer"
     inkscape:label="12853-NOYC9G"
     transform="matrix(1.3333333,0,0,-1.3333333,0,1066.6667)"><g
       id="g944"
       transform="matrix(1.4071128,0,0,1.4071128,-162.84514,-162.84512)"><g
         transform="translate(-5.9482421e-5,4.482422e-6)"
         id="g14"><g
           clip-path="url(#clipPath20)"
           id="g16"><g
             transform="translate(683.1016,399.9995)"
             id="g22"><path
               inkscape:connector-curvature="0"
               id="path24"
               style="fill:#ffd93b;fill-opacity:1;fill-rule:nonzero;stroke:none"
               d="m 0,0 c 0,-156.351 -126.75,-283.101 -283.102,-283.101 -156.352,0 -283.101,126.75 -283.101,283.101 0,156.353 126.749,283.102 283.101,283.102 C -126.75,283.102 0,156.353 0,0" /></g></g></g><g
         transform="translate(-5.9482421e-5,4.482422e-6)"
         id="g26"><g
           clip-path="url(#clipPath32)"
           id="g28"><g
             id="g34"><g
               id="g36"><path
                 inkscape:connector-curvature="0"
                 id="path48"
                 style="fill:url(#linearGradient46);stroke:none"
                 d="m 234.806,293.158 -3.973,-0.408 -3.259,-3.92 22.097,-21.152 150.779,-150.779 c 148.7,0.235 270.528,115.126 281.801,260.991 v 0 L 572.215,487.926 Z" /></g></g></g></g><path
         inkscape:connector-curvature="0"
         id="path58"
         style="fill:#414042;fill-opacity:1;fill-rule:nonzero;stroke:none"
         d="m 572.42494,288.83 h -344.851 v 199.277 h 344.851 z" /><g
         transform="translate(525.90524,388.4697)"
         id="g60"><path
           inkscape:connector-curvature="0"
           id="path62"
           style="fill:#d1d3d4;fill-opacity:1;fill-rule:nonzero;stroke:none"
           d="m 0,0 c 0,-47.649 -38.628,-86.278 -86.278,-86.278 -47.65,0 -86.278,38.629 -86.278,86.278 0,47.65 38.628,86.277 86.278,86.277 C -38.628,86.277 0,47.65 0,0" /></g><path
         inkscape:connector-curvature="0"
         id="path64"
         style="fill:#d1d3d4;fill-opacity:1;fill-rule:nonzero;stroke:none"
         d="m 572.42494,450.369 h -344.851 v 37.738 h 344.851 z" /><path
         inkscape:connector-curvature="0"
         id="path66"
         style="fill:#d1d3d4;fill-opacity:1;fill-rule:nonzero;stroke:none"
         d="m 572.42494,288.83 h -344.851 v 37.738 h 344.851 z" /><g
         transform="translate(513.15224,388.4697)"
         id="g68"><path
           inkscape:connector-curvature="0"
           id="path70"
           style="fill:#22363f;fill-opacity:1;fill-rule:nonzero;stroke:none"
           d="m 0,0 c 0,-40.606 -32.918,-73.526 -73.525,-73.526 -40.607,0 -73.525,32.92 -73.525,73.526 0,40.606 32.918,73.524 73.525,73.524 C -32.918,73.524 0,40.606 0,0" /></g><g
         transform="translate(492.74794,388.4697)"
         id="g72"><path
           inkscape:connector-curvature="0"
           id="path74"
           style="fill:#4e7387;fill-opacity:1;fill-rule:nonzero;stroke:none"
           d="m 0,0 c 0,-29.339 -23.784,-53.122 -53.121,-53.122 -29.336,0 -53.12,23.783 -53.12,53.122 0,29.336 23.784,53.119 53.12,53.119 C -23.784,53.119 0,29.336 0,0" /></g><g
         transform="translate(492.74794,388.4697)"
         id="g76"><path
           inkscape:connector-curvature="0"
           id="path78"
           style="fill:none;stroke:#578ca3;stroke-width:5;stroke-linecap:butt;stroke-linejoin:miter;stroke-miterlimit:10;stroke-dasharray:none;stroke-opacity:1"
           d="m 0,0 c 0,-29.339 -23.784,-53.122 -53.121,-53.122 -29.336,0 -53.12,23.783 -53.12,53.122 0,29.336 23.784,53.119 53.12,53.119 C -23.784,53.119 0,29.336 0,0 Z" /></g><g
         transform="translate(468.49214,388.4697)"
         id="g80"><path
           inkscape:connector-curvature="0"
           id="path82"
           style="fill:#204856;fill-opacity:1;fill-rule:nonzero;stroke:none"
           d="m 0,0 c 0,-15.94 -12.924,-28.866 -28.865,-28.866 -15.942,0 -28.864,12.926 -28.864,28.866 0,15.941 12.922,28.863 28.864,28.863 C -12.924,28.863 0,15.941 0,0" /></g><g
         transform="translate(457.86514,388.4697)"
         id="g84"><path
           inkscape:connector-curvature="0"
           id="path86"
           style="fill:#092830;fill-opacity:1;fill-rule:nonzero;stroke:none"
           d="m 0,0 c 0,-10.073 -8.166,-18.239 -18.238,-18.239 -10.071,0 -18.238,8.166 -18.238,18.239 0,10.071 8.167,18.236 18.238,18.236 C -8.166,18.236 0,10.071 0,0" /></g><g
         transform="translate(505.13374,471.2397)"
         id="g88"><path
           inkscape:connector-curvature="0"
           id="path90"
           style="fill:#d1d3d4;fill-opacity:1;fill-rule:nonzero;stroke:none"
           d="m 0,0 c 0,-3.521 -2.965,-6.377 -6.621,-6.377 h -113.876 c -3.656,0 -6.62,2.856 -6.62,6.377 v 44.063 c 0,3.52 2.964,6.376 6.62,6.376 H -6.621 C -2.965,50.439 0,47.583 0,44.063 Z" /></g><g
         transform="translate(-5.9482421e-5,4.482422e-6)"
         id="g92"><g
           id="g94" /><g
           id="g106"><g
             style="opacity:0.60000598"
             id="g104"
             clip-path="url(#clipPath98)"><g
               id="g102"
               transform="translate(423.875,422.4468)"><path
                 inkscape:connector-curvature="0"
                 id="path100"
                 style="fill:#ffffff;fill-opacity:1;fill-rule:nonzero;stroke:none"
                 d="m 0,0 c 0,-9.898 -8.024,-17.922 -17.923,-17.922 -9.898,0 -17.921,8.024 -17.921,17.922 0,9.897 8.023,17.921 17.921,17.921 C -8.024,17.921 0,9.897 0,0" /></g></g></g></g><g
         transform="translate(-5.9482421e-5,4.482422e-6)"
         id="g108"><g
           id="g110" /><g
           id="g122"><g
             style="opacity:0.60000598"
             id="g120"
             clip-path="url(#clipPath114)"><g
               id="g118"
               transform="translate(428.6836,400.0005)"><path
                 inkscape:connector-curvature="0"
                 id="path116"
                 style="fill:#ffffff;fill-opacity:1;fill-rule:nonzero;stroke:none"
                 d="m 0,0 c 0,-3.149 -2.552,-5.704 -5.703,-5.704 -3.15,0 -5.7,2.555 -5.7,5.704 0,3.149 2.55,5.702 5.7,5.702 C -2.552,5.702 0,3.149 0,0" /></g></g></g></g><g
         transform="translate(494.98624,489.9023)"
         id="g124"><path
           inkscape:connector-curvature="0"
           id="path126"
           style="fill:#4e7387;fill-opacity:1;fill-rule:nonzero;stroke:none"
           d="m 0,0 c 0,-3.521 -2.854,-6.376 -6.377,-6.376 h -53.549 c -3.52,0 -6.377,2.855 -6.377,6.376 v 19.129 c 0,3.522 2.857,6.377 6.377,6.377 H -6.377 C -2.854,25.506 0,22.651 0,19.129 Z" /></g><g
         transform="translate(417.28024,503.0806)"
         id="g128"><path
           inkscape:connector-curvature="0"
           id="path130"
           style="fill:#22363f;fill-opacity:1;fill-rule:nonzero;stroke:none"
           d="m 0,0 c 0,-3.521 -2.855,-6.376 -6.377,-6.376 h -11.207 c -3.521,0 -6.377,2.855 -6.377,6.376 v 3.401 c 0,3.521 2.856,6.376 6.377,6.376 H -6.377 C -2.855,9.777 0,6.922 0,3.401 Z" /></g><g
         transform="translate(415.22654,487.6709)"
         id="g132"><path
           inkscape:connector-curvature="0"
           id="path134"
           style="fill:#be1e2d;fill-opacity:1;fill-rule:nonzero;stroke:none"
           d="m 0,0 c 0,-2.465 -2,-4.463 -4.464,-4.463 -2.465,0 -4.464,1.998 -4.464,4.463 0,2.465 1.999,4.464 4.464,4.464 C -2,4.464 0,2.465 0,0" /></g><path
         inkscape:connector-curvature="0"
         id="path136"
         style="fill:#939598;fill-opacity:1;fill-rule:nonzero;stroke:none"
         d="m 299.94694,488.107 h -42.383 v 11.36 h 42.383 z" /><g
         transform="translate(-5.9482421e-5,4.482422e-6)"
         id="g138"><g
           id="g140" /><g
           id="g150"><g
             style="opacity:0.30000299"
             id="g148"
             clip-path="url(#clipPath144)"><path
               inkscape:connector-curvature="0"
               id="path146"
               style="fill:#939598;fill-opacity:1;fill-rule:nonzero;stroke:none"
               d="m 544.654,289.043 h 27.771 v 199.064 h -27.771 z" /></g></g></g><g
         transform="translate(-5.9482421e-5,4.482422e-6)"
         id="g152"><g
           id="g154" /><g
           id="g164"><g
             style="opacity:0.30000299"
             id="g162"
             clip-path="url(#clipPath158)"><path
               inkscape:connector-curvature="0"
               id="path160"
               style="fill:#939598;fill-opacity:1;fill-rule:nonzero;stroke:none"
               d="m 227.574,289.043 h 13.885 v 199.064 h -13.885 z" /></g></g></g></g></g></svg>