<?xml version="1.0" encoding="UTF-8" standalone="no"?>
<!-- Created with Inkscape (http://www.inkscape.org/) -->

<svg
   xmlns:dc="http://purl.org/dc/elements/1.1/"
   xmlns:cc="http://creativecommons.org/ns#"
   xmlns:rdf="http://www.w3.org/1999/02/22-rdf-syntax-ns#"
   xmlns:svg="http://www.w3.org/2000/svg"
   xmlns="http://www.w3.org/2000/svg"
   xmlns:sodipodi="http://sodipodi.sourceforge.net/DTD/sodipodi-0.dtd"
   xmlns:inkscape="http://www.inkscape.org/namespaces/inkscape"
   version="1.1"
   id="svg2"
   xml:space="preserve"
   width="1066.6667"
   height="1066.6667"
   viewBox="0 0 1066.6667 1066.6667"
   sodipodi:docname="paper-bag-with-food.svg"
   inkscape:version="0.92.3 (2405546, 2018-03-11)"><metadata
     id="metadata8"><rdf:RDF><cc:Work
         rdf:about=""><dc:format>image/svg+xml</dc:format><dc:type
           rdf:resource="http://purl.org/dc/dcmitype/StillImage" /><dc:title></dc:title></cc:Work></rdf:RDF></metadata><defs
     id="defs6"><clipPath
       clipPathUnits="userSpaceOnUse"
       id="clipPath18"><path
         d="M 0,800 H 800 V 0 H 0 Z"
         id="path16"
         inkscape:connector-curvature="0" /></clipPath><clipPath
       clipPathUnits="userSpaceOnUse"
       id="clipPath390"><path
         d="m 411.59,544.211 c -7.138,-2.228 -14.086,-10.32 -17.061,-20.882 v 0 C 390.723,509.824 383.945,485.463 378.46,472.63 v 0 c -5.486,-12.831 1.981,-27.985 14.216,-39.541 v 0 c 12.236,-11.557 22.598,-11.464 27.602,-11.29 v 0 c 5.003,0.176 5.858,6.603 13.254,5.59 v 0 c 7.396,-1.013 17.091,-5.855 24.884,2.057 v 0 c 7.793,7.912 19.627,21.62 17.424,37.566 v 0 c -2.365,17.113 -27.581,28.844 -30.846,36.624 v 0 c -2.925,6.969 -2.36,30.544 -20.386,38.792 v 0 c -1.129,0.517 -2.069,0.082 -3.106,-0.352 v 0 c -0.89,-0.372 -1.853,-0.745 -3.07,-0.516 v 0 c -1.751,0.328 -4.302,2.738 -6.245,2.738 v 0 c -0.207,0 -0.406,-0.027 -0.597,-0.087"
         id="path388"
         inkscape:connector-curvature="0" /></clipPath><clipPath
       clipPathUnits="userSpaceOnUse"
       id="clipPath402"><path
         d="M 0,800 H 800 V 0 H 0 Z"
         id="path400"
         inkscape:connector-curvature="0" /></clipPath><clipPath
       clipPathUnits="userSpaceOnUse"
       id="clipPath454"><path
         d="m 274.618,457.569 c 1.46,-30.654 23.526,-57.046 36.922,-61.076 v 0 c 13.398,-4.031 18.5,0.03 21.319,0.387 v 0 c 2.818,0.357 6.001,-6.509 16.575,-8.254 v 0 c 10.574,-1.744 42.253,19.45 51.55,44.307 v 0 c 9.297,24.858 -4.836,48.62 -18.41,53.179 v 0 c -8.975,3.014 -15.943,2.719 -21.925,2.424 v 0 c -3.066,-0.151 -5.874,-0.301 -8.56,-0.007 v 0 c -5.874,0.643 -18.527,16.708 -35.618,17.736 v 0 c -0.44,0.027 -0.888,0.04 -1.338,0.04 v 0 c -17.086,0.002 -41.937,-18.869 -40.515,-48.736"
         id="path452"
         inkscape:connector-curvature="0" /></clipPath><clipPath
       clipPathUnits="userSpaceOnUse"
       id="clipPath466"><path
         d="M 0,800 H 800 V 0 H 0 Z"
         id="path464"
         inkscape:connector-curvature="0" /></clipPath><clipPath
       clipPathUnits="userSpaceOnUse"
       id="clipPath606"><path
         d="m 464.276,447.06 c -4.44,3.703 -25.143,27.955 -25.143,27.955 v 0 c -1.793,-2.544 -23.322,-27.6 -23.322,-27.6 v 0 c -6.639,2.6 -34.883,24.295 -34.883,24.295 v 0 c -7.361,-2.644 -42.475,-35.933 -42.475,-35.933 v 0 c -4.682,2.574 -28.082,28.323 -28.082,28.323 v 0 c -5.509,-4.907 -24.648,-28.323 -24.648,-28.323 v 0 c -16.295,5.233 -47.328,31.475 -47.328,31.475 v 0 l -24.047,-37.494 -30.995,23.729 c 0,0 7.658,-179.135 -1.782,-213.732 v 0 c -13.826,-50.681 -28.5,-125.402 -28.5,-125.402 v 0 C 200.81,107.941 526.429,87.989 526.429,87.989 v 0 c -16.388,28.502 -31.351,156.754 -31.496,162.454 v 0 c -0.144,5.701 6.558,77.665 9.186,101.177 v 0 c 2.628,23.513 2.538,129.67 2.538,129.67 v 0 c -2.835,-1.676 -42.381,-34.23 -42.381,-34.23"
         id="path604"
         inkscape:connector-curvature="0" /></clipPath><clipPath
       clipPathUnits="userSpaceOnUse"
       id="clipPath618"><path
         d="M 0,800 H 800 V 0 H 0 Z"
         id="path616"
         inkscape:connector-curvature="0" /></clipPath></defs><sodipodi:namedview
     pagecolor="#ffffff"
     bordercolor="#666666"
     borderopacity="1"
     objecttolerance="10"
     gridtolerance="10"
     guidetolerance="10"
     inkscape:pageopacity="0"
     inkscape:pageshadow="2"
     inkscape:window-width="1204"
     inkscape:window-height="516"
     id="namedview4"
     showgrid="false"
     inkscape:zoom="0.22124998"
     inkscape:cx="402.25992"
     inkscape:cy="533.33337"
     inkscape:window-x="0"
     inkscape:window-y="27"
     inkscape:window-maximized="0"
     inkscape:current-layer="g10" /><g
     id="g10"
     inkscape:groupmode="layer"
     inkscape:label="15039-NPZF8U"
     transform="matrix(1.3333333,0,0,-1.3333333,0,1066.6667)"><g
       id="g144"
       transform="translate(199.251,159.5124)"><path
         d="m 0,0 c 0,0 -74.294,-38.474 -95.134,-51.298 -20.84,-12.825 376.352,-43.876 440.481,-46.49 C 366.687,-98.657 482.767,0 492.386,9.618 502.004,19.237 115.181,17.634 0,0"
         style="fill:#dddddd;fill-opacity:1;fill-rule:nonzero;stroke:none"
         id="path146"
         inkscape:connector-curvature="0" /></g><g
       id="g148"
       transform="translate(166.3582,133.5907)"><path
         d="m 0,0 c 0,0 -24.226,-20.663 -25.651,-24.226 -1.425,-3.562 364.516,-29.925 387.819,-29.213 20.086,7.838 126.302,83.365 126.302,83.365 z"
         style="fill:#9e9e9e;fill-opacity:1;fill-rule:nonzero;stroke:none"
         id="path150"
         inkscape:connector-curvature="0" /></g><g
       id="g152"
       transform="translate(183.353,453.4871)"><path
         d="M 0,0 28.144,-15.743 47.15,13.765 65.195,-17.71 32.598,-37.78 Z"
         style="fill:#77542f;fill-opacity:1;fill-rule:nonzero;stroke:none"
         id="path154"
         inkscape:connector-curvature="0" /></g><g
       id="g156"
       transform="translate(626.1351,488.3339)"><path
         d="m 0,0 -42.695,-26.507 -22.42,30.353 -34.591,-67.76 c 0,0 50.497,-18.114 99.706,63.914"
         style="fill:#77542f;fill-opacity:1;fill-rule:nonzero;stroke:none"
         id="path158"
         inkscape:connector-curvature="0" /></g><g
       id="g160"
       transform="translate(305.6734,325.9469)"><path
         d="m 0,0 c -34.13,-8.827 -65.551,66.976 -81.939,114.002 -16.388,47.026 -62.702,201.642 -42.751,228.718 19.95,27.075 70.539,-23.513 79.089,-69.114 0,0 23.513,-24.938 25.651,-65.552 0,0 22.088,-17.1 19.95,-59.138 0,0 18.525,-29.214 12.825,-59.852 C 12.825,89.064 41.326,10.688 0,0"
         style="fill:#efa154;fill-opacity:1;fill-rule:nonzero;stroke:none"
         id="path162"
         inkscape:connector-curvature="0" /></g><g
       id="g164"
       transform="translate(258.3432,597.8234)"><path
         d="m 0,0 c 0,0 -14.25,9.975 -31.351,6.413 -17.1,-3.563 -27.788,-27.076 -27.788,-27.076 0,0 27.788,24.226 59.139,20.663"
         style="fill:#f7ce80;fill-opacity:1;fill-rule:nonzero;stroke:none"
         id="path166"
         inkscape:connector-curvature="0" /></g><g
       id="g168"
       transform="translate(283.9938,532.272)"><path
         d="m 0,0 c 0,0 -12.425,9.975 -33.644,6.413 -21.22,-3.563 -28.345,-32.064 -28.345,-32.064 0,0 24.938,29.214 61.989,25.651"
         style="fill:#f7ce80;fill-opacity:1;fill-rule:nonzero;stroke:none"
         id="path170"
         inkscape:connector-curvature="0" /></g><g
       id="g172"
       transform="translate(303.9442,473.1333)"><path
         d="m 0,0 c 0,0 -42.751,23.513 -61.276,-21.375 0,0 19.238,18.525 61.276,21.375"
         style="fill:#f7ce80;fill-opacity:1;fill-rule:nonzero;stroke:none"
         id="path174"
         inkscape:connector-curvature="0" /></g><g
       id="g176"
       transform="translate(318.4987,415.0113)"><path
         d="m 0,0 c 0,0 -36.338,12.075 -43.463,-18.188 0,0 13.537,14.625 43.463,18.188"
         style="fill:#f7ce80;fill-opacity:1;fill-rule:nonzero;stroke:none"
         id="path178"
         inkscape:connector-curvature="0" /></g><g
       id="g180"
       transform="translate(199.2045,597.1121)"><path
         d="m 0,0 c -8.37,-11.069 -18.345,53.052 -11.22,64.452 7.125,11.4 29.565,2.852 40.789,-12.468 C 40.793,36.664 54.331,15.789 45.781,13.757 37.231,11.726 17.743,23.464 0,0"
         style="fill:#fcad65;fill-opacity:1;fill-rule:nonzero;stroke:none"
         id="path182"
         inkscape:connector-curvature="0" /></g><g
       id="g184"
       transform="translate(216.6159,525.1956)"><path
         d="m 0,0 c -7.877,-1.559 -11.891,45.177 5.389,56.216 17.28,11.039 31.941,12.084 42.096,0 C 58.573,43.023 61.498,24.504 56.69,23.791 51.883,23.079 36.31,22.755 26.283,19.71 16.257,16.666 9.394,1.859 0,0"
         style="fill:#fcad65;fill-opacity:1;fill-rule:nonzero;stroke:none"
         id="path186"
         inkscape:connector-curvature="0" /></g><g
       id="g188"
       transform="translate(240.4778,465.5229)"><path
         d="m 0,0 c -9.694,-1.15 -18.386,17.629 -11.704,35.226 6.682,17.598 44.743,33.328 57.638,23.52 12.896,-9.807 15.111,-29.793 10.355,-36.382 -4.755,-6.589 -25.532,3.027 -34.025,0 C 13.77,19.338 11.168,1.325 0,0"
         style="fill:#fcad65;fill-opacity:1;fill-rule:nonzero;stroke:none"
         id="path190"
         inkscape:connector-curvature="0" /></g><g
       id="g192"
       transform="translate(262.7448,409.2188)"><path
         d="M 0,0 C -7.09,-0.298 -20.077,44.693 10.561,54.304 41.199,63.914 46.749,48.564 47.627,35.027 48.505,21.491 44.809,12.475 36.325,15.201 27.842,17.928 14.197,0.597 0,0"
         style="fill:#fcad65;fill-opacity:1;fill-rule:nonzero;stroke:none"
         id="path194"
         inkscape:connector-curvature="0" /></g><g
       id="g196"
       transform="translate(315.8842,338.424)"><path
         d="m 0,0 c -11.717,-8.335 -48.193,30.297 -46.055,42.409 2.138,12.113 29.687,29.884 43.558,24.08 C 11.373,60.685 9.493,6.753 0,0"
         style="fill:#fcad65;fill-opacity:1;fill-rule:nonzero;stroke:none"
         id="path198"
         inkscape:connector-curvature="0" /></g><g
       id="g200"
       transform="translate(222.005,617.2809)"><path
         d="M 0,0 C -14.132,-1.348 -15.411,16.451 -5.389,18.254 4.633,20.058 19.414,1.852 0,0"
         style="fill:#ffbb71;fill-opacity:1;fill-rule:nonzero;stroke:none"
         id="path202"
         inkscape:connector-curvature="0" /></g><g
       id="g204"
       transform="translate(203.6596,644.009)"><path
         d="M 0,0 C -8.512,-3.669 7.029,-19.934 12.291,-14.4 17.553,-8.867 11.757,5.067 0,0"
         style="fill:#ffbb71;fill-opacity:1;fill-rule:nonzero;stroke:none"
         id="path206"
         inkscape:connector-curvature="0" /></g><g
       id="g208"
       transform="translate(222.005,638.6144)"><path
         d="M 0,0 C -7.039,-0.19 -5.702,6.721 0,5.395 5.702,4.068 7.658,0.207 0,0"
         style="fill:#ffbb71;fill-opacity:1;fill-rule:nonzero;stroke:none"
         id="path210"
         inkscape:connector-curvature="0" /></g><g
       id="g212"
       transform="translate(203.5544,627.6429)"><path
         d="m 0,0 c -0.567,0.33 -1.36,0.33 -1.927,0 -0.78,-0.347 -1.308,-1.221 -1.308,-2.061 0,-1.238 1.033,-2.271 2.271,-2.271 1.239,0 2.272,1.033 2.272,2.271 C 1.308,-1.221 0.78,-0.347 0,0"
         style="fill:#ffbb71;fill-opacity:1;fill-rule:nonzero;stroke:none"
         id="path214"
         inkscape:connector-curvature="0" /></g><g
       id="g216"
       transform="translate(249.3254,575.9138)"><path
         d="m 0,0 c -1.334,5.119 -8.779,11.093 -13.621,6.674 -1.368,-1.249 -1.649,-3.157 -1.817,-4.886 -0.102,-1.052 0.181,-2.002 0.676,-2.844 -0.363,-0.144 -0.711,-0.342 -1.03,-0.613 -1.489,-1.263 -1.052,-3.646 -0.309,-5.165 0.428,-0.874 1.546,-1.463 2.498,-1.433 0.433,0.014 0.859,0.099 1.283,0.181 1.585,0.31 2.24,2.049 1.964,3.46 -0.003,0.018 -0.014,0.036 -0.018,0.053 2.122,-1.535 5.147,-1.342 7.489,-0.509 C -0.743,-4.32 0.6,-2.301 0,0"
         style="fill:#ffbb71;fill-opacity:1;fill-rule:nonzero;stroke:none"
         id="path218"
         inkscape:connector-curvature="0" /></g><g
       id="g220"
       transform="translate(232.9701,548.3811)"><path
         d="M 0,0 C -0.985,0.077 1.568,-0.273 0,0"
         style="fill:#ffbb71;fill-opacity:1;fill-rule:nonzero;stroke:none"
         id="path222"
         inkscape:connector-curvature="0" /></g><g
       id="g224"
       transform="translate(241.4511,556.7828)"><path
         d="m 0,0 c -0.019,0.066 -0.047,0.132 -0.068,0.198 0.089,0.723 0.053,1.474 -0.127,2.225 -0.852,3.561 -4.906,5.635 -8.007,6.822 -2.337,0.894 -5.574,0.887 -7.357,-1.141 -1.161,-0.795 -2.131,-1.982 -2.759,-3.527 -1.537,-3.783 1.703,-8.232 4.495,-10.427 1.207,-0.949 2.554,-1.899 4.063,-2.304 0.406,-0.128 0.829,-0.204 1.262,-0.245 0.006,-0.001 0.011,-0.002 0.017,-0.003 0.188,-0.014 0.492,-0.043 0.995,-0.097 0.342,-0.036 0.678,-0.06 1.021,-0.068 0.86,-0.018 1.795,0.108 2.603,0.416 C -0.411,-6.837 0.995,-3.484 0,0"
         style="fill:#ffbb71;fill-opacity:1;fill-rule:nonzero;stroke:none"
         id="path226"
         inkscape:connector-curvature="0" /></g><g
       id="g228"
       transform="translate(249.0303,562.7145)"><path
         d="m 0,0 c 0.007,0.082 0.027,0.163 0.031,0.245 0.071,1.444 -1.26,2.651 -2.651,2.651 -1.375,0 -2.742,-1.207 -2.65,-2.651 0.067,-1.057 0.449,-2.476 1.513,-2.986 1.128,-0.54 2.073,-0.409 3.054,0.366 C -0.004,-1.824 0.185,-0.835 0,0"
         style="fill:#ffbb71;fill-opacity:1;fill-rule:nonzero;stroke:none"
         id="path230"
         inkscape:connector-curvature="0" /></g><g
       id="g232"
       transform="translate(283.8538,512.2977)"><path
         d="m 0,0 c -1.145,1.717 -2.785,2.779 -4.578,3.582 -4.59,5.494 -15.335,7.487 -16.723,-1.559 -0.093,-0.607 -0.133,-1.215 -0.137,-1.822 -0.233,0.31 -0.482,0.606 -0.734,0.88 -0.952,1.033 -2.76,1.276 -3.943,0.508 -0.233,-0.149 -0.454,-0.318 -0.661,-0.505 -0.159,-0.206 -0.318,-0.412 -0.477,-0.618 -0.01,-0.014 -0.019,-0.029 -0.029,-0.044 -0.149,-0.229 -0.249,-0.483 -0.323,-0.745 -0.02,-0.063 -0.04,-0.126 -0.055,-0.19 -0.008,-0.039 -0.015,-0.078 -0.022,-0.117 -0.025,-0.135 -0.04,-0.271 -0.043,-0.408 -0.002,-0.031 -0.004,-0.062 -0.005,-0.093 0.001,-0.062 0.006,-0.123 0.011,-0.185 0.017,-0.4 0.104,-0.795 0.257,-1.164 0.054,-0.555 0.283,-1.084 0.733,-1.534 0.2,-0.2 0.411,-0.341 0.638,-0.456 0.578,-0.795 1.583,-1.302 2.542,-1.302 1.278,0 2.232,0.735 2.773,1.791 1.056,-3.164 3.311,-5.899 6.407,-7.377 4.374,-2.088 11.522,-2.729 14.432,2.116 C 1.774,-6.394 1.857,-2.785 0,0"
         style="fill:#ffbb71;fill-opacity:1;fill-rule:nonzero;stroke:none"
         id="path234"
         inkscape:connector-curvature="0" /></g><g
       id="g236"
       transform="translate(258.4918,495.8522)"><path
         d="m 0,0 c -0.339,1.93 -2.141,3.608 -3.705,4.606 -1.225,0.782 -2.699,1.252 -4.119,1.193 -0.296,0.196 -0.611,0.358 -0.938,0.472 -1.935,0.676 -4.132,-0.278 -5.518,-1.63 -1.481,-1.444 -2.244,-3.822 -1.517,-5.814 1,-2.737 3.505,-4.093 6.153,-4.924 2.397,-0.751 4.918,-1.14 7.234,0.072 C -0.164,-4.849 0.402,-2.288 0,0"
         style="fill:#ffbb71;fill-opacity:1;fill-rule:nonzero;stroke:none"
         id="path238"
         inkscape:connector-curvature="0" /></g><g
       id="g240"
       transform="translate(283.3723,453.8335)"><path
         d="m 0,0 c -3.114,0.38 -6.212,-2.068 -7.963,-4.674 -0.805,2.01 -2.29,3.645 -4.633,4.051 -2.836,0.492 -4.923,-0.816 -6.5,-2.77 -0.383,-0.382 -0.746,-0.808 -1.078,-1.288 -0.657,-0.95 -1.155,-2.069 -1.514,-3.272 -0.213,-0.501 -0.41,-0.997 -0.591,-1.474 -1.096,-2.894 -1.358,-7.358 1.105,-9.321 0.369,-0.875 0.817,-1.686 1.359,-2.386 2.217,-2.867 6.318,-1.744 8.411,0.529 1.127,1.224 1.952,2.596 2.569,4.057 2.818,-6.346 11.231,-3.053 14.402,1.518 C 9.418,-9.477 7.246,-0.884 0,0"
         style="fill:#ffbb71;fill-opacity:1;fill-rule:nonzero;stroke:none"
         id="path242"
         inkscape:connector-curvature="0" /></g><g
       id="g244"
       transform="translate(292.9021,446.3959)"><path
         d="m 0,0 c -2.015,0 -2.618,-2.635 -0.995,-3.672 0.627,-0.4 1.363,-0.4 1.99,0 C 2.618,-2.635 2.015,0 0,0"
         style="fill:#ffbb71;fill-opacity:1;fill-rule:nonzero;stroke:none"
         id="path246"
         inkscape:connector-curvature="0" /></g><g
       id="g248"
       transform="translate(310.3626,388.1603)"><path
         d="M 0,0 C -0.127,0.645 -0.353,1.273 -0.622,1.887 -0.805,2.968 -1.159,4.038 -1.591,4.998 -2.352,6.69 -3.72,8.241 -5.36,9.495 c -1.169,1.578 -2.778,2.825 -4.703,3.526 -3.362,1.225 -8.219,-0.586 -9.976,-3.695 -1.32,-2.337 -0.726,-4.787 0.547,-6.881 -0.205,0.02 -0.417,0.021 -0.64,-0.003 -1.24,-0.129 -2.288,-0.943 -2.288,-2.287 0,-1.345 1.048,-2.159 2.288,-2.288 0.716,-0.075 1.329,0.08 1.879,0.496 0.099,0.064 0.183,0.136 0.266,0.212 0.013,0.012 0.027,0.019 0.039,0.032 -0.006,-0.004 -0.013,-0.008 -0.02,-0.012 0.345,0.322 0.557,0.725 0.638,1.159 1.454,-1.421 3.441,-2.84 5.587,-3.819 1.617,-1.152 3.382,-2.024 5.154,-2.397 C -2.216,-7.383 0.847,-4.319 0,0"
         style="fill:#ffbb71;fill-opacity:1;fill-rule:nonzero;stroke:none"
         id="path250"
         inkscape:connector-curvature="0" /></g><g
       id="g252"
       transform="translate(364.0092,714.4677)"><path
         d="m 0,0 3.741,22.979 c 0,0 26.185,2.672 41.147,-9.085 L 35.27,-8.016 Z"
         style="fill:#ff9750;fill-opacity:1;fill-rule:nonzero;stroke:none"
         id="path254"
         inkscape:connector-curvature="0" /></g><g
       id="g256"
       transform="translate(364.0092,719.8116)"><path
         d="m 0,0 c -9.089,0.454 -9.619,-10.153 0,-14.428 0,0 -8.016,-53.439 -17.1,-62.524 -9.085,-9.084 -32.598,-17.4 -45.958,-40.229 -13.359,-22.828 -45.779,-192.763 -48.807,-206.657 -3.028,-13.894 99.574,-58.248 111.865,-22.979 12.291,35.27 40.613,189.707 39.01,206.273 -1.603,16.566 -19.772,47.026 -21.375,57.18 -1.603,10.153 10.687,58.248 12.291,62.523 10.153,-2.138 16.696,7.481 9.15,12.825 C 31.529,-2.672 10.688,-0.534 0,0"
         style="fill:#d85555;fill-opacity:1;fill-rule:nonzero;stroke:none"
         id="path258"
         inkscape:connector-curvature="0" /></g><g
       id="g260"
       transform="translate(367.5717,716.6951)"><path
         d="m 0,0 c -8.827,0.441 -9.342,-6.091 0,-10.243 0,0 -5.064,-58.54 -13.887,-67.363 -8.823,-8.823 -34.715,-17.788 -47.69,-39.959 -12.975,-22.171 -43.551,-182.912 -46.492,-196.406 -2.941,-13.493 87.459,-53.205 99.396,-18.952 11.937,34.254 39.766,177.3 38.209,193.388 -1.557,16.089 -20.353,48.648 -21.91,58.509 -1.557,9.86 13.27,60.843 14.827,64.994 9.861,-2.076 14.684,3.118 7.354,8.308 C 22.478,-2.534 10.38,-0.519 0,0"
         style="fill:#721919;fill-opacity:1;fill-rule:nonzero;stroke:none"
         id="path262"
         inkscape:connector-curvature="0" /></g><g
       id="g264"
       transform="translate(307.6206,586.043)"><path
         d="m 0,0 c 0,0 48.342,-13.9 80.94,-15.503 0,0 -17.783,-105.096 -20.989,-117.922 -2.85,-6.412 -77.308,8.551 -84.789,18.17 0,0 19.988,101.895 24.838,115.255"
         style="fill:#ffd0a9;fill-opacity:1;fill-rule:nonzero;stroke:none"
         id="path266"
         inkscape:connector-curvature="0" /></g><g
       id="g268"
       transform="translate(309.5456,581.4117)"><path
         d="m 0,0 c 0,0 45.025,-12.946 75.385,-14.439 0,0 -16.562,-97.884 -19.548,-109.829 -2.655,-5.973 -72.003,7.963 -78.971,16.922 0,0 18.616,94.903 23.134,107.346"
         style="fill:#ffe5d2;fill-opacity:1;fill-rule:nonzero;stroke:none"
         id="path270"
         inkscape:connector-curvature="0" /></g><g
       id="g272"
       transform="translate(328.7168,500.2811)"><path
         d="M 0,0 C 0.006,0.015 0.011,0.031 0.017,0.046 0.068,0.018 0.117,-0.011 0.169,-0.039 0.113,-0.023 0.057,-0.013 0,0 m 33.37,32.476 c -0.203,0.03 -0.403,0.039 -0.602,0.04 0.795,0.819 1.479,1.96 1.978,3.511 0.976,3.036 -2.913,7.611 -7.43,8.278 -0.925,0.136 -1.816,0.003 -2.638,-0.312 0.404,1.947 -0.665,4.195 -3.586,4.591 -3.088,0.42 -5.862,-2.463 -5.068,-4.844 -0.608,0.144 -1.202,0.191 -1.76,0.123 0.945,2.176 3.286,6.891 6.38,8.395 4.069,1.978 15.922,-1.508 15.922,-1.508 l -0.734,2.743 c 0,0 -10.012,2.351 -15.64,0.649 C 14.564,52.44 12.4,43.063 12.4,43.063 c 0,-0.002 0,-0.004 0,-0.006 -0.086,-0.073 -0.168,-0.155 -0.248,-0.238 -1.197,1.724 -3.498,2.707 -5.463,3.707 -3.016,1.533 -8.491,-1.713 -9.48,-5.149 -0.823,2.073 -3.242,4.165 -5.941,4.563 -3.721,0.55 -6.842,-3.979 -5.222,-7.268 0.899,-1.824 3.56,-3.746 6.157,-3.846 -1.575,-1.703 -2.753,-4.197 -2.384,-6.282 0.345,-1.948 1.732,-3.759 3.575,-4.948 -0.252,-0.061 -0.497,-0.15 -0.72,-0.291 -1.371,-0.393 -2.369,-1.548 -2.122,-3.503 -1.868,0.676 -3.681,0.499 -4.848,-0.925 -1.754,-2.139 -0.674,-5.201 1.204,-7.167 -2.373,-0.759 -4.764,-3.073 -4.426,-5.14 0.388,-2.365 2.87,-4.566 5.01,-5.43 -2.061,-1.356 -3.227,-4.229 -2.104,-6.509 0.637,-1.292 2.163,-2.633 3.921,-3.337 -1.244,-1.846 -0.866,-4.375 3.068,-5.34 4.19,-1.028 6.125,2.865 4.716,5.416 0.561,-0.249 1.239,-0.419 2.061,-0.476 2.026,-0.139 4.261,2.964 3.983,5.859 -0.118,1.227 -0.903,2.199 -1.93,2.778 0.216,-0.07 0.44,-0.137 0.682,-0.196 C 5.128,-1.46 7.018,0.686 7.059,2.88 7.94,2.506 8.832,2.424 9.605,2.77 c 2.19,0.983 3.801,2.588 3.906,4.363 3.908,-2.086 9.242,2.094 6.197,7.288 -0.544,0.928 -1.31,1.644 -2.174,2.146 0.394,-0.019 0.775,-0.013 1.129,0.015 0.936,0.074 2.635,1.473 3.643,3.203 0.072,-0.321 0.169,-0.638 0.319,-0.943 1.614,-3.276 8.943,-6.885 11.3,0.448 0.208,0.646 0.143,1.377 -0.126,2.115 2.256,-0.285 4.553,0.708 5.692,4.252 0.805,2.501 -2.399,6.27 -6.121,6.819"
         style="fill:#e26666;fill-opacity:1;fill-rule:nonzero;stroke:none"
         id="path274"
         inkscape:connector-curvature="0" /></g><g
       id="g276"
       transform="translate(367.5717,706.4519)"><path
         d="M 0,0 C 0,0 20.238,-5.648 24.225,-6.092 24.225,-6.092 10.832,0 0,0"
         style="fill:#230303;fill-opacity:1;fill-rule:nonzero;stroke:none"
         id="path278"
         inkscape:connector-curvature="0" /></g><g
       id="g280"
       transform="translate(351.9458,625.3647)"><path
         d="M 0,0 C -9.911,1.995 -37.16,-16.559 -39.628,-28.253 -42.096,-39.946 -4.953,-44.493 3.035,-41.999 11.022,-39.505 14.621,-2.943 0,0"
         style="fill:#d85555;fill-opacity:1;fill-rule:nonzero;stroke:none"
         id="path282"
         inkscape:connector-curvature="0" /></g><g
       id="g284"
       transform="translate(367.5717,722.0796)"><path
         d="m 0,0 c 0,0 1.536,11.716 2.31,12.785 0.774,1.068 20.546,0 26.157,-2.672 C 34.078,7.441 26.329,-3.781 26.329,-3.781 26.329,-3.781 8.139,0.575 0,0"
         style="fill:#ffc299;fill-opacity:1;fill-rule:nonzero;stroke:none"
         id="path286"
         inkscape:connector-curvature="0" /></g><g
       id="g288"
       transform="translate(422.4981,404.9881)"><path
         d="m 0,0 c 0,0 89.44,145.009 104.027,155.641 14.587,10.632 42.352,9.492 46.667,10.384 4.315,0.892 28.85,32.509 32.198,38.789 0,0 -6.218,7.744 -1.749,12.374 4.469,4.629 10.986,7.036 33.418,-6.722 22.433,-13.758 31.122,-23.564 25.995,-31.198 -5.127,-7.633 -18.263,-1.917 -18.263,-1.917 0,0 -25.036,-36.561 -26.25,-40.093 -1.215,-3.533 11.259,-28.565 8.741,-42.676 C 202.266,80.471 110.491,-61.758 105.022,-69.026 99.553,-76.294 7.262,-64.427 0,0"
         style="fill:#d3d3d3;fill-opacity:1;fill-rule:nonzero;stroke:none"
         id="path290"
         inkscape:connector-curvature="0" /></g><g
       id="g292"
       transform="translate(430.4719,405.91)"><path
         d="m 0,0 c 0,0 82.98,140.282 97.567,150.914 14.587,10.632 42.009,7.901 46.324,8.793 4.315,0.893 31.614,36.747 34.962,43.027 0,0 -5.211,4.419 -2.116,10.06 2.434,4.438 4.805,8.477 27.238,-5.281 22.432,-13.758 31.485,-19.065 26.357,-26.698 -5.127,-7.634 -19.352,-1.045 -19.352,-1.045 0,0 -27.786,-38.419 -29.001,-41.952 -1.215,-3.532 11.454,-29.805 8.937,-43.916 C 188.398,79.791 99.775,-59.184 94.306,-66.452 88.837,-73.72 7.262,-64.427 0,0"
         style="fill:#eaeaea;fill-opacity:1;fill-rule:nonzero;stroke:none"
         id="path294"
         inkscape:connector-curvature="0" /></g><g
       id="g296"
       transform="translate(522.5187,548.1371)"><path
         d="m 0,0 c 0,0 -86.451,-130.034 -92.047,-142.227 -5.595,-12.193 21.025,-39.018 33.108,-47.716 12.083,-8.697 50.989,-16.357 58.211,-14.158 7.221,2.199 90.455,140.354 94.19,149.749 3.735,9.395 2.065,21.234 -4.56,24.863 -6.626,3.629 -19.518,4.43 -24.081,6.183 -4.564,1.752 -1.392,14.101 -9.368,17.282 -7.976,3.18 -14.768,-5.812 -19.854,-3.82 C 30.513,-7.852 32.61,-2.93 23.182,2.45 16.771,6.108 3.779,5.193 0,0"
         style="fill:#ffffff;fill-opacity:1;fill-rule:nonzero;stroke:none"
         id="path298"
         inkscape:connector-curvature="0" /></g><g
       id="g300"
       transform="translate(609.2146,605.9579)"><path
         d="M 0,0 C 0,0 11.326,-15.039 32.106,-23.476 32.106,-23.476 5.574,-16.218 0,0"
         style="fill:#a0a0a0;fill-opacity:1;fill-rule:nonzero;stroke:none"
         id="path302"
         inkscape:connector-curvature="0" /></g><g
       id="g304"
       transform="translate(615.6613,621.846)"><path
         d="m 0,0 c 0,0 7.946,17.961 9.497,19.769 1.552,1.808 50.378,-26.94 49.445,-30.111 -0.933,-3.17 -14.675,-18.709 -14.675,-18.709 0,0 -35.918,10.955 -44.267,29.051"
         style="fill:#fcb77e;fill-opacity:1;fill-rule:nonzero;stroke:none"
         id="path306"
         inkscape:connector-curvature="0" /></g><g
       id="g308"
       transform="translate(637.418,591.9871)"><path
         d="m 0,0 c -1.109,2.493 -3.238,3.496 -5.483,4.964 -2.994,1.958 -5.763,4.224 -8.389,6.646 -4.458,4.111 -7.415,9.731 -12.043,13.551 -1.19,0.982 -2.53,-0.496 -2.377,-1.676 0.854,-6.566 6.954,-12.417 11.587,-16.689 3.883,-3.581 10.04,-9.738 15.673,-9.062 C 0.041,-2.137 0.372,-0.837 0,0"
         style="fill:#ffffff;fill-opacity:1;fill-rule:nonzero;stroke:none"
         id="path310"
         inkscape:connector-curvature="0" /></g><g
       id="g312"
       transform="translate(546.1171,560.7165)"><path
         d="m 0,0 c 13.93,1.268 26.486,-3.228 36.554,7.519 6.031,6.437 18.173,27.018 22.114,26.826 3.94,-0.192 8.006,-5.351 6.822,-8.155 C 64.305,23.386 43.588,-4.287 42.046,-6.72 40.504,-9.152 17.978,-15.358 13.372,-12.316 8.766,-9.274 4.294,-3.339 0,0"
         style="fill:#ffffff;fill-opacity:1;fill-rule:nonzero;stroke:none"
         id="path314"
         inkscape:connector-curvature="0" /></g><g
       id="g316"
       transform="translate(618.4034,621.7333)"><path
         d="m 0,0 7.33,14.479 c 0,0 21.358,-10.091 31.272,-16.127 9.914,-6.036 -3.004,-19.147 -3.004,-19.147 0,0 -19.339,3.889 -35.598,20.795"
         style="fill:#ffcea9;fill-opacity:1;fill-rule:nonzero;stroke:none"
         id="path318"
         inkscape:connector-curvature="0" /></g><g
       id="g320"
       transform="translate(615.6613,621.846)"><path
         d="m 0,0 c 0,0 4.487,-15.262 44.267,-29.051 0,0 -17.644,3.971 -29.76,11.972 C 2.392,-9.079 0,0 0,0"
         style="fill:#9b511b;fill-opacity:1;fill-rule:nonzero;stroke:none"
         id="path322"
         inkscape:connector-curvature="0" /></g><g
       id="g324"
       transform="translate(479.053,633.3606)"><path
         d="m 0,0 c -9.829,2.255 -14.387,-0.028 -19.441,-4.073 -5.055,-4.045 -18.68,-39.758 -28.174,-57.279 -9.494,-17.522 -31.237,-72.305 -32.4,-100.831 -1.163,-28.525 4.218,-54.578 10.56,-60.523 6.343,-5.946 17.54,-11.19 24.932,-12.274 7.393,-1.084 31.136,1.266 34.266,12.471 3.13,11.205 0.48,85.343 4.894,102.843 4.414,17.499 34.847,92.083 32.434,98.92 C 24.658,-13.91 16.567,-3.801 0,0"
         style="fill:#24630d;fill-opacity:1;fill-rule:nonzero;stroke:none"
         id="path326"
         inkscape:connector-curvature="0" /></g><g
       id="g328"
       transform="translate(482.5833,619.298)"><path
         d="m 0,0 c -9.732,4.134 -17.08,-1.685 -29.686,-25.017 -12.605,-23.332 -34.195,-89.171 -34.796,-99.674 -0.601,-10.502 -2.113,-64.49 -0.018,-71.092 2.094,-6.601 24.011,-12.855 29.203,-8.52 5.192,4.335 7.041,86.182 7.109,96.419 0.068,10.237 12.219,40.209 20.346,57.853 C 0.285,-32.387 11.653,-4.95 0,0"
         style="fill:#327214;fill-opacity:1;fill-rule:nonzero;stroke:none"
         id="path330"
         inkscape:connector-curvature="0" /></g><g
       id="g332"
       transform="translate(441.5728,406.5764)"><path
         d="m 0,0 c 0,0 15.706,3.985 16.996,9.198 1.29,5.213 3.463,83.019 6.563,99.906 3.101,16.887 22.908,62.133 25.216,69.192 2.309,7.059 9.286,20.011 7.881,25.432 l -8.394,13.182 c 0,0 15.294,-5.722 16.289,-10.872 0.994,-5.15 -32.479,-92.804 -33.456,-104.89 C 30.117,89.062 30.733,5.429 25.672,1.144 20.611,-3.142 1.251,-10.508 -6.35,-8.281 -13.951,-6.054 0,0 0,0"
         style="fill:#21540b;fill-opacity:1;fill-rule:nonzero;stroke:none"
         id="path334"
         inkscape:connector-curvature="0" /></g><g
       id="g336"
       transform="translate(484.1389,645.8589)"><path
         d="m 0,0 c 0,0 -9.738,4.1 -11.777,2.401 -2.038,-1.699 -8.384,-15.999 -8.384,-15.999 0,0 12.209,-4.661 13.916,-4.586 1.707,0.075 5.047,1.932 5.047,1.932 0,0 3.034,-3.791 4.898,-5.017 1.865,-1.226 10.182,-5.036 11.198,-5.243 1.015,-0.207 2.404,1.165 2.404,1.165 0,0 -0.055,-3.125 0.795,-4.144 0.85,-1.019 3.014,-1.691 3.014,-1.691 0,0 2.315,2.931 2.766,4.108 0.452,1.177 2.841,9.784 2.194,10.761 -0.647,0.978 -4.094,2.739 -4.094,2.739 0,0 -0.15,3.414 -0.838,4.189 -0.688,0.774 -2.677,1.391 -2.677,1.391 0,0 1.076,5.28 0.591,6.013 C 18.568,-1.248 7.901,4.522 6.194,4.447 4.487,4.372 0,0 0,0"
         style="fill:#85d348;fill-opacity:1;fill-rule:nonzero;stroke:none"
         id="path338"
         inkscape:connector-curvature="0" /></g><g
       id="g340"
       transform="translate(490.3804,619.4194)"><path
         d="m 0,0 c 0,0 4.846,-8.39 4.3,-13.143 -0.546,-4.753 -7.366,-19.012 -7.366,-19.012 0,0 5.801,14.89 5.418,19.832 C 1.969,-7.38 0,0 0,0"
         style="fill:#194705;fill-opacity:1;fill-rule:nonzero;stroke:none"
         id="path342"
         inkscape:connector-curvature="0" /></g><g
       id="g344"
       transform="translate(477.886,625.562)"><path
         d="M 0,0 C 0,0 -9.514,-1.021 -12.857,-3.935 -16.2,-6.849 -23.208,-22.55 -23.208,-22.55 c 0,0 9.121,15.694 11.81,17.472 C -8.709,-3.3 0,0 0,0"
         style="fill:#194705;fill-opacity:1;fill-rule:nonzero;stroke:none"
         id="path346"
         inkscape:connector-curvature="0" /></g><g
       id="g348"
       transform="translate(477.8215,564.5609)"><path
         d="m 0,0 c 0,0 -11.139,-28.183 -13.741,-39.39 -2.602,-11.208 -5.642,-41.677 -5.642,-41.677 0,0 0.609,32.551 3.143,41.869 C -13.705,-29.881 0,0 0,0"
         style="fill:#194705;fill-opacity:1;fill-rule:nonzero;stroke:none"
         id="path350"
         inkscape:connector-curvature="0" /></g><g
       id="g352"
       transform="translate(409.9914,471.4826)"><path
         d="m 0,0 c 0,0 1.579,-42.884 5.604,-50.313 2.547,-4.703 16.299,-10.303 16.299,-10.303 0,0 -15.711,5.966 -17.647,8.357 C -0.053,-46.94 -0.239,-15.178 0,0"
         style="fill:#194705;fill-opacity:1;fill-rule:nonzero;stroke:none"
         id="path354"
         inkscape:connector-curvature="0" /></g><g
       id="g356"
       transform="translate(441.9229,408.8225)"><path
         d="m 0,0 c 0,0 8.326,3.378 11.531,12.876 3.205,9.498 2.741,35.289 2.741,35.289 0,0 2.366,-22.689 -1.218,-35.599 C 9.47,-0.345 0,0 0,0"
         style="fill:#194705;fill-opacity:1;fill-rule:nonzero;stroke:none"
         id="path358"
         inkscape:connector-curvature="0" /></g><g
       id="g360"
       transform="translate(436.6991,403.5429)"><path
         d="m 0,0 c -8.93,1.038 -15.182,1.556 -14.312,-1.182 0,0 1.559,-5.171 6.033,-4.426 0,0 3.695,-4.429 11.156,-0.623 0,0 7.218,-3.414 8.677,1.663 C 12.42,-1.555 5.548,-0.645 0,0"
         style="fill:#ace298;fill-opacity:1;fill-rule:nonzero;stroke:none"
         id="path362"
         inkscape:connector-curvature="0" /></g><g
       id="g364"
       transform="translate(485.7746,644.2565)"><path
         d="M 0,0 C 0,0 3.181,-2.552 3.154,-4.873 3.127,-7.194 -0.524,-12.74 -0.524,-12.74 l -1.894,2.87 c 0,0 2.143,8.234 2.418,9.87"
         style="fill:#518e1b;fill-opacity:1;fill-rule:nonzero;stroke:none"
         id="path366"
         inkscape:connector-curvature="0" /></g><g
       id="g368"
       transform="translate(506.0303,630.8291)"><path
         d="m 0,0 c 0,0 1.16,-4.685 -3.53,-9.016 -4.69,-4.331 -1.059,-1.302 -1.059,-1.302 z"
         style="fill:#518e1b;fill-opacity:1;fill-rule:nonzero;stroke:none"
         id="path370"
         inkscape:connector-curvature="0" /></g><g
       id="g372"
       transform="translate(499.3646,615.8767)"><path
         d="m 0,0 c 0,0 3.21,-3.596 2.673,-7.505 -0.537,-3.909 -3.494,-12.188 -3.494,-12.188 0,0 3.677,10.292 0.821,19.693"
         style="fill:#194705;fill-opacity:1;fill-rule:nonzero;stroke:none"
         id="path374"
         inkscape:connector-curvature="0" /></g><g
       id="g376"
       transform="translate(478.7828,615.8767)"><path
         d="m 0,0 c -9.707,3.637 -25.885,-21.596 -43.431,-72.747 -19.489,-56.82 -15.311,-70.31 -6.045,-70.984 9.266,-0.675 16.55,44.174 19.021,53.692 C -21.822,-56.773 12.295,-4.607 0,0"
         style="fill:#448c1e;fill-opacity:1;fill-rule:nonzero;stroke:none"
         id="path378"
         inkscape:connector-curvature="0" /></g><g
       id="g380"
       transform="translate(418.4317,541.5601)"><path
         d="m 0,0 c -1.937,0.363 -4.852,3.273 -6.842,2.651 -7.138,-2.229 -14.086,-10.32 -17.062,-20.882 -3.804,-13.505 -10.582,-37.866 -16.068,-50.698 -5.486,-12.832 1.981,-27.986 14.217,-39.543 12.235,-11.556 22.598,-11.463 27.602,-11.288 5.003,0.175 5.857,6.602 13.253,5.589 7.396,-1.013 17.091,-5.856 24.884,2.056 7.793,7.912 19.628,21.622 17.424,37.567 -2.365,17.113 -27.581,28.844 -30.846,36.624 C 23.638,-30.955 24.203,-7.38 6.177,0.868 4.078,1.828 2.638,-0.495 0,0"
         style="fill:#bcb23f;fill-opacity:1;fill-rule:nonzero;stroke:none"
         id="path382"
         inkscape:connector-curvature="0" /></g><g
       id="g384"><g
         id="g386"
         clip-path="url(#clipPath390)"><g
           id="g392"
           transform="translate(410.3023,543.7446)"><path
             d="m 0,0 c 0,0 -8.68,-5.359 -13.363,-22.701 -4.682,-17.341 -10.234,-50.311 -5.286,-62.017 4.947,-11.706 17.688,-22.273 24.274,-22.159 6.585,0.115 18.081,0.735 22.618,-2.546 4.537,-3.28 19.19,-6.416 29.318,6.175 0,0 -4.076,-12.091 -13.123,-18.148 -9.047,-6.057 -20.301,0.862 -25.836,-2.858 -5.534,-3.72 -20.102,-7.004 -40.294,10.036 -20.192,17.039 -24.413,25.374 -18.486,42.222 5.927,16.848 17.978,34.551 19.031,44.763 C -20.093,-17.021 -8.129,2.185 0,0"
             style="fill:#a89d35;fill-opacity:1;fill-rule:nonzero;stroke:none"
             id="path394"
             inkscape:connector-curvature="0" /></g></g></g><g
       id="g396"><g
         id="g398"
         clip-path="url(#clipPath402)"><g
           id="g404"
           transform="translate(435.8659,530.2867)"><path
             d="m 0,0 c -3.222,4.932 -6.729,8.117 -9.341,6.754 -2.611,-1.363 -5.234,-8.949 -15.031,-1.865 -5.5,3.977 -12.149,-12.624 -13.775,-25.266 -1.627,-12.642 -2.19,-42.713 10.382,-53.429 12.572,-10.717 21.876,-4.809 29.576,-9.871 16.491,-10.841 31.469,-0.132 33.716,10.843 2.246,10.975 -3.298,25.415 -15.546,32.646 C 7.733,-32.958 5.166,-26.766 5.022,-18.534 4.879,-10.302 2.289,-3.505 0,0"
             style="fill:#e5d96a;fill-opacity:1;fill-rule:nonzero;stroke:none"
             id="path406"
             inkscape:connector-curvature="0" /></g><g
           id="g408"
           transform="translate(429.7264,532.2878)"><path
             d="m 0,0 c -4.201,1.912 -13.005,-2.247 -17.42,-10.976 -4.415,-8.729 0.634,-26.476 8.977,-42.666 8.343,-16.19 34.989,-33.422 42.69,-26.395 7.7,7.027 6.164,24.263 -4.541,31.191 -10.705,6.928 -15.537,8.864 -19.41,14.374 C 6.423,-28.962 12.13,-5.52 0,0"
             style="fill:#f4e782;fill-opacity:1;fill-rule:nonzero;stroke:none"
             id="path410"
             inkscape:connector-curvature="0" /></g><g
           id="g412"
           transform="translate(434.8229,522.0997)"><path
             d="M 0,0 C -3.503,6.978 -8.376,8.089 -13.184,4.25 -17.992,0.411 -16.017,-22.151 -7.773,-26.487 0.472,-30.823 4.163,-8.294 0,0"
             style="fill:#fff7ae;fill-opacity:1;fill-rule:nonzero;stroke:none"
             id="path414"
             inkscape:connector-curvature="0" /></g><g
           id="g416"
           transform="translate(464.9043,468.1517)"><path
             d="M 0,0 C -0.258,8.735 -4.548,13.944 -11.651,17.048 -18.754,20.153 -28.563,12.208 -28.658,2.522 -28.752,-7.163 0.701,-23.761 0,0"
             style="fill:#fff7ae;fill-opacity:1;fill-rule:nonzero;stroke:none"
             id="path418"
             inkscape:connector-curvature="0" /></g><g
           id="g420"
           transform="translate(426.2507,539.7791)"><path
             d="m 0,0 c -0.401,1.3 -1.168,1.576 -2.501,1.643 -2.342,0.12 -3.778,-1.427 -6.246,-0.349 -1.663,0.726 -5.402,2.587 -7.045,1.147 -0.569,-0.499 0.031,-1.317 0.678,-1.195 2.169,0.409 5.183,-2.142 7.2,-2.799 1.081,-0.352 2.287,-0.123 3.359,0.11 0.599,0.13 1.186,0.368 1.779,0.528 0.622,0.168 1.528,-0.157 2.237,0.004 C -0.155,-0.825 0.118,-0.382 0,0"
             style="fill:#e5d96a;fill-opacity:1;fill-rule:nonzero;stroke:none"
             id="path422"
             inkscape:connector-curvature="0" /></g><g
           id="g424"
           transform="translate(425.0442,539.7881)"><path
             d="m 0,0 c -0.127,1.804 -3.672,1.752 -4.721,0.954 -0.424,-0.323 -0.517,-1.155 0.157,-1.285 0.737,-0.142 1.501,0.034 2.25,0.045 0.636,0.011 1.36,-0.36 1.972,-0.147 C -0.162,-0.37 0.015,-0.212 0,0"
             style="fill:#f4e782;fill-opacity:1;fill-rule:nonzero;stroke:none"
             id="path426"
             inkscape:connector-curvature="0" /></g><g
           id="g428"
           transform="translate(424.8988,540.6434)"><path
             d="m 0,0 c -0.236,0.538 -0.813,0.684 -1.352,0.753 -0.474,0.061 -1.339,-0.145 -1.49,-0.672 -0.18,-0.632 0.616,-0.685 1.028,-0.656 0.479,0.033 0.933,-0.118 1.397,-0.13 C -0.028,-0.715 0.139,-0.316 0,0"
             style="fill:#fff7ae;fill-opacity:1;fill-rule:nonzero;stroke:none"
             id="path430"
             inkscape:connector-curvature="0" /></g><g
           id="g432"
           transform="translate(424.5974,540.4648)"><path
             d="m 0,0 c -0.503,0.587 -1.297,0.649 -2.026,0.609 -0.775,-0.042 -1.762,-0.203 -2.306,-0.806 -0.136,-0.151 -0.085,-0.39 0.116,-0.452 0.625,-0.193 1.316,0.022 1.941,0.13 0.689,0.119 1.349,-0.051 2.033,-0.046 C 0.063,-0.563 0.188,-0.219 0,0"
             style="fill:#f4e782;fill-opacity:1;fill-rule:nonzero;stroke:none"
             id="path434"
             inkscape:connector-curvature="0" /></g><g
           id="g436"
           transform="translate(416.9799,536.6812)"><path
             d="m 0,0 c 0,0 4.159,6.881 1.925,18.084 -2.234,11.204 -10.231,18.088 -10.231,18.088 0,0 -5.155,0.022 -5.53,-1.449 0,0 10.17,-9.545 12.515,-17.877 C 1.024,8.515 -0.99,0.413 -1.452,-0.718 -1.915,-1.849 -0.777,-1.64 0,0"
             style="fill:#141e08;fill-opacity:1;fill-rule:nonzero;stroke:none"
             id="path438"
             inkscape:connector-curvature="0" /></g><g
           id="g440"
           transform="translate(409.419,538.3018)"><path
             d="m 0,0 c 0,0 3.55,0.413 5.557,-1.308 2.006,-1.722 5.507,-1.002 6.922,0.955 0,0 -1.234,-4.798 -4.771,-4.069 C 4.171,-3.693 5.429,-1.247 0,0"
             style="fill:#8e852d;fill-opacity:1;fill-rule:nonzero;stroke:none"
             id="path442"
             inkscape:connector-curvature="0" /></g><g
           id="g444"
           transform="translate(352.0893,488.5288)"><path
             d="m 0,0 c -5.874,0.643 -18.527,16.707 -35.619,17.737 -17.092,1.029 -43.312,-18.042 -41.853,-48.696 1.46,-30.655 23.526,-57.047 36.923,-61.077 13.397,-4.03 18.5,0.03 21.318,0.387 2.819,0.357 6.001,-6.509 16.575,-8.253 10.574,-1.745 42.253,19.449 51.551,44.307 9.297,24.857 -4.837,48.62 -18.411,53.178 C 16.91,2.142 7.93,-0.868 0,0"
             style="fill:#bf2201;fill-opacity:1;fill-rule:nonzero;stroke:none"
             id="path446"
             inkscape:connector-curvature="0" /></g></g></g><g
       id="g448"><g
         id="g450"
         clip-path="url(#clipPath454)"><g
           id="g456"
           transform="translate(382.5736,486.112)"><path
             d="m 0,0 c -1.451,0.102 11.256,-7.748 13.809,-22.1 2.842,-15.979 -3.582,-35.774 -24.91,-48.804 -34.536,-21.099 -64.331,-22.246 -92.221,10.127 0,0 4.122,-38.142 49.502,-47.536 45.379,-9.394 64.882,23.585 75.769,46.331 C 32.835,-39.236 18.854,-1.32 0,0"
             style="fill:#ad1800;fill-opacity:1;fill-rule:nonzero;stroke:none"
             id="path458"
             inkscape:connector-curvature="0" /></g></g></g><g
       id="g468"
       transform="translate(313.5784,405.9428)"><path
         d="m 0,0 c -8.171,0.555 -22.51,6.461 -31.153,33.455 -8.643,26.993 2.909,45.121 9.052,50.91 6.143,5.79 15.423,12.269 27.752,7.1 12.328,-5.17 13.281,-18.219 26.53,-25.281 13.248,-7.063 26.848,-1.261 32.065,0.798 5.216,2.059 15.01,-7.682 8.152,-28.831 C 63.123,9.549 23.506,-1.595 0,0"
         style="fill:#dd2a12;fill-opacity:1;fill-rule:nonzero;stroke:none"
         id="path470"
         inkscape:connector-curvature="0" /></g><g
       id="g472"
       transform="translate(370.9417,449.5425)"><path
         d="m 0,0 c -2.709,-8.115 -25.706,-31.522 -48.139,-27.413 -22.433,4.11 -39.431,21.564 -39.77,38.163 -0.338,16.599 8.708,36.069 23.831,34.662 C -48.954,44.004 -39.997,33.941 -36.736,29.52 -19.259,5.823 7.911,23.698 0,0"
         style="fill:#f22f20;fill-opacity:1;fill-rule:nonzero;stroke:none"
         id="path474"
         inkscape:connector-curvature="0" /></g><g
       id="g476"
       transform="translate(347.2366,450.8314)"><path
         d="M 0,0 C 7.993,5.755 5.267,11.461 -4.078,15.674 -13.423,19.887 -18.183,21.817 -20.49,32.209 -22.798,42.6 -33.55,45.754 -40.945,42.394 -48.339,39.034 -55.009,23.871 -36.31,9.279 -17.61,-5.314 -4.117,-2.964 0,0"
         style="fill:#ff8b7b;fill-opacity:1;fill-rule:nonzero;stroke:none"
         id="path478"
         inkscape:connector-curvature="0" /></g><g
       id="g480"
       transform="translate(294.3024,483.7273)"><path
         d="M 0,0 C 0.408,1.068 0.476,2.238 0.972,3.286 1.327,4.035 0.547,5.084 -0.289,4.866 -1.241,4.617 -1.876,4.182 -2.425,3.355 -2.98,2.52 -3.208,1.326 -3.083,0.346 -2.88,-1.259 -0.568,-1.485 0,0"
         style="fill:#ff8b7b;fill-opacity:1;fill-rule:nonzero;stroke:none"
         id="path482"
         inkscape:connector-curvature="0" /></g><g
       id="g484"
       transform="translate(378.5194,483.4951)"><path
         d="m 0,0 c -4.977,4.948 -13.675,3.311 -19.995,3.019 -9.707,-0.449 -15.356,6.293 -22.42,11.773 -4.048,3.14 -9.193,4.986 -14.157,6.015 -3.01,0.624 -9.421,2.895 -11.515,-0.54 -0.165,-0.271 0.025,-0.577 0.339,-0.558 11.3,0.687 21.069,-5.463 28.941,-12.99 4.727,-4.519 9.834,-7.789 16.502,-8.091 3.093,-0.141 6.197,0.304 9.279,0.483 4.157,0.24 7.778,-1.027 11.823,-1.313 C -0.132,-2.278 0.904,-0.899 0,0"
         style="fill:#dd2a12;fill-opacity:1;fill-rule:nonzero;stroke:none"
         id="path486"
         inkscape:connector-curvature="0" /></g><g
       id="g488"
       transform="translate(341.0263,493.2186)"><path
         d="m 0,0 c -0.875,2.855 -4.463,4.932 -6.994,6.219 -2.882,1.465 -6.075,3.378 -9.398,3.172 -0.374,-0.023 -0.534,-0.614 -0.197,-0.803 2.826,-1.59 5.831,-2.391 8.494,-4.394 2.242,-1.686 4.381,-4.513 7.132,-5.201 C -0.296,-1.174 0.203,-0.661 0,0"
         style="fill:#ff8b7b;fill-opacity:1;fill-rule:nonzero;stroke:none"
         id="path490"
         inkscape:connector-curvature="0" /></g><g
       id="g492"
       transform="translate(350.4081,475.1358)"><path
         d="m 0,0 c -2.866,0.538 -5.472,2.723 -8.526,6.153 -3.053,3.429 -3.692,5.39 -3.344,6.359 0.348,0.97 4.452,-1.189 6.628,-3.3 C -3.066,7.101 -0.119,4.475 5.428,4.713 10.974,4.951 18.522,6.851 18.509,4.762 18.495,2.673 4.349,-0.816 0,0"
         style="fill:#ad1800;fill-opacity:1;fill-rule:nonzero;stroke:none"
         id="path494"
         inkscape:connector-curvature="0" /></g><g
       id="g496"
       transform="translate(349.6424,476.5437)"><path
         d="m 0,0 c 0,0 5.424,23.266 -8.7,40.861 l 5.805,5.472 c 0,0 14.854,-32.923 4.658,-47.211 0,0 -2.61,-1.705 -1.763,0.878"
         style="fill:#2c4711;fill-opacity:1;fill-rule:nonzero;stroke:none"
         id="path498"
         inkscape:connector-curvature="0" /></g><g
       id="g500"
       transform="translate(351.3818,503.3649)"><path
         d="m 0,0 c -1.391,4.562 -3.009,11.513 -7.074,14.453 -0.327,0.237 -0.867,-0.135 -0.647,-0.523 2.642,-4.662 4.369,-9.312 5.755,-14.497 0.668,-2.501 1.184,-5.037 1.563,-7.596 0.437,-2.958 -0.001,-6.048 0.816,-8.924 0.148,-0.522 0.781,-0.625 1.035,-0.116 C 3.927,-12.231 1.517,-4.976 0,0"
         style="fill:#557a25;fill-opacity:1;fill-rule:nonzero;stroke:none"
         id="path502"
         inkscape:connector-curvature="0" /></g><g
       id="g504"
       transform="translate(332.9358,493.372)"><path
         d="m 0,0 c 0,0 6.444,-3.557 8.754,-8.934 2.31,-5.378 9.092,-10.336 15.642,-7.789 6.549,2.547 12.739,5.273 15.443,4.22 0,0 -8.859,-4.238 -14.699,-7.128 C 19.3,-22.52 11.586,-17.979 7.205,-10.866 2.825,-3.754 2.703,-1.053 0,0"
         style="fill:#931602;fill-opacity:1;fill-rule:nonzero;stroke:none"
         id="path506"
         inkscape:connector-curvature="0" /></g><g
       id="g508"
       transform="translate(463.6815,505.4831)"><path
         d="m 0,0 c 0,0 -8.686,0.389 -10.073,-4.03 -1.388,-4.419 3.85,-22.832 33.42,-42.302 29.569,-19.471 50.564,-21.583 62.345,-21.429 8.906,0.117 8.55,8.015 3.918,11.577 C 84.979,-52.621 0,0 0,0"
         style="fill:#b7b7b7;fill-opacity:1;fill-rule:nonzero;stroke:none"
         id="path510"
         inkscape:connector-curvature="0" /></g><g
       id="g512"
       transform="translate(479.0123,529.279)"><path
         d="m 0,0 c 0,0 -12.853,-19.338 -18.703,-27.826 -6.226,-9.031 40.969,-57.595 91.914,-57.595 2.076,0 18.742,30.914 18.742,30.914 0,0 -68.44,16.394 -91.953,54.507"
         style="fill:#335d8c;fill-opacity:1;fill-rule:nonzero;stroke:none"
         id="path514"
         inkscape:connector-curvature="0" /></g><g
       id="g516"
       transform="translate(465.861,487.369)"><path
         d="m 0,0 20.098,32.606 c 0,0 54.539,-36.973 76.328,-44.161 L 78.995,-43.177 c 0,0 -42.751,-1.444 -78.995,43.177"
         style="fill:#19415e;fill-opacity:1;fill-rule:nonzero;stroke:none"
         id="path518"
         inkscape:connector-curvature="0" /></g><g
       id="g520"
       transform="translate(577.8419,476.3776)"><path
         d="m 0,0 c -4.963,-7.576 -30.962,-0.869 -58.932,15.514 -27.969,16.382 -47.466,36.337 -42.354,43.814 8.29,12.124 30.962,0.869 58.931,-15.514 C -14.385,27.431 6.088,9.293 0,0"
         style="fill:#b7b7b7;fill-opacity:1;fill-rule:nonzero;stroke:none"
         id="path522"
         inkscape:connector-curvature="0" /></g><g
       id="g524"
       transform="translate(534.298,518.1617)"><path
         d="m 0,0 c -23.957,14.033 -45.935,21.043 -49.089,15.659 -0.231,-0.394 -0.342,-0.85 -0.363,-1.351 4.79,2.303 24.812,-5.463 47.015,-18.468 22.203,-13.006 38.77,-26.671 39.104,-31.975 0.426,0.263 0.77,0.583 1.001,0.977 C 40.822,-29.773 23.957,-14.033 0,0"
         style="fill:#898989;fill-opacity:1;fill-rule:nonzero;stroke:none"
         id="path526"
         inkscape:connector-curvature="0" /></g><g
       id="g528"
       transform="translate(531.861,514.0012)"><path
         d="M 0,0 C -22.203,13.005 -42.225,20.771 -47.015,18.469 -47.285,12.133 -31.187,-2.333 -8.984,-15.338 13.219,-28.343 33.71,-35.309 39.104,-31.975 38.77,-26.671 22.203,-13.005 0,0"
         style="fill:#e5e5e5;fill-opacity:1;fill-rule:nonzero;stroke:none"
         id="path530"
         inkscape:connector-curvature="0" /></g><g
       id="g532"
       transform="translate(499.8533,521.9757)"><path
         d="M 0,0 C 4.389,6.022 57.072,-21.789 52.37,-30.779 49.164,-36.91 -4.389,-6.022 0,0"
         style="fill:#b7b7b7;fill-opacity:1;fill-rule:nonzero;stroke:none"
         id="path534"
         inkscape:connector-curvature="0" /></g><g
       id="g536"
       transform="translate(499.5978,463.782)"><path
         d="m 0,0 c -23.858,15.862 -32.164,35.896 -28.245,41.701 3.919,5.805 26.521,-3.56 43.008,-15.087 C 31.25,15.087 50.944,2.178 45.5,-8.286 41.349,-16.264 11.369,-7.559 0,0"
         style="fill:#71a5d3;fill-opacity:1;fill-rule:nonzero;stroke:none"
         id="path538"
         inkscape:connector-curvature="0" /></g><g
       id="g540"
       transform="translate(477.4091,500.2605)"><path
         d="M 0,0 C 0,0 36.071,-2.501 49.92,-34.391 L 63.538,-35.422 52.37,-46.33 48.65,-39.635 C 48.65,-39.635 4.988,-30.978 0,0"
         style="fill:#e5e5e5;fill-opacity:1;fill-rule:nonzero;stroke:none"
         id="path542"
         inkscape:connector-curvature="0" /></g><g
       id="g544"
       transform="translate(490.4125,495.9689)"><path
         d="M 0,0 -0.891,-5.573"
         style="fill:none;stroke:#383838;stroke-width:1;stroke-linecap:butt;stroke-linejoin:miter;stroke-miterlimit:10;stroke-dasharray:none;stroke-opacity:1"
         id="path546"
         inkscape:connector-curvature="0" /></g><g
       id="g548"
       transform="translate(485.9593,493.1823)"><path
         d="M 0,0 H 6.591"
         style="fill:none;stroke:#383838;stroke-width:1;stroke-linecap:butt;stroke-linejoin:miter;stroke-miterlimit:10;stroke-dasharray:none;stroke-opacity:1"
         id="path550"
         inkscape:connector-curvature="0" /></g><g
       id="g552"
       transform="translate(555.8341,482.2911)"><path
         d="m 0,0 c -7.198,3.067 -14.633,5.167 -21.691,8.694 -7.377,3.687 -14.435,8.058 -21.231,12.718 -5.857,4.017 -11.641,8.308 -17.187,12.745 -5.903,4.724 -9.812,9.918 -13.749,16.289 -0.734,1.188 -2.477,0.396 -2.198,-0.927 2.729,-12.914 17.995,-22.305 27.879,-29.523 7.203,-5.26 14.807,-9.903 22.787,-13.883 7.543,-3.762 16.391,-7.791 24.952,-7.731 C 0.361,-1.613 0.834,-0.355 0,0"
         style="fill:#d0d5d8;fill-opacity:1;fill-rule:nonzero;stroke:none"
         id="path554"
         inkscape:connector-curvature="0" /></g><g
       id="g556"
       transform="translate(487.3389,538.9271)"><path
         d="m 0,0 c -1.033,1.075 -2.619,0.78 -3.924,0.399 -0.61,-0.178 -1.201,-0.442 -1.775,-0.712 -0.722,-0.341 -0.927,-0.936 -1.434,-1.477 -0.856,-0.914 0.214,-2.068 1.255,-1.626 0.237,0.101 0.806,-0.039 1.09,0.038 0.447,0.12 0.88,0.209 1.341,0.252 1.194,0.11 2.598,-0.077 3.447,0.923 0.557,0.657 0.625,1.554 0,2.203"
         style="fill:#d0d5d8;fill-opacity:1;fill-rule:nonzero;stroke:none"
         id="path558"
         inkscape:connector-curvature="0" /></g><g
       id="g560"
       transform="translate(489.7809,461.9702)"><path
         d="m 0,0 c -1.734,2.982 -4.775,4.765 -7.445,6.855 -3.517,2.753 -6.866,5.707 -10.056,8.829 -6.103,5.973 -11.932,13.076 -15.289,21.002 -0.326,0.77 -1.6,0.217 -1.343,-0.566 2.755,-8.382 6.732,-15.41 12.849,-21.865 3.066,-3.234 6.511,-6.116 9.987,-8.894 3.138,-2.507 6.429,-5.66 10.448,-6.465 C -0.22,-1.23 0.35,-0.601 0,0"
         style="fill:#d0d5d8;fill-opacity:1;fill-rule:nonzero;stroke:none"
         id="path562"
         inkscape:connector-curvature="0" /></g><g
       id="g564"
       transform="translate(497.1426,512.2806)"><path
         d="m 0,0 c -1.822,2.756 -4.306,4.848 -6.301,7.465 -1.994,2.617 -3.831,4.679 -6.537,6.602 -0.217,0.154 -0.57,-0.104 -0.466,-0.358 1.241,-3.038 2.761,-5.447 5.386,-7.492 C -5.207,4.106 -3.323,1.44 -0.274,-0.274 -0.106,-0.369 0.115,-0.174 0,0"
         style="fill:#edeeef;fill-opacity:1;fill-rule:nonzero;stroke:none"
         id="path566"
         inkscape:connector-curvature="0" /></g><g
       id="g568"
       transform="translate(503.4311,508.6701)"><path
         d="m 0,0 c -0.841,0.458 -1.694,0.818 -2.469,1.395 -0.839,0.624 -1.585,-0.648 -1.032,-1.338 0.538,-0.671 1.166,-1.246 1.808,-1.815 0.701,-0.622 1.739,-1.588 2.74,-1.216 0.429,0.16 0.715,0.484 0.729,0.958 C 1.807,-0.965 0.815,-0.443 0,0"
         style="fill:#edeeef;fill-opacity:1;fill-rule:nonzero;stroke:none"
         id="path570"
         inkscape:connector-curvature="0" /></g><g
       id="g572"
       transform="translate(472.2389,475.2841)"><path
         d="m 0,0 c -0.137,0.789 -0.558,1.062 -1.182,1.556 -0.97,0.766 -1.874,1.625 -2.748,2.497 -1.715,1.709 -3.798,3.784 -4.895,5.935 -0.172,0.336 -0.736,0.101 -0.611,-0.257 0.894,-2.555 1.877,-4.562 3.66,-6.614 1.146,-1.32 3.39,-4.223 5.368,-3.836 C -0.074,-0.654 0.051,-0.294 0,0"
         style="fill:#edeeef;fill-opacity:1;fill-rule:nonzero;stroke:none"
         id="path574"
         inkscape:connector-curvature="0" /></g><g
       id="g576"
       transform="translate(484.6857,538.7495)"><path
         d="m 0,0 c -0.655,0.056 -1.236,-0.179 -1.881,-0.294 -0.975,-0.173 -0.978,-1.793 0,-1.964 0.96,-0.168 1.907,-0.305 2.589,0.549 C 1.266,-1.011 0.915,-0.079 0,0"
         style="fill:#edeeef;fill-opacity:1;fill-rule:nonzero;stroke:none"
         id="path578"
         inkscape:connector-curvature="0" /></g><g
       id="g580"
       transform="translate(506.6566,481.2899)"><path
         d="m 0,0 30.472,-32.678 30.566,24.863 15.746,-29.229 42.695,44.088 c 0,0 -2.805,-109.638 -4.942,-123.888 -2.138,-14.251 -8.55,-69.835 -9.263,-79.806 -0.712,-9.971 26.363,-113.286 33.488,-123.261 0,0 -100.464,-59.851 -118.99,-73.389 0,0 -24.659,39.901 -45.105,158.178 C -45.779,-116.844 0,0 0,0"
         style="fill:#a87c4c;fill-opacity:1;fill-rule:nonzero;stroke:none"
         id="path582"
         inkscape:connector-curvature="0" /></g><g
       id="g584"
       transform="translate(504.317,338.8682)"><path
         d="m 0,0 c 0,0 10.712,-42.832 22.112,-54.228 11.4,-11.397 18.401,-14.059 19.237,-14.509 0.837,-0.45 18.526,-4.013 -4.274,-11.138 -22.801,-7.125 31.054,-18.862 42.246,-15.487 11.192,3.374 20.838,36.855 20.29,41.134 -0.547,4.279 -34.107,1.806 -36.921,6.249 -2.815,4.442 19.692,19.357 31.239,41.469 11.547,22.112 27.312,134.894 27.312,134.894 0,0 -1.673,-82.124 -4.365,-102.807 -2.691,-20.682 -9.262,-79.805 -9.262,-79.805 0,0 16.387,-73.385 33.488,-123.261 0,0 -109.015,-66.264 -118.99,-73.389 0,0 -29.16,57.713 -31.495,162.453 C -11.276,-3.519 0,0 0,0"
         style="fill:#9e7246;fill-opacity:1;fill-rule:nonzero;stroke:none"
         id="path586"
         inkscape:connector-curvature="0" /></g><g
       id="g588"
       transform="translate(626.1351,488.334)"><path
         d="m 0,0 -41.058,-45.672 -2.103,-2.34 -1.539,2.844 -15.798,29.2 3.533,-0.705 -31.76,-23.395 -0.341,-0.251 -0.267,0.293 -30.145,32.982 30.798,-32.373 -0.608,0.042 29.372,26.329 2.131,1.911 1.403,-2.615 15.693,-29.257 -3.642,0.504 z"
         style="fill:#ffcd9f;fill-opacity:1;fill-rule:nonzero;stroke:none"
         id="path590"
         inkscape:connector-curvature="0" /></g><g
       id="g592"
       transform="translate(589.2125,332.3582)"><path
         d="m 0,0 c 0,0 -24.79,-27.157 -57.904,-34.177 0,0 38.036,-3.97 57.904,34.177"
         style="fill:#9e7246;fill-opacity:1;fill-rule:nonzero;stroke:none"
         id="path594"
         inkscape:connector-curvature="0" /></g><g
       id="g596"
       transform="translate(183.353,453.4871)"><path
         d="m 0,0 30.994,-23.729 24.048,37.494 c 0,0 31.033,-26.242 47.328,-31.475 0,0 19.14,23.416 24.649,28.323 0,0 23.399,-25.749 28.081,-28.323 0,0 35.114,33.288 42.475,35.932 0,0 28.244,-21.694 34.883,-24.294 0,0 21.529,25.056 23.322,27.599 0,0 20.703,-24.25 25.143,-27.954 0,0 39.546,32.554 42.381,34.23 0,0 0.09,-106.157 -2.538,-129.67 -2.628,-23.513 -9.33,-95.477 -9.185,-101.177 0.144,-5.7 15.107,-133.953 31.495,-162.453 0,0 -325.619,19.95 -373.358,26.363 0,0 14.674,74.721 28.501,125.402 C 7.657,-179.136 0,0 0,0"
         style="fill:#dba579;fill-opacity:1;fill-rule:nonzero;stroke:none"
         id="path598"
         inkscape:connector-curvature="0" /></g><g
       id="g600"><g
         id="g602"
         clip-path="url(#clipPath606)"><g
           id="g608"
           transform="translate(183.353,453.4871)"><path
             d="m 0,0 c 0,0 23.685,-136.788 50.14,-168.847 26.455,-32.059 65.73,-42.747 65.73,-42.747 0,0 -53.134,-4.275 -55.467,-9.975 -2.333,-5.7 65.749,-49.164 91.916,-46.314 26.166,2.85 120.998,69.114 128.802,79.802 7.804,10.688 -126.076,10.68 -141.075,19.234 -15,8.554 112.615,36.756 132.885,56.856 C 293.2,-91.892 323.304,27.803 323.304,27.803 323.304,27.803 35.269,120.392 0,0"
             style="fill:#eaaf83;fill-opacity:1;fill-rule:nonzero;stroke:none"
             id="path610"
             inkscape:connector-curvature="0" /></g></g></g><g
       id="g612"><g
         id="g614"
         clip-path="url(#clipPath618)"><g
           id="g620"
           transform="translate(183.353,453.4871)"><path
             d="m 0,0 31.298,-23.332 -0.724,-0.127 v 0.001 l 22.626,38.405 1.176,1.996 2.018,-1.457 0.001,-0.001 c 3.622,-3.005 7.327,-5.973 11.045,-8.894 3.721,-2.926 7.489,-5.789 11.295,-8.599 1.901,-1.409 3.824,-2.785 5.753,-4.152 0.961,-0.692 1.944,-1.345 2.915,-2.019 0.971,-0.676 1.95,-1.337 2.942,-1.977 0.991,-0.639 1.965,-1.315 2.974,-1.924 l 3.015,-1.854 3.076,-1.739 3.153,-1.576 -0.59,-0.158 v 0.001 c 1.867,2.525 3.77,5.016 5.683,7.505 l 2.902,3.707 c 0.965,1.238 1.968,2.446 2.951,3.672 0.979,1.227 1.979,2.44 3.007,3.632 1.028,1.193 2.011,2.418 3.078,3.584 l 3.2,3.501 c 1.144,1.118 2.32,2.218 3.483,3.328 l 0.001,10e-4 0.849,0.752 0.766,-0.879 c 2.176,-2.498 4.39,-4.979 6.609,-7.448 l 3.352,-3.685 3.39,-3.649 c 1.125,-1.222 2.273,-2.419 3.43,-3.608 1.162,-1.183 2.285,-2.411 3.479,-3.558 l 3.553,-3.477 3.703,-3.289 v 0 l -0.664,-0.041 c 6.372,6.8 12.915,13.428 19.679,19.87 1.7,1.601 3.402,3.202 5.145,4.766 0.86,0.793 1.734,1.573 2.624,2.339 0.89,0.766 1.755,1.555 2.667,2.303 l 2.726,2.254 2.824,2.174 c 0.948,0.721 1.971,1.382 2.958,2.076 1.002,0.68 2.134,1.273 3.204,1.91 l 0.003,0.001 1.298,0.631 1.084,-0.859 8.324,-6.594 c 2.786,-2.185 5.556,-4.4 8.374,-6.536 l 8.43,-6.465 8.62,-6.149 10e-4,-0.001 -0.628,-0.108 5.686,7.022 c 1.888,2.344 3.806,4.672 5.669,7.03 l 11.208,14.104 0.001,0.001 1.157,1.312 1.053,-1.232 24.442,-28.583 v -0.001 l -0.685,0.055 42.695,33.841 -42.067,-34.619 -0.363,-0.298 -0.323,0.353 h -10e-4 l -25.841,27.324 2.21,0.08 -10e-4,-0.001 -12.001,-13.588 c -1.993,-2.269 -4.024,-4.487 -6.034,-6.733 l -6.045,-6.718 -0.301,-0.334 -0.328,0.226 -0.001,0.001 -9.206,5.432 -8.982,5.73 c -3.009,1.896 -5.96,3.864 -8.934,5.807 l -8.894,5.872 2.382,-0.228 -0.002,-0.001 c -0.955,-0.5 -1.927,-0.915 -2.887,-1.478 -0.954,-0.585 -1.927,-1.121 -2.873,-1.747 l -2.836,-1.9 -2.789,-2.013 C 186.253,8.303 185.35,7.582 184.43,6.89 183.509,6.198 182.599,5.487 181.699,4.762 179.882,3.336 178.095,1.864 176.308,0.39 169.193,-5.544 162.237,-11.718 155.455,-18.062 l -0.351,-0.328 -0.314,0.287 -0.001,0.001 -3.869,3.209 -3.695,3.38 c -1.245,1.117 -2.409,2.307 -3.617,3.457 -1.203,1.156 -2.397,2.319 -3.566,3.506 l -3.525,3.545 -3.486,3.582 c -2.31,2.402 -4.608,4.809 -6.886,7.252 l 1.615,-0.127 h -0.001 c -1.136,-1.016 -2.287,-2.017 -3.422,-3.047 l -3.263,-3.322 c -1.089,-1.108 -2.112,-2.293 -3.171,-3.436 -1.06,-1.144 -2.096,-2.312 -3.114,-3.499 -1.021,-1.183 -2.062,-2.349 -3.067,-3.547 l -3.023,-3.589 c -1.995,-2.41 -3.984,-4.829 -5.931,-7.275 v 0 l -0.227,-0.314 -0.364,0.156 -3.307,1.414 -3.222,1.578 -3.158,1.691 c -1.058,0.557 -2.074,1.177 -3.114,1.763 -1.04,0.586 -2.065,1.194 -3.082,1.815 -1.017,0.621 -2.049,1.221 -3.055,1.859 -2.022,1.26 -4.04,2.529 -6.033,3.832 -3.994,2.597 -7.951,5.25 -11.862,7.967 -3.917,2.717 -7.793,5.461 -11.654,8.296 l -10e-4,10e-4 3.195,0.539 -25.468,-36.582 -0.001,-10e-4 -0.302,-0.459 -0.423,0.332 z"
             style="fill:#ffcd9f;fill-opacity:1;fill-rule:nonzero;stroke:none"
             id="path622"
             inkscape:connector-curvature="0" /></g><g
           id="g624"
           transform="translate(310.3717,247.5931)"><path
             d="m 0,0 c 0,0 55.288,14.963 77.959,17.813 22.671,2.85 54.109,0 54.109,0 0,0 -46.034,-9.975 -65.099,-12.825 C 47.904,2.138 0,0 0,0"
             style="fill:#bf9766;fill-opacity:1;fill-rule:nonzero;stroke:none"
             id="path626"
             inkscape:connector-curvature="0" /></g><g
           id="g628"
           transform="translate(194.3969,247.5931)"><path
             d="m 0,0 c 0,0 35.266,-35.626 63.946,-49.876 28.681,-14.25 53.858,-22.801 53.858,-22.801 0,0 -46.314,9.263 -58.902,14.963 C 46.313,-52.014 0,0 0,0"
             style="fill:#ad8a5c;fill-opacity:1;fill-rule:nonzero;stroke:none"
             id="path630"
             inkscape:connector-curvature="0" /></g></g></g></g></svg>