<?xml version="1.0" encoding="UTF-8" standalone="no"?>
<!-- Created with Inkscape (http://www.inkscape.org/) -->

<svg
   xmlns:dc="http://purl.org/dc/elements/1.1/"
   xmlns:cc="http://creativecommons.org/ns#"
   xmlns:rdf="http://www.w3.org/1999/02/22-rdf-syntax-ns#"
   xmlns:svg="http://www.w3.org/2000/svg"
   xmlns="http://www.w3.org/2000/svg"
   xmlns:sodipodi="http://sodipodi.sourceforge.net/DTD/sodipodi-0.dtd"
   xmlns:inkscape="http://www.inkscape.org/namespaces/inkscape"
   version="1.1"
   id="svg2"
   xml:space="preserve"
   width="700"
   height="700"
   viewBox="0 0 699.99998 700.00004"
   sodipodi:docname="settings.svg"
   inkscape:version="0.92.3 (2405546, 2018-03-11)"><metadata
     id="metadata8"><rdf:RDF><cc:Work
         rdf:about=""><dc:format>image/svg+xml</dc:format><dc:type
           rdf:resource="http://purl.org/dc/dcmitype/StillImage" /><dc:title></dc:title></cc:Work></rdf:RDF></metadata><defs
     id="defs6"><clipPath
       clipPathUnits="userSpaceOnUse"
       id="clipPath22"><path
         d="M 2889.27,1064.77 C 1661.79,1541.46 791.66,2734.17 791.66,4130.12 c 0,1815.47 1471.73,3287.21 3287.2,3287.21 1815.48,0 3287.21,-1471.74 3287.21,-3287.21 0,-130.64 -7.61,-259.41 -22.44,-386.07 -0.29,0.12 -0.57,0.25 -0.86,0.38 -32.43,14.55 -50.49,47.83 -44.95,82.81 l 21.41,134.99 c 0.24,1.5 -0.56,2.97 -1.95,3.6 l -349.83,156.95 c -0.44,0.2 -0.91,0.29 -1.38,0.29 -0.98,0 -1.95,-0.43 -2.61,-1.23 l -86.58,-105.75 c -15.18,-18.52 -36.95,-28.47 -59.49,-28.47 -10.79,0 -21.75,2.28 -32.25,6.99 -17.56,7.88 -30.99,21.49 -38.84,39.37 l -54.97,125.13 c -0.55,1.24 -1.77,2.01 -3.09,2.01 -0.17,0 -0.33,-0.01 -0.5,-0.03 l -379.15,-57.1 c -1.5,-0.23 -2.67,-1.44 -2.84,-2.95 l -15.68,-135.77 c -2.85,-24.76 -16.88,-46 -38.46,-58.28 -11.87,-6.74 -25.12,-10.11 -38.36,-10.11 -14.93,0 -29.82,4.28 -42.69,12.84 l -113.9,75.55 c -0.55,0.37 -1.2,0.56 -1.85,0.56 -0.8,0 -1.6,-0.28 -2.23,-0.83 l -288.1,-253.02 c -1.14,-1.01 -1.47,-2.65 -0.8,-4.02 l 60.22,-122.7 c 11.94,-24.32 10.41,-52.51 -4.09,-75.41 -14.29,-22.56 -38.62,-35.94 -65.27,-35.94 -0.38,0 -0.77,0 -1.16,0.01 l -136.66,1.98 v 0 c -0.02,0 -0.03,0 -0.05,0 v 0 0 c -0.01,0 -0.02,0 -0.03,0 -0.02,0 -0.04,0 -0.06,0 -0.07,0 -0.13,0 -0.19,-0.01 -0.11,-0.01 -0.22,-0.02 -0.33,-0.04 0,0 -0.01,0 -0.01,-0.01 -0.01,0 -0.03,0 -0.04,0 -0.01,-0.01 -0.02,-0.01 -0.03,-0.01 -0.02,0 -0.04,-0.01 -0.06,-0.01 v 0 c -0.03,-0.01 -0.05,-0.01 -0.07,-0.02 v 0 c -0.02,0 -0.04,-0.01 -0.05,-0.01 -0.01,0 -0.01,-0.01 -0.02,-0.01 -0.01,0 -0.02,0 -0.03,-0.01 -0.01,0 -0.02,0 -0.03,-0.01 -0.01,0 -0.01,0 -0.02,0 -1.07,-0.32 -1.95,-1.17 -2.26,-2.3 l -105.57,-368.61 c -0.1,-0.36 -0.14,-0.72 -0.13,-1.07 0.05,-1.11 0.64,-2.15 1.63,-2.74 l 116.99,-70.66 c 23.19,-14.01 37.15,-38.55 37.33,-65.64 0.18,-27.1 -13.45,-51.83 -36.45,-66.15 l -116.04,-72.22 c -1.01,-0.63 -1.59,-1.73 -1.59,-2.87 0,-0.32 0.05,-0.64 0.14,-0.96 l 110.48,-367.16 c 0.43,-1.43 1.76,-2.4 3.24,-2.4 0.01,0 0.01,0 0.01,0 v 0 c 0.02,0 0.05,0 0.07,0 l 136.63,3.8 c 0.77,0.02 1.53,0.03 2.3,0.03 11.05,0 21.65,-2.24 31.54,-6.67 18.8,-8.44 33.74,-24.53 40.97,-44.14 5.5,-14.94 6.19,-30.89 2.16,-46.07 -1.23,-4.6 -2.89,-9.13 -4.98,-13.54 l -27.79,-58.58 -30.79,-64.91 c -0.65,-1.37 -0.3,-3.02 0.86,-4 l 291.45,-249.16 c 0.63,-0.54 1.41,-0.81 2.19,-0.81 v 0 0 c 0.39,0 0.78,0.07 1.16,0.21 0.25,0.09 0.5,0.22 0.73,0.38 l 112.88,77.07 c 13.13,8.96 28.24,13.53 43.48,13.53 10.73,0 21.53,-2.26 31.74,-6.85 3.54,-1.59 6.92,-3.41 10.12,-5.45 19.15,-12.22 31.93,-32.15 34.9,-55.18 l 17.49,-135.55 v 0 c 0.08,-0.59 0.31,-1.14 0.65,-1.59 0.33,-0.45 0.79,-0.82 1.31,-1.05 l 0.92,-0.26 129.45,-17.74 c -252.99,-264.07 -549.81,-486.16 -878.48,-654.39 -51.28,0.23 -102.99,0.35 -154.98,0.35 -1158.16,0 -2146.06,-57.23 -2530.19,-137.64 m 172.11,2942.84 c -8.22,0 -16.27,-4.53 -19.21,-14.95 -108.56,-385.96 -133.86,-800.43 -21.91,-1188.66 47.37,-164.26 120.4,-321.82 214.28,-464.59 92.35,-140.45 212.23,-282.59 354.08,-375.77 l -125.71,-83.86 c -5.74,-3.83 -3.7,-12.72 3.14,-13.66 l 371.32,-51.21 c 0.36,-0.05 0.71,-0.07 1.05,-0.07 4.75,0 8.43,4.47 7.27,9.26 l -92.18,381.49 c -0.91,3.75 -4.11,5.75 -7.32,5.75 -2.66,0 -5.33,-1.37 -6.72,-4.23 l -79.98,-164.66 -0.7,0.64 c -61.12,50.54 -123.2,97.79 -179.7,153.81 -59.29,58.8 -112.62,123.32 -160.73,191.51 -94.37,133.76 -166.01,282.59 -216.33,438.14 -120.56,372.66 -109.92,777.22 -19.29,1154.92 3.81,15.85 -8.97,26.14 -21.36,26.14 M 4389.59,2306.59 c 6.87,0 13.78,-1.45 20.31,-4.38 15.82,-7.1 26.6,-21.61 28.81,-38.8 l 11.2,-86.74 1.25,-1.69 0.59,-0.17 243.08,-33.3 c 0.1,-0.01 0.2,-0.02 0.29,-0.02 0.24,0 0.48,0.04 0.7,0.12 0.42,0.14 0.79,0.41 1.06,0.77 0,0 0,0 0,0.01 0,0 0,0 0.01,0.01 0.09,0.12 0.16,0.26 0.23,0.41 l 10.14,23.96 23.96,56.58 c 1.37,3.24 3.05,6.29 5.01,9.11 5.5,7.91 13.16,14.01 22.28,17.6 v 0 c 5.89,2.31 12.14,3.46 18.36,3.46 6.93,0 13.83,-1.43 20.17,-4.27 v 0 c 6.76,-3.03 12.67,-7.53 17.57,-13.35 l 56.31,-66.92 2.56,-0.56 222.5,103.41 v 0 c 0.88,0.41 1.38,1.36 1.21,2.32 l -14.85,86.18 c -2.94,17.09 3.08,34.13 16.11,45.58 9.2,8.07 20.7,12.33 32.5,12.33 4.92,0 9.88,-0.74 14.75,-2.25 l 83.56,-25.85 c 0.21,-0.07 0.42,-0.1 0.63,-0.1 0.73,0 1.42,0.36 1.82,1 l 131.28,207.29 -0.24,2.61 -59.09,64.47 c -11.72,12.79 -15.86,30.38 -11.09,47.04 4.78,16.68 17.6,29.4 34.31,34.04 l 84.26,23.42 c 0.94,0.27 1.59,1.12 1.58,2.09 l -1.63,245.36 c -0.01,0.97 -0.65,1.81 -1.61,2.07 l -84.57,22.29 c -18.01,4.74 -31.91,19.42 -35.79,37.58 -3.32,15.54 0.87,31.28 11.49,43.18 l 58.22,65.26 0.2,2.61 -134.02,205.52 c -0.41,0.62 -1.1,0.97 -1.81,0.97 -0.22,0 -0.44,-0.03 -0.66,-0.1 l -83.2,-26.97 c -5.12,-1.66 -10.31,-2.49 -15.46,-2.49 -6.78,0 -13.49,1.44 -19.88,4.31 -20.76,9.31 -32.31,30.6 -28.77,52.98 l 13.7,86.39 c 0.16,0.95 -0.35,1.9 -1.24,2.3 l -223.86,100.43 -2.55,-0.6 -55.41,-67.67 c -9.71,-11.85 -23.64,-18.22 -38.06,-18.22 -6.91,0 -13.92,1.46 -20.64,4.48 -11.23,5.04 -19.83,13.75 -24.86,25.19 l -35.17,80.07 c -0.35,0.79 -1.13,1.29 -1.98,1.29 -0.11,0 -0.21,-0.01 -0.31,-0.02 l -242.63,-36.54 c -0.96,-0.15 -1.7,-0.92 -1.82,-1.89 l -10.03,-86.88 c -1.82,-15.84 -10.8,-29.43 -24.61,-37.29 -7.59,-4.31 -16.08,-6.47 -24.55,-6.47 -9.55,0 -19.08,2.74 -27.31,8.21 l -72.88,48.35 -2.62,-0.17 L 4143.45,3407 c -0.01,0 -0.01,0 -0.01,0 l -49.39,-43.38 -0.51,-2.57 38.52,-78.52 c 7.5,-15.26 6.71,-32.9 -2.07,-47.39 -0.18,-0.29 -0.36,-0.58 -0.54,-0.86 -9.14,-14.44 -24.71,-23 -41.76,-23 -0.25,0 -0.5,0 -0.74,0 l -87.46,1.27 c -0.01,0 -0.02,0 -0.03,0 v 0 0 c -0.96,0 -1.8,-0.64 -2.07,-1.56 v 0 l -67.55,-235.88 v 0 c -0.27,-0.94 0.12,-1.93 0.96,-2.43 l 74.86,-45.22 c 14.85,-8.97 23.78,-24.67 23.89,-42 0.09,-13.69 -5.32,-26.43 -14.84,-35.69 -2.54,-2.48 -5.38,-4.71 -8.49,-6.64 l -37.12,-23.11 -37.13,-23.1 c -0.83,-0.52 -1.2,-1.53 -0.93,-2.46 l 70.7,-234.95 c 0.28,-0.91 1.12,-1.53 2.07,-1.53 0.01,0 0.01,0 0.01,0 v 0 c 0.01,0 0.03,0 0.04,0 l 2.37,0.07 85.06,2.36 c 0.5,0.01 1,0.02 1.49,0.02 7.07,0 13.85,-1.43 20.16,-4.27 12.04,-5.4 21.6,-15.69 26.22,-28.24 v 0 c 4.6,-12.46 3.96,-26.01 -1.8,-38.15 l -37.48,-79.01 v -0.01 0 l 0.55,-2.56 186.5,-159.43 2.61,-0.15 v 0 l 72.23,49.32 c 8.4,5.74 18.07,8.66 27.82,8.66 m 473.57,1386.16 69.59,-20.43 c 0.39,-0.12 0.79,-0.17 1.19,-0.17 1.44,0 2.79,0.73 3.57,1.99 l 88.9,145.03 c 14.34,23.36 37.28,39.08 63.47,44.14 9.87,-7.26 18.42,-16.49 25.09,-27.37 l 88.93,-145.02 c 0.77,-1.27 2.13,-2.01 3.56,-2.01 l 1.18,0.18 52.17,15.32 18.55,-30.27 c 0.78,-1.26 2.14,-1.99 3.58,-1.99 l 1.18,0.17 457.89,134.45 c 1.82,0.53 3.05,2.21 3.01,4.11 l -3.61,170.07 c -0.55,26.11 9.11,50.66 27.18,69.13 14.36,14.66 33.05,24.39 52.91,27.84 l 135.65,-65.45 c 0.58,-0.27 1.19,-0.4 1.81,-0.4 1.19,0 2.35,0.5 3.18,1.44 l 9.9,11.42 60.58,-29.23 c 0.58,-0.27 1.2,-0.41 1.81,-0.41 1.19,0 2.36,0.51 3.18,1.45 l 312.51,360.65 c 1.24,1.43 1.36,3.51 0.31,5.08 l -94.98,141.13 c -18.83,27.98 -21.71,63 -7.7,93.69 14.02,30.67 42.36,51.43 75.84,55.52 l 168.85,20.64 c 1.88,0.23 3.37,1.68 3.64,3.56 l 67.92,472.36 c 0.27,1.88 -0.75,3.7 -2.49,4.45 l -156.2,67.37 c -30.97,13.35 -52.33,41.26 -57.13,74.65 -4.79,33.39 7.83,66.17 33.79,87.71 l 130.88,108.66 c 1.46,1.21 1.92,3.24 1.14,4.96 l -198.24,434.1 c -0.69,1.5 -2.17,2.45 -3.8,2.45 -0.23,0 -0.47,-0.02 -0.7,-0.06 l -59.88,-9.91 -11.09,24.29 c -0.69,1.5 -2.16,2.45 -3.8,2.45 -0.23,0 -0.47,-0.02 -0.71,-0.06 L 6071,5923.17 c -7.94,5.78 -15.06,12.8 -21,20.92 -18.26,24.94 -23.37,56.21 -14,85.77 l 51.37,162.16 c 0.57,1.81 -0.14,3.77 -1.72,4.8 l -401.47,258 c -0.69,0.44 -1.48,0.66 -2.26,0.66 -1.02,0 -2.03,-0.37 -2.81,-1.08 l -18.14,-16.39 -52.26,33.58 c -0.69,0.44 -1.48,0.66 -2.27,0.66 -1.01,0 -2.02,-0.36 -2.81,-1.07 l -126.16,-114.1 c -13.38,-12.1 -29.06,-19.97 -46.05,-23.22 -17.11,12.51 -29.94,30.73 -35.88,52.66 l -44.45,164.2 c -0.5,1.83 -2.16,3.1 -4.05,3.1 h -67.72 l -3.71,13.67 c -0.49,1.83 -2.15,3.1 -4.04,3.1 h -477.22 c -1.89,0 -3.55,-1.27 -4.04,-3.1 l -44.46,-164.19 c -9.83,-36.28 -38.52,-62.42 -74.19,-69.32 -2.66,1.96 -5.23,4.07 -7.73,6.33 l -126.17,114.09 c -0.79,0.71 -1.8,1.08 -2.82,1.08 -0.78,0 -1.57,-0.22 -2.26,-0.66 l -30.58,-19.65 -39.81,36.01 c -0.79,0.71 -1.8,1.07 -2.81,1.07 -0.79,0 -1.57,-0.22 -2.27,-0.66 l -401.46,-258 c -1.59,-1.03 -2.3,-2.99 -1.73,-4.8 l 51.37,-162.16 c 9.37,-29.56 4.27,-60.83 -13.99,-85.77 -18.24,-24.89 -47.37,-39.49 -77.8,-39.49 -5.19,0 -10.41,0.42 -15.63,1.29 l -167.82,27.77 c -0.23,0.04 -0.45,0.06 -0.68,0.06 -1.6,0 -3.13,-0.94 -3.83,-2.45 L 3627.4,5513.95 c -0.26,-0.57 -0.38,-1.17 -0.38,-1.76 0.01,-1.22 0.54,-2.4 1.52,-3.21 l 130.89,-108.66 c 22.3,-18.51 34.76,-45.32 34.78,-73.69 0,-4.64 -0.33,-9.33 -1,-14.02 -4.8,-33.39 -26.16,-61.29 -57.13,-74.65 l -156.2,-67.37 c -1.54,-0.66 -2.53,-2.19 -2.53,-3.84 0,-0.2 0.01,-0.4 0.04,-0.61 l 67.92,-472.36 c 0.27,-1.88 1.76,-3.33 3.65,-3.56 l 71.18,-8.7 0.64,-4.51 c 0.27,-1.88 1.76,-3.33 3.65,-3.56 l 129.63,-15.85 c 17.14,-9.79 31.03,-24.82 39.58,-43.54 5.85,-12.83 8.76,-26.41 8.78,-39.92 0.04,-18.81 -5.52,-37.49 -16.48,-53.77 l -94.98,-141.13 c -0.47,-0.71 -0.71,-1.52 -0.71,-2.34 0,-0.98 0.35,-1.96 1.03,-2.74 l 312.51,-360.65 c 0.81,-0.94 1.98,-1.45 3.17,-1.45 0.61,0 1.23,0.14 1.81,0.41 l 40.09,19.35 30.4,-35.08 c 0.81,-0.94 1.98,-1.45 3.16,-1.45 0.62,0 1.24,0.14 1.82,0.41 l 153.22,73.93 c 7.48,3.61 15.19,6.22 23.07,7.81 4.36,-3.16 8.47,-6.7 12.28,-10.59 17.57,-17.96 27.19,-41.68 27.19,-66.99 0,-0.72 -0.01,-1.43 -0.02,-2.14 l -3.61,-170.07 c 0,-0.03 0,-0.06 0,-0.09 0,-1.85 1.23,-3.5 3.02,-4.02 l 457.89,-134.45 c 0.4,-0.12 0.8,-0.17 1.19,-0.17 1.44,0 2.79,0.73 3.57,2 v 0 l 1.12,1.83 M 6668.18,2435.11 c -13.41,0 -26.85,0.49 -40.31,1.48 -0.01,0.01 -0.02,0.03 -0.03,0.04 -60,4.41 -120.24,18.74 -178.47,43.9 -0.02,0 -0.07,0.02 -0.08,0.03 -0.18,0.08 -0.37,0.16 -0.55,0.24 -0.08,0.03 -0.17,0.07 -0.25,0.11 -0.16,0.07 -0.32,0.13 -0.48,0.2 -0.12,0.06 -0.22,0.1 -0.34,0.15 -0.14,0.07 -0.29,0.13 -0.43,0.19 -0.15,0.07 -0.26,0.11 -0.41,0.18 -0.12,0.05 -0.24,0.11 -0.36,0.16 -0.24,0.1 -0.52,0.22 -0.75,0.33 -0.1,0.04 -0.19,0.08 -0.28,0.12 -0.17,0.08 -0.37,0.17 -0.54,0.24 -0.1,0.04 -0.18,0.08 -0.27,0.12 -0.17,0.08 -0.37,0.16 -0.54,0.24 -0.1,0.04 -0.19,0.08 -0.28,0.12 -0.19,0.09 -0.39,0.18 -0.58,0.26 -0.07,0.04 -0.14,0.06 -0.22,0.1 -0.27,0.12 -0.53,0.24 -0.8,0.36 -0.26,0.11 -0.49,0.22 -0.75,0.33 -0.06,0.03 -0.14,0.07 -0.2,0.1 -0.17,0.07 -0.38,0.17 -0.55,0.25 -0.08,0.03 -0.14,0.06 -0.22,0.09 -0.21,0.1 -0.44,0.2 -0.65,0.3 -0.03,0.01 -0.06,0.02 -0.1,0.04 -0.25,0.12 -0.49,0.23 -0.75,0.34 -0.05,0.03 -0.1,0.05 -0.15,0.07 -0.2,0.1 -0.4,0.19 -0.6,0.28 -0.07,0.03 -0.13,0.06 -0.2,0.09 -0.22,0.1 -0.43,0.2 -0.65,0.3 -0.04,0.01 -0.04,0.02 -0.08,0.04 -0.27,0.12 -0.5,0.23 -0.77,0.35 -0.04,0.02 -0.06,0.03 -0.1,0.05 -0.21,0.09 -0.45,0.2 -0.65,0.3 -0.05,0.02 -0.13,0.06 -0.18,0.08 -0.21,0.1 -0.41,0.19 -0.61,0.28 -0.05,0.03 -0.1,0.05 -0.15,0.07 -0.51,0.24 -1,0.47 -1.5,0.71 -0.05,0.02 -0.12,0.05 -0.17,0.08 -0.21,0.09 -0.4,0.18 -0.6,0.28 -0.05,0.02 -0.12,0.05 -0.17,0.08 -0.5,0.23 -0.99,0.46 -1.49,0.7 -0.05,0.03 -0.12,0.06 -0.17,0.08 -0.2,0.1 -0.37,0.18 -0.57,0.28 -0.07,0.03 -0.15,0.07 -0.21,0.1 -0.19,0.08 -0.39,0.18 -0.57,0.27 -0.06,0.03 -0.12,0.05 -0.18,0.09 -0.23,0.11 -0.48,0.23 -0.71,0.34 -0.07,0.03 -0.13,0.06 -0.19,0.09 -0.18,0.09 -0.36,0.17 -0.54,0.26 -0.09,0.04 -0.16,0.08 -0.25,0.12 -0.17,0.08 -0.33,0.16 -0.5,0.24 -0.08,0.04 -0.17,0.08 -0.24,0.12 -0.24,0.11 -0.46,0.22 -0.7,0.34 -0.07,0.03 -0.12,0.06 -0.2,0.09 -0.18,0.09 -0.32,0.16 -0.51,0.25 -0.1,0.05 -0.19,0.1 -0.3,0.15 -0.13,0.06 -0.28,0.14 -0.41,0.2 -0.1,0.05 -0.22,0.11 -0.32,0.16 -0.15,0.07 -0.29,0.14 -0.44,0.22 -0.17,0.08 -0.32,0.15 -0.48,0.23 -0.15,0.08 -0.28,0.14 -0.43,0.22 -0.13,0.06 -0.24,0.12 -0.37,0.18 -0.12,0.06 -0.22,0.11 -0.34,0.17 -0.13,0.06 -0.25,0.12 -0.38,0.19 -0.1,0.04 -0.18,0.09 -0.28,0.14 -0.51,0.25 -1.01,0.5 -1.52,0.75 -0.05,0.03 -0.11,0.06 -0.16,0.08 -0.17,0.09 -0.34,0.18 -0.51,0.26 -0.04,0.02 -0.07,0.04 -0.11,0.06 -199.58,100.58 -313.34,307.9 -302.98,520.55 -0.06,0.06 -0.11,0.12 -0.16,0.18 3.28,66.87 18.85,134.28 47.92,199.06 92,205.09 293.6,326.68 504.7,326.68 75.64,0 152.49,-15.61 225.98,-48.58 163.07,-73.16 273.35,-215.59 311.69,-377.01 -69.39,-214.01 -160.2,-418.57 -269.79,-610.83 -81.63,-45.2 -174.13,-69.51 -268.51,-69.51 m -1995.96,98.66 c -46.26,0 -93.24,9.13 -138.36,28.37 -2.06,0.88 -4.09,1.77 -6.13,2.69 v 0 c -178.26,79.97 -257.94,289.31 -177.96,467.56 v 0 c 0.11,0.24 0.21,0.47 0.32,0.71 0.04,0.08 0.07,0.17 0.11,0.25 0.07,0.15 0.14,0.3 0.2,0.45 0.05,0.1 0.1,0.21 0.14,0.31 0.06,0.13 0.12,0.25 0.18,0.38 0.05,0.12 0.11,0.24 0.16,0.36 0.05,0.1 0.09,0.2 0.14,0.31 0.07,0.13 0.13,0.27 0.19,0.4 0.02,0.05 0.03,0.06 0.05,0.1 11.97,25.99 26.73,49.83 43.74,71.36 -0.01,0.01 -0.02,0.02 -0.03,0.03 67.54,85.55 170.74,134.38 277.76,134.38 48.4,0 97.58,-9.98 144.6,-31.08 178.26,-79.97 257.93,-289.31 177.96,-467.56 -32,-71.32 -84.71,-126.87 -147.85,-162.71 -0.01,0.01 -0.03,0.03 -0.04,0.04 -53.06,-30.12 -113.49,-46.35 -175.18,-46.35 m 360.74,1907.93 c -38.13,0 -75.51,3.1 -111.95,9.06 -288.93,81.6 -500.64,347.19 -500.64,662.22 0,380.01 308.06,688.06 688.06,688.06 38.11,0 75.51,-3.1 111.93,-9.06 288.92,-81.6 500.65,-347.19 500.65,-662.23 0,-380 -308.05,-688.05 -688.05,-688.05"
         id="path20"
         inkscape:connector-curvature="0" /></clipPath><radialGradient
       fx="0"
       fy="0"
       cx="0"
       cy="0"
       r="1"
       gradientUnits="userSpaceOnUse"
       gradientTransform="matrix(3287.2,0,0,-3287.2,4078.86,4130.12)"
       spreadMethod="pad"
       id="radialGradient28"><stop
         style="stop-opacity:1;stop-color:#adc0cb"
         offset="0"
         id="stop24" /><stop
         style="stop-opacity:1;stop-color:#9cb3c1"
         offset="1"
         id="stop26" /></radialGradient><clipPath
       clipPathUnits="userSpaceOnUse"
       id="clipPath38"><path
         d="m 3838.42,1814.84 c -0.34,0 -0.69,0.02 -1.05,0.07 l -371.32,51.21 c -6.84,0.94 -8.88,9.83 -3.14,13.66 l 125.71,83.86 c -141.85,93.18 -261.73,235.32 -354.08,375.77 -93.88,142.77 -166.91,300.33 -214.28,464.59 -111.95,388.23 -86.65,802.7 21.91,1188.66 2.94,10.42 10.99,14.95 19.21,14.95 12.39,0 25.17,-10.29 21.36,-26.14 -90.63,-377.7 -101.27,-782.26 19.29,-1154.92 50.32,-155.55 121.96,-304.38 216.33,-438.14 48.11,-68.19 101.44,-132.71 160.73,-191.51 56.5,-56.02 118.58,-103.27 179.7,-153.81 l 0.7,-0.64 79.98,164.66 c 1.39,2.86 4.06,4.23 6.72,4.23 3.21,0 6.41,-2 7.32,-5.75 l 92.18,-381.49 c 1.16,-4.79 -2.52,-9.26 -7.27,-9.26"
         id="path36"
         inkscape:connector-curvature="0" /></clipPath><radialGradient
       fx="0"
       fy="0"
       cx="0"
       cy="0"
       r="1"
       gradientUnits="userSpaceOnUse"
       gradientTransform="matrix(3287.2,0,0,-3287.2,4078.86,4130.12)"
       spreadMethod="pad"
       id="radialGradient44"><stop
         style="stop-opacity:1;stop-color:#93a3ad"
         offset="0"
         id="stop40" /><stop
         style="stop-opacity:1;stop-color:#8598a4"
         offset="1"
         id="stop42" /></radialGradient><clipPath
       clipPathUnits="userSpaceOnUse"
       id="clipPath56"><path
         d="m 4933.94,3672.15 c -0.4,0 -0.8,0.05 -1.19,0.17 l -69.59,20.43 87.79,143.19 c 15.97,26.05 42.65,42.59 72.61,45.46 3.1,0.3 6.23,0.45 9.4,0.45 20.95,0 40.72,-6.63 56.92,-18.54 -26.19,-5.06 -49.13,-20.78 -63.47,-44.14 l -88.9,-145.03 c -0.78,-1.26 -2.13,-1.99 -3.57,-1.99 m 349,0 c -1.44,0 -2.8,0.73 -3.58,1.99 l -18.55,30.27 178.13,52.3 v 0 l 227.59,66.83 c 1.83,0.53 3.06,2.22 3.02,4.11 l -3.6,170.07 c -0.56,26.11 9.09,50.66 27.17,69.13 18.19,18.58 43.34,29.24 69.01,29.24 14.41,0 28.48,-3.26 41.81,-9.69 l 17.56,-8.48 c -19.86,-3.45 -38.55,-13.18 -52.91,-27.84 -18.07,-18.47 -27.73,-43.02 -27.18,-69.13 l 3.61,-170.07 c 0.04,-1.9 -1.19,-3.58 -3.01,-4.11 l -457.89,-134.45 -1.18,-0.17 m 751.49,323.14 c -0.61,0 -1.23,0.14 -1.81,0.41 l -60.58,29.23 302.61,349.23 c 1.23,1.43 1.37,3.51 0.31,5.08 l -94.98,141.13 c -18.83,27.98 -21.71,63 -7.7,93.69 14.02,30.68 42.36,51.43 75.83,55.52 l 168.85,20.64 c 1.89,0.23 3.38,1.68 3.65,3.56 l 67.92,472.36 c 0.27,1.88 -0.75,3.71 -2.49,4.45 l -156.2,67.37 c -30.97,13.36 -52.33,41.26 -57.13,74.65 -4.8,33.39 7.83,66.18 33.78,87.72 l 130.89,108.65 c 1.46,1.21 1.92,3.24 1.14,4.97 l -187.15,409.8 59.88,9.91 c 0.23,0.04 0.47,0.06 0.7,0.06 1.63,0 3.11,-0.95 3.8,-2.45 l 198.24,-434.1 c 0.78,-1.72 0.32,-3.75 -1.14,-4.96 l -130.88,-108.66 c -25.96,-21.54 -38.58,-54.32 -33.79,-87.71 4.8,-33.39 26.16,-61.3 57.13,-74.65 l 156.2,-67.37 c 1.74,-0.75 2.76,-2.57 2.49,-4.45 l -67.92,-472.36 c -0.27,-1.88 -1.76,-3.33 -3.64,-3.56 l -168.85,-20.64 c -33.48,-4.09 -61.82,-24.85 -75.84,-55.52 -14.01,-30.69 -11.13,-65.71 7.7,-93.69 l 94.98,-141.13 c 1.05,-1.57 0.93,-3.65 -0.31,-5.08 l -312.51,-360.65 c -0.82,-0.94 -1.99,-1.45 -3.18,-1.45 m -1852.01,0 c -1.18,0 -2.35,0.51 -3.16,1.45 l -30.4,35.08 113.13,54.58 c 13.32,6.42 27.39,9.69 41.8,9.69 20.29,0 40.27,-6.67 56.74,-18.65 -7.88,-1.59 -15.59,-4.2 -23.07,-7.81 l -153.22,-73.93 c -0.58,-0.27 -1.2,-0.41 -1.82,-0.41 m 738.59,455.47 c -72.29,11.83 -140.8,34.93 -203.65,67.43 -0.13,0.14 -0.26,0.28 -0.39,0.42 -142.66,73.91 -256.21,196.14 -318.73,345.19 l -0.09,0.1 c -34.29,81.78 -53.24,171.62 -53.24,265.85 0,380.01 308.05,688.06 688.05,688.06 64.97,0 127.82,-9 187.4,-25.83 -36.42,5.96 -73.82,9.06 -111.93,9.06 -380,0 -688.06,-308.05 -688.06,-688.06 0,-315.03 211.71,-580.62 500.64,-662.22 m -1066.95,206.84 -129.63,15.85 c -1.89,0.23 -3.38,1.68 -3.65,3.56 l -0.64,4.51 97.67,-11.94 c 13.04,-1.59 25.31,-5.72 36.25,-11.98 M 6052.4,5921.38 c -30.42,0 -59.63,14.57 -77.87,39.48 -18.27,24.94 -23.37,56.21 -14,85.77 l 51.37,162.16 c 0.57,1.81 -0.14,3.77 -1.73,4.8 l -349.2,224.42 18.14,16.39 c 0.78,0.71 1.79,1.08 2.81,1.08 0.78,0 1.57,-0.22 2.26,-0.66 l 401.47,-258 c 1.58,-1.03 2.29,-2.99 1.72,-4.8 L 6036,6029.86 c -9.37,-29.56 -4.26,-60.83 14,-85.77 5.94,-8.12 13.06,-15.14 21,-20.92 l -3.05,-0.51 c -5.19,-0.86 -10.39,-1.28 -15.55,-1.28 m -639.1,410.78 c -44.24,0 -81.7,28.59 -93.23,71.14 l -40.75,150.52 h 67.72 c 1.89,0 3.55,-1.27 4.05,-3.1 l 44.45,-164.2 c 5.94,-21.93 18.77,-40.15 35.88,-52.66 -5.9,-1.12 -11.95,-1.7 -18.12,-1.7 m -760.68,0 c -23.95,0 -46.14,8.62 -64.16,24.92 l -86.36,78.09 30.58,19.65 c 0.69,0.44 1.48,0.66 2.26,0.66 1.02,0 2.03,-0.37 2.82,-1.08 l 126.17,-114.09 c 2.5,-2.26 5.07,-4.37 7.73,-6.33 -6.16,-1.2 -12.52,-1.82 -19.04,-1.82"
         id="path54"
         inkscape:connector-curvature="0" /></clipPath><radialGradient
       fx="0"
       fy="0"
       cx="0"
       cy="0"
       r="1"
       gradientUnits="userSpaceOnUse"
       gradientTransform="matrix(328.72,0,0,-328.72,-504.05378,436.47548)"
       spreadMethod="pad"
       id="radialGradient62"><stop
         style="stop-opacity:1;stop-color:#90a0a9"
         offset="0"
         id="stop58" /><stop
         style="stop-opacity:1;stop-color:#8295a0"
         offset="1"
         id="stop60" /></radialGradient><clipPath
       clipPathUnits="userSpaceOnUse"
       id="clipPath74"><path
         d="m 4078.86,842.922 c -419.52,0 -820.7,78.59 -1189.59,221.848 384.13,80.41 1372.03,137.64 2530.19,137.64 51.99,0 103.7,-0.12 154.98,-0.35 C 5125.77,972.422 4617.5,842.922 4078.86,842.922"
         id="path72"
         inkscape:connector-curvature="0" /></clipPath><radialGradient
       fx="0"
       fy="0"
       cx="0"
       cy="0"
       r="1"
       gradientUnits="userSpaceOnUse"
       gradientTransform="matrix(3287.2,0,0,-3287.2,4078.86,4130.12)"
       spreadMethod="pad"
       id="radialGradient80"><stop
         style="stop-opacity:1;stop-color:#98a9b2"
         offset="0"
         id="stop76" /><stop
         style="stop-opacity:1;stop-color:#899daa"
         offset="1"
         id="stop78" /></radialGradient><clipPath
       clipPathUnits="userSpaceOnUse"
       id="clipPath96"><path
         d="m 5207.46,3688.91 c -1.43,0 -2.79,0.74 -3.56,2.01 l -88.93,145.02 c -6.67,10.88 -15.22,20.11 -25.09,27.37 v 0 c 9.87,-7.26 18.42,-16.49 25.09,-27.37 l 88.93,-145.02 c 0.77,-1.27 2.13,-2.01 3.56,-2.01 l 1.18,0.18 52.17,15.32 v 0 l -52.17,-15.32 -1.18,-0.18 m -348.99,0.01 c -0.39,0 -0.79,0.05 -1.19,0.17 l -457.89,134.45 c -1.79,0.52 -3.02,2.17 -3.02,4.02 0,-1.86 1.23,-3.5 3.02,-4.02 l 457.89,-134.45 c 0.4,-0.12 0.8,-0.17 1.19,-0.17 1.44,0 2.79,0.73 3.57,2 v 0 c -0.78,-1.27 -2.13,-2 -3.57,-2 M 4400,3999.86 c 0,25.31 -9.62,49.03 -27.19,66.99 -3.81,3.89 -7.92,7.43 -12.28,10.59 h 0.01 c 4.35,-3.16 8.46,-6.7 12.27,-10.59 17.57,-17.96 27.19,-41.68 27.19,-66.99 m -293.04,12.2 c -1.19,0 -2.36,0.51 -3.17,1.45 l -312.51,360.65 c -0.68,0.78 -1.03,1.76 -1.03,2.74 0,-0.98 0.35,-1.96 1.03,-2.74 l 312.51,-360.65 c 0.81,-0.94 1.98,-1.44 3.17,-1.44 0.61,0 1.23,0.13 1.81,0.4 l 40.09,19.35 -40.09,-19.35 c -0.58,-0.27 -1.2,-0.41 -1.81,-0.41 m -204.54,562.08 c -0.02,13.51 -2.93,27.09 -8.78,39.92 -8.55,18.72 -22.44,33.75 -39.58,43.54 v 0 c 17.14,-9.79 31.03,-24.82 39.58,-43.54 5.85,-12.83 8.76,-26.41 8.78,-39.92 m -182.28,107.38 -71.18,8.7 c -1.89,0.23 -3.38,1.68 -3.65,3.56 l -67.92,472.36 c -0.03,0.21 -0.04,0.41 -0.04,0.61 0,-0.2 0.01,-0.4 0.04,-0.61 l 67.92,-472.36 c 0.27,-1.88 1.76,-3.33 3.65,-3.56 l 71.18,-8.7 v 0 m 74.07,645.11 c -0.02,28.37 -12.48,55.18 -34.78,73.69 l -130.89,108.66 c -0.98,0.81 -1.51,1.99 -1.52,3.21 0.01,-1.22 0.54,-2.4 1.52,-3.21 l 130.89,-108.65 c 22.3,-18.51 34.76,-45.33 34.78,-73.7"
         id="path94"
         inkscape:connector-curvature="0" /></clipPath><radialGradient
       fx="0"
       fy="0"
       cx="0"
       cy="0"
       r="1"
       gradientUnits="userSpaceOnUse"
       gradientTransform="matrix(3287.2,0,0,-3287.2,4078.86,4130.12)"
       spreadMethod="pad"
       id="radialGradient102"><stop
         style="stop-opacity:1;stop-color:#a1b2bd"
         offset="0"
         id="stop98" /><stop
         style="stop-opacity:1;stop-color:#91a6b3"
         offset="1"
         id="stop100" /></radialGradient><clipPath
       clipPathUnits="userSpaceOnUse"
       id="clipPath112"><path
         d="m 5260.81,3704.41 v 0 l 178.13,52.3 v 0 l -178.13,-52.3 m -170.93,158.9 c -16.2,11.91 -35.97,18.54 -56.92,18.54 -3.17,0 -6.3,-0.15 -9.4,-0.45 3.1,0.3 6.23,0.45 9.4,0.45 20.95,0 40.72,-6.63 56.92,-18.54 v 0 m -941.02,168.51 v 0 l 113.13,54.58 c 13.32,6.43 27.39,9.69 41.8,9.69 20.3,0 40.27,-6.66 56.75,-18.65 h -0.01 c -16.47,11.98 -36.45,18.65 -56.74,18.65 -14.41,0 -28.48,-3.27 -41.8,-9.69 l -113.13,-54.58 m 568.5,486.37 c -142.92,73.91 -256.63,196.43 -319.21,345.71 l 0.09,-0.1 c 62.52,-149.05 176.07,-271.28 318.73,-345.19 0.13,-0.14 0.26,-0.28 0.39,-0.42 m -863.3,139.41 v 0 c -10.94,6.26 -23.21,10.39 -36.25,11.98 l -97.67,11.94 v 0 l 97.67,-11.94 c 13.04,-1.59 25.31,-5.72 36.25,-11.98"
         id="path110"
         inkscape:connector-curvature="0" /></clipPath><radialGradient
       fx="0"
       fy="0"
       cx="0"
       cy="0"
       r="1"
       gradientUnits="userSpaceOnUse"
       gradientTransform="matrix(3287.2,0,0,-3287.2,4078.86,4130.12)"
       spreadMethod="pad"
       id="radialGradient118"><stop
         style="stop-opacity:1;stop-color:#86959d"
         offset="0"
         id="stop114" /><stop
         style="stop-opacity:1;stop-color:#798a95"
         offset="1"
         id="stop116" /></radialGradient><clipPath
       clipPathUnits="userSpaceOnUse"
       id="clipPath132"><path
         d="m 6452.92,1856.45 -129.45,17.74 -0.92,0.26 c -0.52,0.23 -0.98,0.6 -1.31,1.05 0.34,-0.45 0.79,-0.82 1.31,-1.05 l 0.92,-0.26 129.45,-17.74 v 0 m -132.33,20.64 v 0 l -17.49,135.55 c -2.97,23.03 -15.75,42.96 -34.9,55.18 19.15,-12.22 31.93,-32.15 34.9,-55.18 l 17.49,-135.55 v 0 m -252.5,111.84 c -0.78,0 -1.56,0.27 -2.19,0.81 l -291.45,249.16 c -1.16,0.98 -1.51,2.63 -0.86,4 l 30.79,64.91 -30.79,-64.91 c -0.65,-1.37 -0.3,-3.02 0.86,-4 l 291.45,-249.16 c 0.63,-0.54 1.41,-0.81 2.19,-0.81 v 0 m 1.16,0.21 c 0.25,0.09 0.5,0.22 0.73,0.38 l 112.88,77.07 c 13.13,8.96 28.24,13.53 43.48,13.53 v 0 c -15.24,0 -30.35,-4.57 -43.48,-13.53 l -112.88,-77.07 c -0.23,-0.16 -0.48,-0.29 -0.73,-0.38 m -232.1,390.79 c 4.03,15.18 3.34,31.13 -2.16,46.07 -7.23,19.61 -22.17,35.7 -40.97,44.14 -9.89,4.43 -20.49,6.67 -31.54,6.67 v 0 c 11.05,0 21.65,-2.24 31.54,-6.67 18.8,-8.44 33.74,-24.53 40.97,-44.13 5.5,-14.95 6.2,-30.9 2.16,-46.08 m 790.72,56.66 c -60.01,4.41 -120.25,18.77 -178.5,43.94 58.23,-25.16 118.47,-39.49 178.47,-43.9 0.01,-0.01 0.02,-0.03 0.03,-0.04 m -1004.4,36.39 c -1.48,0 -2.81,0.97 -3.24,2.4 l -110.48,367.16 c -0.09,0.32 -0.14,0.64 -0.14,0.96 0,-0.32 0.05,-0.64 0.14,-0.96 l 110.48,-367.16 c 0.44,-1.43 1.75,-2.4 3.25,-2.4 0,0 0,0 -0.01,0 m 825.82,7.58 c -0.19,0.08 -0.36,0.16 -0.55,0.24 0.18,-0.08 0.37,-0.16 0.55,-0.24 m -0.8,0.35 c -0.16,0.06 -0.32,0.14 -0.48,0.2 0.16,-0.07 0.32,-0.13 0.48,-0.2 m -0.82,0.35 c -0.14,0.06 -0.29,0.13 -0.43,0.19 0.14,-0.06 0.29,-0.12 0.43,-0.19 m -0.84,0.37 c -0.12,0.05 -0.24,0.11 -0.36,0.16 0.12,-0.05 0.24,-0.11 0.36,-0.16 m -1.11,0.49 c -0.11,0.04 -0.18,0.08 -0.28,0.12 0.09,-0.04 0.18,-0.08 0.28,-0.12 m -0.82,0.36 c -0.11,0.05 -0.17,0.08 -0.27,0.12 0.09,-0.04 0.17,-0.08 0.27,-0.12 m -0.81,0.36 c -0.11,0.05 -0.18,0.08 -0.28,0.12 0.09,-0.04 0.18,-0.08 0.28,-0.12 m -0.86,0.38 c -0.06,0.03 -0.15,0.07 -0.22,0.1 0.08,-0.04 0.15,-0.06 0.22,-0.1 m -1.77,0.79 c -0.06,0.03 -0.13,0.07 -0.2,0.1 0.06,-0.03 0.14,-0.07 0.2,-0.1 m -0.75,0.35 c -0.09,0.03 -0.14,0.06 -0.22,0.09 0.08,-0.03 0.14,-0.06 0.22,-0.09 m -0.87,0.39 c -0.03,0.01 -0.06,0.03 -0.1,0.04 0.04,-0.02 0.07,-0.03 0.1,-0.04 m -0.85,0.38 c -0.05,0.03 -0.1,0.05 -0.15,0.07 0.05,-0.02 0.1,-0.04 0.15,-0.07 m -0.75,0.35 c -0.07,0.03 -0.13,0.06 -0.2,0.09 0.07,-0.03 0.13,-0.06 0.2,-0.09 m -0.85,0.39 c -0.01,0 -0.07,0.03 -0.08,0.04 0.04,-0.02 0.04,-0.03 0.08,-0.04 m -0.85,0.39 c -0.03,0.02 -0.07,0.03 -0.1,0.05 0.04,-0.02 0.06,-0.03 0.1,-0.05 m -0.75,0.35 c -0.07,0.03 -0.12,0.05 -0.18,0.08 0.05,-0.02 0.13,-0.06 0.18,-0.08 m -0.79,0.36 c -0.05,0.03 -0.1,0.05 -0.15,0.07 0.05,-0.02 0.1,-0.04 0.15,-0.07 m -1.65,0.78 c -0.05,0.02 -0.12,0.05 -0.17,0.08 0.05,-0.03 0.12,-0.06 0.17,-0.08 m -0.77,0.36 c -0.05,0.02 -0.12,0.05 -0.17,0.08 0.05,-0.03 0.12,-0.06 0.17,-0.08 m -1.66,0.78 c -0.05,0.03 -0.12,0.06 -0.17,0.08 0.05,-0.02 0.12,-0.05 0.17,-0.08 m -0.74,0.36 c -0.07,0.03 -0.15,0.07 -0.21,0.1 0.06,-0.03 0.14,-0.07 0.21,-0.1 m -0.78,0.37 c -0.07,0.03 -0.11,0.05 -0.18,0.09 0.06,-0.04 0.12,-0.06 0.18,-0.09 m -0.89,0.43 c -0.07,0.03 -0.12,0.06 -0.19,0.09 0.06,-0.03 0.12,-0.06 0.19,-0.09 m -0.73,0.35 c -0.09,0.04 -0.17,0.08 -0.25,0.12 0.09,-0.04 0.16,-0.08 0.25,-0.12 m -0.75,0.36 c -0.07,0.03 -0.18,0.09 -0.24,0.12 0.07,-0.04 0.16,-0.08 0.24,-0.12 m -0.94,0.46 c -0.06,0.03 -0.13,0.06 -0.2,0.09 0.08,-0.03 0.13,-0.06 0.2,-0.09 m -0.71,0.34 c -0.1,0.05 -0.2,0.1 -0.3,0.15 0.11,-0.05 0.2,-0.1 0.3,-0.15 m -0.71,0.35 c -0.1,0.05 -0.22,0.11 -0.32,0.16 0.1,-0.05 0.22,-0.11 0.32,-0.16 m -0.76,0.38 c -0.17,0.08 -0.32,0.15 -0.48,0.23 0.16,-0.08 0.31,-0.15 0.48,-0.23 m -0.91,0.45 c -0.12,0.05 -0.25,0.12 -0.37,0.18 0.13,-0.06 0.24,-0.12 0.37,-0.18 m -0.71,0.35 c -0.11,0.05 -0.26,0.13 -0.38,0.19 0.13,-0.07 0.25,-0.13 0.38,-0.19 m -0.66,0.33 c -0.52,0.25 -1.01,0.5 -1.52,0.75 0.51,-0.25 1.01,-0.5 1.52,-0.75 m -1.68,0.83 c -0.16,0.09 -0.35,0.18 -0.51,0.26 0.17,-0.08 0.34,-0.17 0.51,-0.26 m -0.62,0.32 c -199.67,100.6 -313.57,307.99 -303.14,520.73 0.05,-0.06 0.1,-0.12 0.16,-0.18 -10.36,-212.65 103.4,-419.97 302.98,-520.55 m -908.13,351.8 116.04,72.22 c 23,14.32 36.63,39.05 36.45,66.15 -0.18,27.09 -14.14,51.63 -37.33,65.64 l -116.99,70.66 c -0.99,0.59 -1.58,1.63 -1.63,2.74 0.05,-1.11 0.64,-2.15 1.63,-2.74 l 116.99,-70.66 c 23.2,-14.01 37.15,-38.55 37.33,-65.64 0.18,-27.1 -13.44,-51.83 -36.45,-66.15 l -116.04,-72.22 m 104.5,649.39 c 0.01,0 0.01,0 0.02,0 -0.01,0 -0.01,0 -0.02,0 m 0.05,0.01 c 0.01,0.01 0.02,0.01 0.03,0.01 -0.01,0 -0.02,0 -0.03,-0.01 m 0.05,0.02 c 0.01,0 0.03,0.01 0.05,0.01 -0.02,0 -0.04,-0.01 -0.05,-0.01 m 0.05,0.01 c 0.02,0.01 0.04,0.01 0.07,0.02 -0.03,-0.01 -0.05,-0.01 -0.07,-0.02 m 0.07,0.02 c 0.02,0 0.04,0.01 0.06,0.01 -0.02,0 -0.04,-0.01 -0.06,-0.01 m 0.09,0.02 c 0.01,0 0.03,0 0.04,0 -0.01,0 -0.03,0 -0.04,0 m 0.05,0.01 c 0.11,0.02 0.22,0.03 0.33,0.04 -0.11,-0.01 -0.22,-0.02 -0.33,-0.04 m 0.52,0.05 c 0.02,0 0.04,0 0.06,0 -0.02,0 -0.04,0 -0.06,0 m 0.14,0 c -0.02,0 -0.03,0 -0.05,0 v 0 c 0.02,0 0.03,0 0.05,0"
         id="path130"
         inkscape:connector-curvature="0" /></clipPath><radialGradient
       fx="0"
       fy="0"
       cx="0"
       cy="0"
       r="1"
       gradientUnits="userSpaceOnUse"
       gradientTransform="matrix(3287.2,0,0,-3287.2,4078.86,4130.12)"
       spreadMethod="pad"
       id="radialGradient138"><stop
         style="stop-opacity:1;stop-color:#a1b2bd"
         offset="0"
         id="stop134" /><stop
         style="stop-opacity:1;stop-color:#91a6b3"
         offset="1"
         id="stop136" /></radialGradient><clipPath
       clipPathUnits="userSpaceOnUse"
       id="clipPath150"><path
         d="m 4695.12,2141.49 c -0.09,0 -0.19,0.01 -0.29,0.02 l -243.08,33.3 -0.59,0.17 -1.25,1.69 -11.2,86.74 c -2.21,17.19 -12.99,31.7 -28.81,38.8 -6.53,2.93 -13.44,4.38 -20.31,4.38 v 0 c 6.87,0 13.78,-1.45 20.31,-4.38 15.82,-7.1 26.6,-21.6 28.81,-38.8 l 11.2,-86.74 1.25,-1.69 0.59,-0.17 243.09,-33.3 c 0.09,-0.01 0.19,-0.02 0.29,-0.02 0.24,0 0.47,0.04 0.69,0.12 -0.22,-0.08 -0.46,-0.12 -0.7,-0.12 m 1.76,0.89 c 0,0 0,0 0,0.01 0,-0.01 0,-0.01 0,-0.01 m 0.01,0.02 c 0.09,0.12 0.16,0.26 0.23,0.41 l 10.14,23.96 -10.14,-23.96 c -0.07,-0.15 -0.14,-0.29 -0.23,-0.41 m 174.03,26.58 v 0 l -56.31,66.92 c -4.9,5.82 -10.81,10.32 -17.57,13.35 v 0 0 c 6.76,-3.03 12.67,-7.53 17.57,-13.35 l 56.31,-66.92 m -134.69,63.48 c 5.5,7.91 13.16,14.01 22.28,17.6 v 0 0 c -9.12,-3.59 -16.78,-9.69 -22.28,-17.6 m -446.69,16.15 -2.61,0.15 -186.5,159.43 -0.55,2.56 0.55,-2.56 186.5,-159.43 2.61,-0.15 v 0 m -150.38,279.31 v 0 c -4.62,12.55 -14.18,22.84 -26.22,28.24 -6.31,2.84 -13.09,4.27 -20.16,4.27 -0.49,0 -0.99,-0.01 -1.49,-0.02 l -85.06,-2.36 85.06,2.36 c 0.49,0.02 0.99,0.02 1.48,0.02 7.07,0 13.85,-1.43 20.18,-4.27 12.03,-5.39 21.59,-15.69 26.21,-28.24 v 0 m 533.16,5.83 c -46.29,0 -93.31,9.14 -138.46,28.39 45.12,-19.24 92.1,-28.37 138.36,-28.37 61.69,0 122.12,16.23 175.18,46.35 0.01,-0.01 0.03,-0.03 0.04,-0.04 -53.04,-30.12 -113.44,-46.33 -175.12,-46.33 m -668.51,24.23 c -0.95,0 -1.79,0.62 -2.07,1.53 l -70.7,234.95 c -0.27,0.93 0.1,1.94 0.93,2.46 l 37.13,23.1 -37.13,-23.11 c -0.82,-0.51 -1.2,-1.52 -0.92,-2.44 l 70.69,-234.96 c 0.28,-0.91 1.12,-1.53 2.08,-1.53 0,0 0,0 -0.01,0 m 523.92,6.85 c -178.26,79.97 -257.94,289.31 -177.96,467.56 v 0 0 c -79.98,-178.25 -0.3,-387.59 177.96,-467.56 m -513.02,284.94 c 9.52,9.26 14.93,22 14.84,35.69 -0.11,17.33 -9.04,33.03 -23.89,42 l -74.86,45.22 c -0.84,0.5 -1.23,1.49 -0.96,2.43 -0.26,-0.93 0.12,-1.93 0.96,-2.43 l 74.87,-45.22 c 14.84,-8.97 23.77,-24.66 23.88,-42 0.09,-13.69 -5.32,-26.43 -14.84,-35.69 m 335.38,183.33 c 0.03,0.08 0.08,0.18 0.11,0.25 -0.04,-0.08 -0.07,-0.17 -0.11,-0.25 m 0.31,0.7 c 0.05,0.11 0.09,0.2 0.14,0.31 -0.04,-0.1 -0.09,-0.21 -0.14,-0.31 m 0.32,0.69 c 0.05,0.11 0.11,0.25 0.16,0.36 -0.05,-0.12 -0.11,-0.24 -0.16,-0.36 m 0.3,0.67 c 0.06,0.13 0.13,0.27 0.19,0.4 -0.06,-0.13 -0.12,-0.27 -0.19,-0.4 m 0.24,0.5 c 11.97,25.99 26.71,49.86 43.71,71.39 0.01,-0.01 0.02,-0.02 0.03,-0.03 -17.01,-21.53 -31.77,-45.37 -43.74,-71.36 m -353.87,175.33 c 0.27,0.92 1.11,1.56 2.07,1.56 v 0 c -0.95,0 -1.8,-0.64 -2.07,-1.56 m 132.6,24.15 c 8.78,14.49 9.57,32.13 2.07,47.39 l -38.52,78.52 38.53,-78.52 c 7.49,-15.26 6.7,-32.9 -2.08,-47.39 m -35.94,128.48 49.39,43.38 v 0 l -49.39,-43.38"
         id="path148"
         inkscape:connector-curvature="0" /></clipPath><radialGradient
       fx="0"
       fy="0"
       cx="0"
       cy="0"
       r="1"
       gradientUnits="userSpaceOnUse"
       gradientTransform="matrix(3287.2,0,0,-3287.2,4078.86,4130.12)"
       spreadMethod="pad"
       id="radialGradient156"><stop
         style="stop-opacity:1;stop-color:#a1b2bd"
         offset="0"
         id="stop152" /><stop
         style="stop-opacity:1;stop-color:#91a6b3"
         offset="1"
         id="stop154" /></radialGradient></defs><sodipodi:namedview
     pagecolor="#ffffff"
     bordercolor="#666666"
     borderopacity="1"
     objecttolerance="10"
     gridtolerance="10"
     guidetolerance="10"
     inkscape:pageopacity="0"
     inkscape:pageshadow="2"
     inkscape:window-width="1222"
     inkscape:window-height="529"
     id="namedview4"
     showgrid="false"
     inkscape:zoom="0.21594826"
     inkscape:cx="625.14971"
     inkscape:cy="514.66662"
     inkscape:window-x="0"
     inkscape:window-y="27"
     inkscape:window-maximized="0"
     inkscape:current-layer="g10" /><g
     id="g10"
     inkscape:groupmode="layer"
     inkscape:label="ink_ext_XXXXXX"
     transform="matrix(1.3333333,0,0,-1.3333333,0,700.00005)"><path
       inkscape:connector-curvature="0"
       id="path84"
       style="fill:#f9f9f9;fill-opacity:1;fill-rule:nonzero;stroke:none;stroke-width:0.1"
       d="m 195.66792,287.03466 c -38,0 -68.805,30.805 -68.805,68.805 0,38.001 30.805,68.806 68.805,68.806 38,0 68.805,-30.805 68.805,-68.806 0,-38 -30.805,-68.805 -68.805,-68.805 m 145.308,72.889 -15.62,6.737 c -3.097,1.336 -5.233,4.126 -5.713,7.465 -0.48,3.339 0.783,6.618 3.378,8.772 l 13.089,10.865 c 0.146,0.121 0.192,0.324 0.114,0.497 l -19.824,43.409 c -0.079,0.171 -0.26,0.271 -0.451,0.239 l -16.782,-2.777 c -3.573,-0.593 -7.208,0.906 -9.342,3.82 -1.827,2.494 -2.337,5.621 -1.4,8.577 l 5.137,16.216 c 0.057,0.181 -0.014,0.377 -0.173,0.48 l -40.146,25.8 c -0.159,0.102 -0.368,0.085 -0.508,-0.041 l -12.616,-11.41 c -1.803,-1.63 -4.022,-2.492 -6.417,-2.492 -4.424,0 -8.17,2.859 -9.323,7.114 l -4.446,16.419 c -0.049,0.183 -0.215,0.31 -0.404,0.31 h -47.722 c -0.189,0 -0.355,-0.127 -0.404,-0.31 l -4.446,-16.419 c -1.152,-4.255 -4.899,-7.114 -9.323,-7.114 -2.395,0 -4.614,0.862 -6.416,2.492 l -12.617,11.41 c -0.14,0.126 -0.348,0.143 -0.508,0.041 l -40.146003,-25.8 c -0.159,-0.103 -0.23,-0.299 -0.173,-0.48 l 5.137003,-16.216 c 0.937,-2.956 0.427,-6.083 -1.399,-8.577 -2.135003,-2.913 -5.761003,-4.417 -9.343003,-3.82 l -16.782,2.777 c -0.184,0.031 -0.371,-0.067 -0.451,-0.239 l -19.824,-43.409 c -0.078,-0.173 -0.032,-0.376 0.114,-0.497 l 13.089,-10.865 c 2.595,-2.154 3.858,-5.433 3.378,-8.772 -0.48,-3.339 -2.616,-6.129 -5.713,-7.465 l -15.62,-6.737 c -0.173,-0.074 -0.276,-0.257 -0.249,-0.445 l 6.792,-47.236 c 0.027,-0.188 0.176,-0.333 0.365,-0.356 l 16.885,-2.064 c 3.347,-0.409 6.182,-2.484 7.583,-5.552 1.401,-3.069 1.114,-6.571 -0.77,-9.369 l -9.498,-14.113 c -0.105,-0.157 -0.092,-0.365 0.032,-0.508 l 31.251003,-36.065 c 0.123,-0.143 0.327,-0.185 0.498,-0.104 l 15.322,7.393 c 1.332,0.643 2.739,0.969 4.18,0.969 2.566,0 5.082,-1.066 6.902,-2.924 1.807,-1.847 2.772,-4.302 2.717,-6.913 l -0.361,-17.007 c -0.004,-0.189 0.12,-0.358 0.302,-0.411 l 45.789,-13.445 c 0.184,-0.053 0.377,0.021 0.476,0.183 l 8.891,14.502 c 1.763,2.875 4.828,4.591 8.201,4.591 3.373,0 6.439,-1.716 8.201,-4.591 l 8.893,-14.502 c 0.077,-0.127 0.213,-0.201 0.356,-0.201 l 0.118,0.018 45.789,13.445 c 0.183,0.053 0.306,0.222 0.302,0.411 l -0.36,17.007 c -0.056,2.611 0.909,5.066 2.717,6.913 1.819,1.858 4.334,2.924 6.901,2.924 1.441,0 2.848,-0.326 4.181,-0.969 l 15.321,-7.393 c 0.169,-0.081 0.374,-0.039 0.499,0.104 l 31.251,36.065 c 0.123,0.143 0.137,0.351 0.031,0.508 l -9.498,14.113 c -1.883,2.798 -2.171,6.3 -0.77,9.369 1.402,3.068 4.236,5.143 7.583,5.552 l 16.885,2.064 c 0.189,0.023 0.338,0.168 0.365,0.356 l 6.792,47.236 c 0.027,0.188 -0.075,0.371 -0.249,0.445" /><path
       inkscape:connector-curvature="0"
       id="path86"
       style="fill:#f2f2f2;fill-opacity:1;fill-rule:nonzero;stroke:none;stroke-width:0.1"
       d="m 336.59264,91.232661 c -27.857,12.497999 -40.308,45.211999 -27.81,73.067999 12.497,27.857 45.211,40.308 73.068,27.81 27.857,-12.497 40.307,-45.211 27.81,-73.068 -12.498,-27.856999 -45.212,-40.307999 -73.068,-27.809999 m 130.493,5.643 -9.235,10.075999 c -1.831,1.998 -2.479,4.746 -1.733,7.351 0.746,2.606 2.751,4.594 5.361,5.319 l 13.169,3.66 c 0.146,0.041 0.247,0.175 0.246,0.327 l -0.255,38.342 c -0.002,0.152 -0.102,0.284 -0.252,0.324 l -13.216,3.484 c -2.814,0.74 -4.986,3.034 -5.592,5.873 -0.519,2.428 0.136,4.888 1.795,6.747 l 9.099,10.198 c 0.101,0.114 0.114,0.281 0.031,0.409 l -20.945,32.117 c -0.083,0.126 -0.242,0.182 -0.386,0.136 l -13.001,-4.214 c -1.857,-0.602 -3.768,-0.505 -5.523,0.283 -3.243,1.455 -5.049,4.783 -4.495,8.281 l 2.141,13.499 c 0.024,0.15 -0.056,0.297 -0.195,0.36 l -34.983,15.695 c -0.139,0.062 -0.302,0.024 -0.399,-0.094 l -8.658,-10.575 c -2.244,-2.74 -5.931,-3.603 -9.174,-2.148 -1.756,0.788 -3.099,2.149 -3.884,3.937 l -5.497,12.513 c -0.061,0.139 -0.208,0.22 -0.359,0.198 l -37.915,-5.71 c -0.15,-0.023 -0.267,-0.144 -0.284,-0.295 l -1.568,-13.577 c -0.285,-2.476 -1.688,-4.6 -3.846,-5.828 -2.523,-1.433 -5.677,-1.343 -8.105,0.273 l -11.39,7.555 c -0.124,0.083 -0.294,0.073 -0.408,-0.027 l -28.81,-25.302 c -0.114,-0.101 -0.147,-0.265 -0.08,-0.402 l 6.022,-12.27 c 1.194,-2.432 1.041,-5.251 -0.409,-7.541 -1.45,-2.289 -3.933,-3.633 -6.643,-3.593 l -13.666,0.198 c -0.152,0.002 -0.287,-0.097 -0.328,-0.244 l -10.557,-36.861 c -0.042,-0.146 0.02,-0.303 0.15,-0.381 l 11.699,-7.066 c 2.32,-1.401 3.715,-3.855 3.733,-6.564 0.018,-2.71 -1.344,-5.183 -3.645,-6.615 l -11.604,-7.222 c -0.129,-0.08 -0.189,-0.238 -0.145,-0.383 l 11.048,-36.715999 c 0.044,-0.145 0.18,-0.243 0.332,-0.24 l 13.663,0.38 c 1.188,0.033 2.327,-0.19 3.384,-0.664 1.88,-0.844 3.374,-2.453 4.097,-4.413 0.717,-1.949 0.618,-4.066 -0.282,-5.962 l -5.858,-12.349 c -0.065,-0.137 -0.03,-0.302 0.086,-0.4 l 29.145,-24.916 c 0.117,-0.099 0.283,-0.108 0.408,-0.022 l 11.288,7.707 c 2.238,1.528 5.05,1.778 7.522,0.668 2.473,-1.109 4.156,-3.375 4.502,-6.063 l 1.749,-13.555 c 0.015,-0.118 0.091,-0.217 0.196,-0.264 l 0.092,-0.026 37.989,-5.204 c 0.151,-0.021 0.297,0.062 0.356,0.202 l 5.329,12.586 c 0.818,1.933 2.334,3.415 4.266,4.174 1.945,0.764 4.139,0.719 6.021,-0.126 1.056,-0.473 1.979,-1.176 2.746,-2.085 l 8.8,-10.458 c 0.097,-0.115 0.261,-0.152 0.399,-0.088 l 34.771,16.16 c 0.137,0.064 0.216,0.212 0.19,0.362 l -2.321,13.469 c -0.461,2.671 0.481,5.333 2.517,7.122 2.036,1.787 4.796,2.377 7.385,1.576 l 13.056,-4.04 c 0.146,-0.046 0.303,0.012 0.385,0.14 l 20.514,32.394 c 0.081,0.129 0.066,0.296 -0.036,0.408" /><path
       inkscape:connector-curvature="0"
       id="path88"
       style="fill:#f9f9f9;fill-opacity:1;fill-rule:nonzero;stroke:none;stroke-width:0.1"
       d="m 145.14464,99.347661 c -17.826,7.996999 -25.794,28.930999 -17.796,46.755999 7.997,17.826 28.931,25.794 46.756,17.796 17.826,-7.997 25.793,-28.931 17.796,-46.756 -7.997,-17.825999 -28.931,-25.793999 -46.756,-17.795999 m 83.502,3.610999 -5.909,6.447 c -1.172,1.279 -1.586,3.038 -1.109,4.704 0.478,1.668 1.76,2.94 3.431,3.404 l 8.426,2.342 c 0.094,0.027 0.159,0.112 0.158,0.209 l -0.163,24.536 c -0.001,0.097 -0.065,0.181 -0.161,0.207 l -8.457,2.229 c -1.801,0.474 -3.191,1.942 -3.579,3.758 -0.332,1.554 0.087,3.128 1.149,4.318 l 5.822,6.526 0.02,0.261 -13.402,20.552 c -0.054,0.081 -0.155,0.117 -0.247,0.087 l -8.32,-2.697 c -1.188,-0.385 -2.411,-0.322 -3.534,0.182 -2.076,0.931 -3.231,3.06 -2.877,5.298 l 1.37,8.639 c 0.016,0.095 -0.035,0.19 -0.124,0.23 l -22.386,10.043 -0.255,-0.06 -5.541,-6.767 c -1.436,-1.753 -3.795,-2.305 -5.87,-1.374 -1.123,0.504 -1.983,1.375 -2.486,2.519 l -3.517,8.007 c -0.039,0.089 -0.133,0.141 -0.229,0.127 l -24.263,-3.654 c -0.096,-0.015 -0.17,-0.092 -0.182,-0.189 l -1.003,-8.688 c -0.182,-1.584 -1.08,-2.943 -2.461,-3.729 -1.614,-0.917 -3.632,-0.859 -5.186,0.174 l -7.288,4.835 -0.262,-0.017 -18.435,-16.191 -0.051,-0.257 3.853,-7.852 c 0.764,-1.556 0.666,-3.36 -0.262,-4.825 -0.927,-1.465 -2.517,-2.325 -4.25,-2.3 l -8.745999,0.127 c -0.096,0.002 -0.183,-0.062 -0.21,-0.156 l -6.755,-23.588 c -0.026,-0.093 0.012,-0.193 0.096,-0.243 l 7.487,-4.522 c 1.484,-0.897 2.377,-2.466 2.388,-4.2 0.012,-1.735 -0.86,-3.317 -2.333,-4.233 l -7.425,-4.622 c -0.082,-0.051 -0.12,-0.152 -0.092,-0.244 l 7.069,-23.495999 c 0.028,-0.092 0.115,-0.155 0.212,-0.153 l 8.742999,0.243 c 0.761,0.021 1.489,-0.121 2.166,-0.425 1.203,-0.539 2.159,-1.569 2.621,-2.824 0.46,-1.246 0.396,-2.601 -0.18,-3.815 l -3.748,-7.901 0.055,-0.257 18.65,-15.943 0.261,-0.015 7.223,4.932 c 1.432,0.978 3.231,1.138 4.813,0.428 1.582,-0.71 2.66,-2.16 2.881,-3.88 l 1.12,-8.674 0.125,-0.169 0.059,-0.017 24.309,-3.33 c 0.096,-0.013 0.19,0.04 0.228,0.13 l 3.41,8.054 c 0.523,1.236 1.493,2.185 2.729,2.671 1.245,0.488 2.649,0.459 3.853,-0.081 0.676,-0.303 1.267,-0.753 1.757,-1.335 l 5.631,-6.692 0.256,-0.056 22.25,10.341 c 0.088,0.041 0.138,0.136 0.121,0.232 l -1.485,8.618 c -0.294,1.709 0.308,3.413 1.611,4.558 1.303,1.144 3.069,1.521 4.725,1.008 l 8.356,-2.585 c 0.093,-0.029 0.193,0.008 0.245,0.09 l 13.128,20.728999 -0.024,0.261" /><g
       id="g90"
       transform="matrix(0.1,0,0,0.1,-307.62836,-157.13534)"><g
         clip-path="url(#clipPath96)"
         id="g92"><path
           inkscape:connector-curvature="0"
           id="path104"
           style="fill:url(#radialGradient102);fill-opacity:1;fill-rule:nonzero;stroke:none"
           d="m 5207.46,3688.91 c -1.43,0 -2.79,0.74 -3.56,2.01 l -88.93,145.02 c -6.67,10.88 -15.22,20.11 -25.09,27.37 v 0 c 9.87,-7.26 18.42,-16.49 25.09,-27.37 l 88.93,-145.02 c 0.77,-1.27 2.13,-2.01 3.56,-2.01 l 1.18,0.18 52.17,15.32 v 0 l -52.17,-15.32 -1.18,-0.18 m -348.99,0.01 c -0.39,0 -0.79,0.05 -1.19,0.17 l -457.89,134.45 c -1.79,0.52 -3.02,2.17 -3.02,4.02 0,-1.86 1.23,-3.5 3.02,-4.02 l 457.89,-134.45 c 0.4,-0.12 0.8,-0.17 1.19,-0.17 1.44,0 2.79,0.73 3.57,2 v 0 c -0.78,-1.27 -2.13,-2 -3.57,-2 M 4400,3999.86 c 0,25.31 -9.62,49.03 -27.19,66.99 -3.81,3.89 -7.92,7.43 -12.28,10.59 h 0.01 c 4.35,-3.16 8.46,-6.7 12.27,-10.59 17.57,-17.96 27.19,-41.68 27.19,-66.99 m -293.04,12.2 c -1.19,0 -2.36,0.51 -3.17,1.45 l -312.51,360.65 c -0.68,0.78 -1.03,1.76 -1.03,2.74 0,-0.98 0.35,-1.96 1.03,-2.74 l 312.51,-360.65 c 0.81,-0.94 1.98,-1.44 3.17,-1.44 0.61,0 1.23,0.13 1.81,0.4 l 40.09,19.35 -40.09,-19.35 c -0.58,-0.27 -1.2,-0.41 -1.81,-0.41 m -204.54,562.08 c -0.02,13.51 -2.93,27.09 -8.78,39.92 -8.55,18.72 -22.44,33.75 -39.58,43.54 v 0 c 17.14,-9.79 31.03,-24.82 39.58,-43.54 5.85,-12.83 8.76,-26.41 8.78,-39.92 m -182.28,107.38 -71.18,8.7 c -1.89,0.23 -3.38,1.68 -3.65,3.56 l -67.92,472.36 c -0.03,0.21 -0.04,0.41 -0.04,0.61 0,-0.2 0.01,-0.4 0.04,-0.61 l 67.92,-472.36 c 0.27,-1.88 1.76,-3.33 3.65,-3.56 l 71.18,-8.7 v 0 m 74.07,645.11 c -0.02,28.37 -12.48,55.18 -34.78,73.69 l -130.89,108.66 c -0.98,0.81 -1.51,1.99 -1.52,3.21 0.01,-1.22 0.54,-2.4 1.52,-3.21 l 130.89,-108.65 c 22.3,-18.51 34.76,-45.33 34.78,-73.7" /></g></g><g
       id="g106"
       transform="matrix(0.1,0,0,0.1,-307.62836,-157.13534)"><g
         clip-path="url(#clipPath112)"
         id="g108"><path
           inkscape:connector-curvature="0"
           id="path120"
           style="fill:url(#radialGradient118);fill-opacity:1;fill-rule:nonzero;stroke:none"
           d="m 5260.81,3704.41 v 0 l 178.13,52.3 v 0 l -178.13,-52.3 m -170.93,158.9 c -16.2,11.91 -35.97,18.54 -56.92,18.54 -3.17,0 -6.3,-0.15 -9.4,-0.45 3.1,0.3 6.23,0.45 9.4,0.45 20.95,0 40.72,-6.63 56.92,-18.54 v 0 m -941.02,168.51 v 0 l 113.13,54.58 c 13.32,6.43 27.39,9.69 41.8,9.69 20.3,0 40.27,-6.66 56.75,-18.65 h -0.01 c -16.47,11.98 -36.45,18.65 -56.74,18.65 -14.41,0 -28.48,-3.27 -41.8,-9.69 l -113.13,-54.58 m 568.5,486.37 c -142.92,73.91 -256.63,196.43 -319.21,345.71 l 0.09,-0.1 c 62.52,-149.05 176.07,-271.28 318.73,-345.19 0.13,-0.14 0.26,-0.28 0.39,-0.42 m -863.3,139.41 v 0 c -10.94,6.26 -23.21,10.39 -36.25,11.98 l -97.67,11.94 v 0 l 97.67,-11.94 c 13.04,-1.59 25.31,-5.72 36.25,-11.98" /></g></g><path
       inkscape:connector-curvature="0"
       id="path122"
       style="fill:#f2f2f2;fill-opacity:1;fill-rule:nonzero;stroke:none;stroke-width:0.1"
       d="m 213.11764,211.75566 c -0.143,0 -0.279,0.074 -0.356,0.201 l -8.893,14.502 c -0.667,1.088 -1.522,2.011 -2.509,2.737 -1.62,1.191 -3.597,1.854 -5.692,1.854 -0.317,0 -0.63,-0.015 -0.94,-0.045 -2.996,-0.287 -5.664,-1.941 -7.262,-4.546 l -8.89,-14.502 c -0.078,-0.127 -0.213,-0.2 -0.357,-0.2 -0.039,0 -0.079,0.005 -0.119,0.017 l -45.789,13.445 c -0.179,0.052 -0.302,0.216 -0.302,0.402 0,0.003 0,0.006 0,0.009 l 0.361,17.007 c 0.001,0.071 0.002,0.142 0.002,0.214 0,2.531 -0.962,4.903 -2.719,6.699 -0.381,0.389 -0.792,0.743 -1.227,1.059 -1.648,1.199 -3.645,1.865 -5.675,1.865 -1.441,0 -2.848,-0.326 -4.18,-0.969 l -11.313,-5.458 -4.009,-1.935 c -0.058,-0.027 -0.12,-0.04 -0.181,-0.04 -0.119,0 -0.236,0.05 -0.317,0.144 l -31.250999,36.065 c -0.068,0.078 -0.103,0.176 -0.103,0.274 0,0.082 0.024,0.163 0.071,0.234 l 9.498,14.113 c 1.096,1.628 1.652,3.496 1.648,5.377 -0.002,1.351 -0.293,2.709 -0.878,3.992 -0.855,1.872 -2.244,3.375 -3.958,4.354 -1.094,0.626 -2.321,1.039 -3.625,1.198 l -9.767,1.194 -7.118,0.87 c -0.189,0.023 -0.338,0.168 -0.365,0.356 l -6.792,47.236 c -0.003,0.021 -0.004,0.041 -0.004,0.061 0,0.165 0.099,0.317 0.253,0.384 l 15.62,6.737 c 3.097,1.336 5.233,4.126 5.713,7.465 0.067,0.469 0.1,0.938 0.1,1.402 -0.002,2.837 -1.248,5.519 -3.478,7.37 l -13.089,10.865 c -0.098,0.081 -0.151,0.199 -0.152,0.321 0,0.059 0.012,0.119 0.038,0.175 l 7.328,16.046 c 22.46,-27.615 45.775999,-54.528 69.647999,-80.943 l 0.099,-0.107 c 6.258,-14.928 17.629,-27.18 31.921,-34.571 23.931,-25.496 48.214,-50.657 72.158,-76.148 l -17.813,-5.23 -5.217,-1.532 -0.118,-0.018" /><path
       inkscape:connector-curvature="0"
       id="path124"
       style="fill:#91a6b3;fill-opacity:1;fill-rule:nonzero;stroke:none;stroke-width:0.1"
       d="m 362.75264,25.076661 c -0.015,0 -0.03,10e-4 -0.045,0.003 l -25.044,3.43 v 0 l 25.044,-3.43 c 0.015,-0.002 0.03,-0.003 0.046,-0.003 h -0.001 m 27.731,4.176 c -0.098,0 -0.193,0.042 -0.258,0.12 l -8.8,10.458 v 0 0 l 8.8,-10.458 c 0.065,-0.077 0.16,-0.12 0.258,-0.12 0.006,0 0.012,0.001 0.018,0.001 -0.006,0 -0.012,-0.001 -0.018,-0.001 m 3.772,1.719 6.9,3.207 v 0 l -6.9,-3.207 m -24.694,8.83 c 0.818,0.99 1.874,1.76 3.097,2.24 0.92,0.362 1.897,0.542 2.869,0.542 1.083,0 2.161,-0.223 3.152,-0.668 0.73,-0.327 1.397,-0.764 1.993,-1.304 -0.596,0.54 -1.263,0.977 -1.993,1.304 -0.991,0.445 -2.069,0.668 -3.151,0.668 -0.973,0 -1.95,-0.18 -2.87,-0.542 -1.223,-0.48 -2.279,-1.25 -3.097,-2.24" /><g
       id="g126"
       transform="matrix(0.1,0,0,0.1,-307.62836,-157.13534)"><g
         clip-path="url(#clipPath132)"
         id="g128"><path
           inkscape:connector-curvature="0"
           id="path140"
           style="fill:url(#radialGradient138);fill-opacity:1;fill-rule:nonzero;stroke:none"
           d="m 6452.92,1856.45 -129.45,17.74 -0.92,0.26 c -0.52,0.23 -0.98,0.6 -1.31,1.05 0.34,-0.45 0.79,-0.82 1.31,-1.05 l 0.92,-0.26 129.45,-17.74 v 0 m -132.33,20.64 v 0 l -17.49,135.55 c -2.97,23.03 -15.75,42.96 -34.9,55.18 19.15,-12.22 31.93,-32.15 34.9,-55.18 l 17.49,-135.55 v 0 m -252.5,111.84 c -0.78,0 -1.56,0.27 -2.19,0.81 l -291.45,249.16 c -1.16,0.98 -1.51,2.63 -0.86,4 l 30.79,64.91 -30.79,-64.91 c -0.65,-1.37 -0.3,-3.02 0.86,-4 l 291.45,-249.16 c 0.63,-0.54 1.41,-0.81 2.19,-0.81 v 0 m 1.16,0.21 c 0.25,0.09 0.5,0.22 0.73,0.38 l 112.88,77.07 c 13.13,8.96 28.24,13.53 43.48,13.53 v 0 c -15.24,0 -30.35,-4.57 -43.48,-13.53 l -112.88,-77.07 c -0.23,-0.16 -0.48,-0.29 -0.73,-0.38 m -232.1,390.79 c 4.03,15.18 3.34,31.13 -2.16,46.07 -7.23,19.61 -22.17,35.7 -40.97,44.14 -9.89,4.43 -20.49,6.67 -31.54,6.67 v 0 c 11.05,0 21.65,-2.24 31.54,-6.67 18.8,-8.44 33.74,-24.53 40.97,-44.13 5.5,-14.95 6.2,-30.9 2.16,-46.08 m 790.72,56.66 c -60.01,4.41 -120.25,18.77 -178.5,43.94 58.23,-25.16 118.47,-39.49 178.47,-43.9 0.01,-0.01 0.02,-0.03 0.03,-0.04 m -1004.4,36.39 c -1.48,0 -2.81,0.97 -3.24,2.4 l -110.48,367.16 c -0.09,0.32 -0.14,0.64 -0.14,0.96 0,-0.32 0.05,-0.64 0.14,-0.96 l 110.48,-367.16 c 0.44,-1.43 1.75,-2.4 3.25,-2.4 0,0 0,0 -0.01,0 m 825.82,7.58 c -0.19,0.08 -0.36,0.16 -0.55,0.24 0.18,-0.08 0.37,-0.16 0.55,-0.24 m -0.8,0.35 c -0.16,0.06 -0.32,0.14 -0.48,0.2 0.16,-0.07 0.32,-0.13 0.48,-0.2 m -0.82,0.35 c -0.14,0.06 -0.29,0.13 -0.43,0.19 0.14,-0.06 0.29,-0.12 0.43,-0.19 m -0.84,0.37 c -0.12,0.05 -0.24,0.11 -0.36,0.16 0.12,-0.05 0.24,-0.11 0.36,-0.16 m -1.11,0.49 c -0.11,0.04 -0.18,0.08 -0.28,0.12 0.09,-0.04 0.18,-0.08 0.28,-0.12 m -0.82,0.36 c -0.11,0.05 -0.17,0.08 -0.27,0.12 0.09,-0.04 0.17,-0.08 0.27,-0.12 m -0.81,0.36 c -0.11,0.05 -0.18,0.08 -0.28,0.12 0.09,-0.04 0.18,-0.08 0.28,-0.12 m -0.86,0.38 c -0.06,0.03 -0.15,0.07 -0.22,0.1 0.08,-0.04 0.15,-0.06 0.22,-0.1 m -1.77,0.79 c -0.06,0.03 -0.13,0.07 -0.2,0.1 0.06,-0.03 0.14,-0.07 0.2,-0.1 m -0.75,0.35 c -0.09,0.03 -0.14,0.06 -0.22,0.09 0.08,-0.03 0.14,-0.06 0.22,-0.09 m -0.87,0.39 c -0.03,0.01 -0.06,0.03 -0.1,0.04 0.04,-0.02 0.07,-0.03 0.1,-0.04 m -0.85,0.38 c -0.05,0.03 -0.1,0.05 -0.15,0.07 0.05,-0.02 0.1,-0.04 0.15,-0.07 m -0.75,0.35 c -0.07,0.03 -0.13,0.06 -0.2,0.09 0.07,-0.03 0.13,-0.06 0.2,-0.09 m -0.85,0.39 c -0.01,0 -0.07,0.03 -0.08,0.04 0.04,-0.02 0.04,-0.03 0.08,-0.04 m -0.85,0.39 c -0.03,0.02 -0.07,0.03 -0.1,0.05 0.04,-0.02 0.06,-0.03 0.1,-0.05 m -0.75,0.35 c -0.07,0.03 -0.12,0.05 -0.18,0.08 0.05,-0.02 0.13,-0.06 0.18,-0.08 m -0.79,0.36 c -0.05,0.03 -0.1,0.05 -0.15,0.07 0.05,-0.02 0.1,-0.04 0.15,-0.07 m -1.65,0.78 c -0.05,0.02 -0.12,0.05 -0.17,0.08 0.05,-0.03 0.12,-0.06 0.17,-0.08 m -0.77,0.36 c -0.05,0.02 -0.12,0.05 -0.17,0.08 0.05,-0.03 0.12,-0.06 0.17,-0.08 m -1.66,0.78 c -0.05,0.03 -0.12,0.06 -0.17,0.08 0.05,-0.02 0.12,-0.05 0.17,-0.08 m -0.74,0.36 c -0.07,0.03 -0.15,0.07 -0.21,0.1 0.06,-0.03 0.14,-0.07 0.21,-0.1 m -0.78,0.37 c -0.07,0.03 -0.11,0.05 -0.18,0.09 0.06,-0.04 0.12,-0.06 0.18,-0.09 m -0.89,0.43 c -0.07,0.03 -0.12,0.06 -0.19,0.09 0.06,-0.03 0.12,-0.06 0.19,-0.09 m -0.73,0.35 c -0.09,0.04 -0.17,0.08 -0.25,0.12 0.09,-0.04 0.16,-0.08 0.25,-0.12 m -0.75,0.36 c -0.07,0.03 -0.18,0.09 -0.24,0.12 0.07,-0.04 0.16,-0.08 0.24,-0.12 m -0.94,0.46 c -0.06,0.03 -0.13,0.06 -0.2,0.09 0.08,-0.03 0.13,-0.06 0.2,-0.09 m -0.71,0.34 c -0.1,0.05 -0.2,0.1 -0.3,0.15 0.11,-0.05 0.2,-0.1 0.3,-0.15 m -0.71,0.35 c -0.1,0.05 -0.22,0.11 -0.32,0.16 0.1,-0.05 0.22,-0.11 0.32,-0.16 m -0.76,0.38 c -0.17,0.08 -0.32,0.15 -0.48,0.23 0.16,-0.08 0.31,-0.15 0.48,-0.23 m -0.91,0.45 c -0.12,0.05 -0.25,0.12 -0.37,0.18 0.13,-0.06 0.24,-0.12 0.37,-0.18 m -0.71,0.35 c -0.11,0.05 -0.26,0.13 -0.38,0.19 0.13,-0.07 0.25,-0.13 0.38,-0.19 m -0.66,0.33 c -0.52,0.25 -1.01,0.5 -1.52,0.75 0.51,-0.25 1.01,-0.5 1.52,-0.75 m -1.68,0.83 c -0.16,0.09 -0.35,0.18 -0.51,0.26 0.17,-0.08 0.34,-0.17 0.51,-0.26 m -0.62,0.32 c -199.67,100.6 -313.57,307.99 -303.14,520.73 0.05,-0.06 0.1,-0.12 0.16,-0.18 -10.36,-212.65 103.4,-419.97 302.98,-520.55 m -908.13,351.8 116.04,72.22 c 23,14.32 36.63,39.05 36.45,66.15 -0.18,27.09 -14.14,51.63 -37.33,65.64 l -116.99,70.66 c -0.99,0.59 -1.58,1.63 -1.63,2.74 0.05,-1.11 0.64,-2.15 1.63,-2.74 l 116.99,-70.66 c 23.2,-14.01 37.15,-38.55 37.33,-65.64 0.18,-27.1 -13.44,-51.83 -36.45,-66.15 l -116.04,-72.22 m 104.5,649.39 c 0.01,0 0.01,0 0.02,0 -0.01,0 -0.01,0 -0.02,0 m 0.05,0.01 c 0.01,0.01 0.02,0.01 0.03,0.01 -0.01,0 -0.02,0 -0.03,-0.01 m 0.05,0.02 c 0.01,0 0.03,0.01 0.05,0.01 -0.02,0 -0.04,-0.01 -0.05,-0.01 m 0.05,0.01 c 0.02,0.01 0.04,0.01 0.07,0.02 -0.03,-0.01 -0.05,-0.01 -0.07,-0.02 m 0.07,0.02 c 0.02,0 0.04,0.01 0.06,0.01 -0.02,0 -0.04,-0.01 -0.06,-0.01 m 0.09,0.02 c 0.01,0 0.03,0 0.04,0 -0.01,0 -0.03,0 -0.04,0 m 0.05,0.01 c 0.11,0.02 0.22,0.03 0.33,0.04 -0.11,-0.01 -0.22,-0.02 -0.33,-0.04 m 0.52,0.05 c 0.02,0 0.04,0 0.06,0 -0.02,0 -0.04,0 -0.06,0 m 0.14,0 c -0.02,0 -0.03,0 -0.05,0 v 0 c 0.02,0 0.03,0 0.05,0" /></g></g><path
       inkscape:connector-curvature="0"
       id="path142"
       style="fill:#ececec;fill-opacity:1;fill-rule:nonzero;stroke:none;stroke-width:0.1"
       d="m 362.75364,25.076661 c -0.016,0 -0.031,10e-4 -0.046,0.003 l -25.044,3.43 -12.945,1.774 -0.092,0.026 c -0.052,0.023 -0.097,0.06 -0.131,0.105 -0.034,0.045 -0.057,0.1 -0.065,0.159 v 0 l -1.749,13.555 c -0.297,2.303 -1.575,4.296 -3.49,5.518 -0.32,0.204 -0.658,0.386 -1.012,0.545 -1.021,0.459 -2.101,0.685 -3.174,0.685 v 0 0 c -1.524,0 -3.035,-0.457 -4.348,-1.353 l -11.288,-7.707 c -0.023,-0.016 -0.048,-0.029 -0.073,-0.038 -0.038,-0.014 -0.077,-0.021 -0.116,-0.021 -0.078,0 -0.156,0.027 -0.219,0.081 l -29.145,24.916 c -0.116,0.098 -0.151,0.263 -0.086,0.4 l 3.079,6.491 2.779,5.858 c 0.209,0.441 0.375,0.894 0.498,1.354 0.404,1.518 0.334,3.113 -0.216,4.608 -0.723,1.96 -2.217,3.569 -4.097,4.413 -0.989,0.443 -2.049,0.667 -3.154,0.667 v 0 c -10e-4,0 -10e-4,0 -10e-4,0 -0.076,0 -0.153,-10e-4 -0.229,-0.003 l -13.663,-0.38 c -0.003,0 -0.005,0 -0.007,0 -0.15,0 -0.281,0.097 -0.325,0.24 l -11.048,36.715999 c -0.009,0.032 -0.014,0.064 -0.014,0.096 0,0.114 0.058,0.224 0.159,0.287 v 0 l 11.604,7.222 c 2.301,1.432 3.663,3.905 3.645,6.615 -0.018,2.709 -1.413,5.163 -3.733,6.564 l -11.699,7.066 c -0.099,0.059 -0.158,0.163 -0.163,0.274 -10e-4,0.035 0.003,0.071 0.013,0.107 l 10.557,36.861 c 0.031,0.112 0.119,0.198 0.226,0.23 0.001,0 0.001,0 0.002,0 0.001,0.001 0.002,0.001 0.003,0.001 0.001,10e-4 0.002,10e-4 0.003,10e-4 0.001,0 0.001,0.001 0.002,0.001 0.001,0 0.003,0.001 0.005,0.001 v 0 c 0.002,0.001 0.004,0.001 0.007,0.002 v 0 c 0.002,0 0.004,0.001 0.006,0.001 0.001,0 0.002,0 0.003,10e-4 10e-4,0 0.003,0 0.004,0 0,0.001 0.001,0.001 0.001,0.001 0.011,0.002 0.022,0.003 0.033,0.004 0.006,10e-4 0.012,10e-4 0.019,10e-4 0.002,0 0.004,0 0.006,0 0.001,0 0.002,0 0.003,0 0.002,0 0.003,0 0.005,0 v 0 l 6.541,-0.095 c 14.593,-15.876 29.046,-31.879 43.406,-47.965 -1.043,-21.274 10.347,-42.013 30.314,-52.072999 0.004,-0.002 0.007,-0.004 0.011,-0.006 0.016,-0.008 0.035,-0.017 0.051,-0.026 0.006,-0.002 0.011,-0.005 0.016,-0.008 0.051,-0.025 0.1,-0.05 0.152,-0.075 0.009,-0.005 0.019,-0.01 0.028,-0.014 0.012,-0.006 0.027,-0.014 0.038,-0.019 0.012,-0.006 0.023,-0.012 0.034,-0.017 0.012,-0.006 0.025,-0.013 0.037,-0.018 0.014,-0.007 0.029,-0.015 0.043,-0.022 0.016,-0.008 0.031,-0.015 0.048,-0.023 0.014,-0.007 0.03,-0.015 0.044,-0.022 0.01,-0.005 0.022,-0.011 0.032,-0.016 0.014,-0.007 0.027,-0.013 0.041,-0.02 0.01,-0.005 0.02,-0.01 0.03,-0.015 0.017,-0.008 0.035,-0.017 0.051,-0.025 0.007,-0.003 0.014,-0.006 0.02,-0.009 0.023,-0.012 0.047,-0.023 0.07,-0.034 0.006,-0.003 0.017,-0.009 0.024,-0.012 0.017,-0.008 0.033,-0.016 0.05,-0.024 0.008,-0.004 0.016,-0.008 0.025,-0.012 0.018,-0.009 0.036,-0.018 0.054,-0.026 0.007,-0.003 0.012,-0.006 0.019,-0.009 0.023,-0.011 0.048,-0.023 0.071,-0.034 0.007,-0.004 0.011,-0.006 0.018,-0.009 0.019,-0.009 0.038,-0.018 0.057,-0.027 0.006,-0.003 0.014,-0.007 0.021,-0.01 0.019,-0.009 0.038,-0.019 0.057,-0.028 0.005,-0.002 0.012,-0.005 0.017,-0.008 0.05,-0.024 0.099,-0.047 0.149,-0.07 0.005,-0.003 0.012,-0.006 0.017,-0.008 0.021,-0.01 0.039,-0.019 0.06,-0.028 0.005,-0.003 0.012,-0.006 0.017,-0.008 0.05,-0.024 0.1,-0.047 0.15,-0.071 0.005,-0.002 0.01,-0.004 0.015,-0.007 0.021,-0.009 0.04,-0.018 0.061,-0.028 0.006,-0.003 0.011,-0.005 0.018,-0.008 0.022,-0.011 0.043,-0.02 0.065,-0.03 0.003,-0.002 0.007,-0.003 0.01,-0.005 0.024,-0.011 0.052,-0.024 0.077,-0.035 10e-4,-0.001 0.007,-0.004 0.008,-0.004 0.021,-0.01 0.045,-0.021 0.065,-0.03 0.007,-0.003 0.013,-0.006 0.02,-0.009 0.021,-0.01 0.039,-0.018 0.06,-0.028 0.005,-0.002 0.01,-0.004 0.015,-0.007 0.025,-0.011 0.051,-0.023 0.075,-0.034 0.004,-10e-4 0.007,-0.003 0.01,-0.004 0.021,-0.01 0.044,-0.02 0.065,-0.03 0.008,-0.003 0.013,-0.006 0.022,-0.009 0.018,-0.009 0.037,-0.017 0.055,-0.025 0.007,-0.003 0.014,-0.007 0.02,-0.01 0.025,-0.011 0.05,-0.022 0.075,-0.033 0.026,-0.012 0.053,-0.024 0.08,-0.036 0.007,-0.003 0.016,-0.007 0.022,-0.01 0.02,-0.009 0.039,-0.017 0.058,-0.026 0.01,-0.004 0.017,-0.007 0.028,-0.012 0.017,-0.008 0.036,-0.016 0.054,-0.024 0.01,-0.004 0.016,-0.007 0.027,-0.012 0.018,-0.008 0.036,-0.016 0.054,-0.024 0.01,-0.004 0.017,-0.008 0.028,-0.012 0.024,-0.011 0.05,-0.022 0.075,-0.033 0.012,-0.005 0.024,-0.011 0.036,-0.016 0.014,-0.006 0.027,-0.012 0.041,-0.018 0.014,-0.006 0.029,-0.013 0.043,-0.019 0.011,-0.005 0.023,-0.01 0.034,-0.015 0.016,-0.006 0.032,-0.014 0.048,-0.02 0.008,-0.004 0.017,-0.008 0.025,-0.011 0.019,-0.008 0.036,-0.016 0.055,-0.024 0.002,-10e-4 0.005,-0.002 0.008,-0.003 5.825,-2.517 11.849,-3.953 17.85,-4.394 15.33,-17.451 30.639,-34.92 45.997,-52.345 l -6.9,-3.207 -3.631,-1.687 c -0.04,-0.019 -0.082,-0.029 -0.123,-0.031 -0.006,0 -0.012,-0.001 -0.018,-0.001 -0.098,0 -0.193,0.043 -0.258,0.12 l -8.8,10.458 v 0 c -0.236,0.28 -0.488,0.541 -0.753,0.781 -0.596,0.54 -1.263,0.977 -1.993,1.304 -0.991,0.445 -2.069,0.668 -3.152,0.668 -0.972,0 -1.949,-0.18 -2.869,-0.542 -1.223,-0.48 -2.279,-1.25 -3.097,-2.24 -0.474,-0.575 -0.869,-1.224 -1.169,-1.934 l -5.329,-12.586 v 0 c -0.054,-0.125 -0.177,-0.205 -0.31,-0.205" /><g
       id="g144"
       transform="matrix(0.1,0,0,0.1,-307.62836,-157.13534)"><g
         clip-path="url(#clipPath150)"
         id="g146"><path
           inkscape:connector-curvature="0"
           id="path158"
           style="fill:url(#radialGradient156);fill-opacity:1;fill-rule:nonzero;stroke:none"
           d="m 4695.12,2141.49 c -0.09,0 -0.19,0.01 -0.29,0.02 l -243.08,33.3 -0.59,0.17 -1.25,1.69 -11.2,86.74 c -2.21,17.19 -12.99,31.7 -28.81,38.8 -6.53,2.93 -13.44,4.38 -20.31,4.38 v 0 c 6.87,0 13.78,-1.45 20.31,-4.38 15.82,-7.1 26.6,-21.6 28.81,-38.8 l 11.2,-86.74 1.25,-1.69 0.59,-0.17 243.09,-33.3 c 0.09,-0.01 0.19,-0.02 0.29,-0.02 0.24,0 0.47,0.04 0.69,0.12 -0.22,-0.08 -0.46,-0.12 -0.7,-0.12 m 1.76,0.89 c 0,0 0,0 0,0.01 0,-0.01 0,-0.01 0,-0.01 m 0.01,0.02 c 0.09,0.12 0.16,0.26 0.23,0.41 l 10.14,23.96 -10.14,-23.96 c -0.07,-0.15 -0.14,-0.29 -0.23,-0.41 m 174.03,26.58 v 0 l -56.31,66.92 c -4.9,5.82 -10.81,10.32 -17.57,13.35 v 0 0 c 6.76,-3.03 12.67,-7.53 17.57,-13.35 l 56.31,-66.92 m -134.69,63.48 c 5.5,7.91 13.16,14.01 22.28,17.6 v 0 0 c -9.12,-3.59 -16.78,-9.69 -22.28,-17.6 m -446.69,16.15 -2.61,0.15 -186.5,159.43 -0.55,2.56 0.55,-2.56 186.5,-159.43 2.61,-0.15 v 0 m -150.38,279.31 v 0 c -4.62,12.55 -14.18,22.84 -26.22,28.24 -6.31,2.84 -13.09,4.27 -20.16,4.27 -0.49,0 -0.99,-0.01 -1.49,-0.02 l -85.06,-2.36 85.06,2.36 c 0.49,0.02 0.99,0.02 1.48,0.02 7.07,0 13.85,-1.43 20.18,-4.27 12.03,-5.39 21.59,-15.69 26.21,-28.24 v 0 m 533.16,5.83 c -46.29,0 -93.31,9.14 -138.46,28.39 45.12,-19.24 92.1,-28.37 138.36,-28.37 61.69,0 122.12,16.23 175.18,46.35 0.01,-0.01 0.03,-0.03 0.04,-0.04 -53.04,-30.12 -113.44,-46.33 -175.12,-46.33 m -668.51,24.23 c -0.95,0 -1.79,0.62 -2.07,1.53 l -70.7,234.95 c -0.27,0.93 0.1,1.94 0.93,2.46 l 37.13,23.1 -37.13,-23.11 c -0.82,-0.51 -1.2,-1.52 -0.92,-2.44 l 70.69,-234.96 c 0.28,-0.91 1.12,-1.53 2.08,-1.53 0,0 0,0 -0.01,0 m 523.92,6.85 c -178.26,79.97 -257.94,289.31 -177.96,467.56 v 0 0 c -79.98,-178.25 -0.3,-387.59 177.96,-467.56 m -513.02,284.94 c 9.52,9.26 14.93,22 14.84,35.69 -0.11,17.33 -9.04,33.03 -23.89,42 l -74.86,45.22 c -0.84,0.5 -1.23,1.49 -0.96,2.43 -0.26,-0.93 0.12,-1.93 0.96,-2.43 l 74.87,-45.22 c 14.84,-8.97 23.77,-24.66 23.88,-42 0.09,-13.69 -5.32,-26.43 -14.84,-35.69 m 335.38,183.33 c 0.03,0.08 0.08,0.18 0.11,0.25 -0.04,-0.08 -0.07,-0.17 -0.11,-0.25 m 0.31,0.7 c 0.05,0.11 0.09,0.2 0.14,0.31 -0.04,-0.1 -0.09,-0.21 -0.14,-0.31 m 0.32,0.69 c 0.05,0.11 0.11,0.25 0.16,0.36 -0.05,-0.12 -0.11,-0.24 -0.16,-0.36 m 0.3,0.67 c 0.06,0.13 0.13,0.27 0.19,0.4 -0.06,-0.13 -0.12,-0.27 -0.19,-0.4 m 0.24,0.5 c 11.97,25.99 26.71,49.86 43.71,71.39 0.01,-0.01 0.02,-0.02 0.03,-0.03 -17.01,-21.53 -31.77,-45.37 -43.74,-71.36 m -353.87,175.33 c 0.27,0.92 1.11,1.56 2.07,1.56 v 0 c -0.95,0 -1.8,-0.64 -2.07,-1.56 m 132.6,24.15 c 8.78,14.49 9.57,32.13 2.07,47.39 l -38.52,78.52 38.53,-78.52 c 7.49,-15.26 6.7,-32.9 -2.08,-47.39 m -35.94,128.48 49.39,43.38 v 0 l -49.39,-43.38" /></g></g><path
       inkscape:connector-curvature="0"
       id="path160"
       style="fill:#ececec;fill-opacity:1;fill-rule:nonzero;stroke:none;stroke-width:0.1"
       d="m 161.88464,57.013661 c -0.01,0 -0.02,10e-4 -0.029,0.002 l -24.309,3.33 -0.059,0.017 -0.125,0.169 -1.12,8.674 c -0.221,1.72 -1.299,3.17 -2.881,3.88 -0.653,0.293 -1.344,0.438 -2.031,0.438 v 0 0 c -0.975,0 -1.942,-0.292 -2.782,-0.866 l -7.223,-4.932 -0.261,0.015 -18.65,15.943 -0.055,0.256 3.748,7.902 c 0.576,1.214 0.64,2.569 0.18,3.815 v 0 c -0.462,1.255 -1.418,2.285 -2.621,2.824 -0.633,0.284 -1.311,0.427 -2.018,0.427 -0.049,0 -0.099,0 -0.148,-0.002 l -8.505999,-0.236 -0.237,-0.007 c -0.001,0 -0.003,0 -0.004,0 -0.096,0 -0.18,0.062 -0.208,0.153 l -7.069,23.495999 c -0.028,0.092 0.01,0.193 0.092,0.244 l 3.713,2.311 3.712,2.311 c 0.311,0.193 0.595,0.416 0.849,0.664 0.952,0.926 1.493,2.2 1.484,3.569 -0.011,1.734 -0.904,3.303 -2.388,4.2 l -7.487,4.522 c -0.084,0.05 -0.122,0.15 -0.096,0.243 v 0 l 6.755,23.588 v 0 c 0.027,0.092 0.112,0.156 0.207,0.156 0.001,0 0.002,0 0.003,0 l 8.745999,-0.127 c 0.024,0 0.049,0 0.074,0 1.705,0 3.262,0.856 4.176,2.3 0.018,0.028 0.036,0.057 0.054,0.086 0.878,1.449 0.957,3.213 0.208,4.739 l -3.853,7.852 0.051,0.257 4.94,4.338 c 8.333,-10.041 16.72,-20.038 25.152,-29.995 -1.7,-2.153 -3.174,-4.54 -4.371,-7.139 -0.002,-0.003 -0.003,-0.006 -0.005,-0.01 -0.006,-0.013 -0.013,-0.027 -0.019,-0.04 -0.004,-0.011 -0.009,-0.021 -0.014,-0.031 -0.005,-0.011 -0.011,-0.025 -0.016,-0.036 -0.006,-0.013 -0.012,-0.025 -0.018,-0.038 -0.005,-0.011 -0.009,-0.02 -0.014,-0.031 -0.006,-0.015 -0.013,-0.03 -0.02,-0.045 -0.003,-0.007 -0.008,-0.017 -0.011,-0.025 -0.011,-0.024 -0.021,-0.047 -0.032,-0.071 v 0 c -7.998,-17.825 -0.03,-38.759 17.796,-46.755999 v 0 c 0.204,-0.092 0.408,-0.181 0.613,-0.269 4.515,-1.925 9.217,-2.839 13.846,-2.839 6.168,0 12.208,1.621 17.512,4.632999 8.162,-9.392999 16.348,-18.765999 24.55,-28.122999 l 0.425,-2.471 c 0.017,-0.095 -0.034,-0.19 -0.121,-0.231 v 0 l -22.25,-10.341 -0.256,0.056 -5.631,6.692 c -0.49,0.582 -1.081,1.032 -1.757,1.335 v 0 c -0.634,0.285 -1.324,0.427 -2.016,0.427 -0.623,0 -1.248,-0.115 -1.837,-0.346 v 0 c -0.912,-0.359 -1.678,-0.969 -2.228,-1.76 -0.196,-0.282 -0.364,-0.587 -0.501,-0.911 l -2.396,-5.658 -1.014,-2.396 c -0.007,-0.015 -0.014,-0.029 -0.023,-0.041 -0.001,-10e-4 -0.001,-10e-4 -0.001,-10e-4 0,-0.001 0,-0.001 0,-0.001 -0.027,-0.036 -0.064,-0.063 -0.106,-0.077 -0.022,-0.008 -0.045,-0.012 -0.069,-0.012" /></g></svg>