<svg width="40" height="40" viewBox="0 0 40 40" fill="none" xmlns="http://www.w3.org/2000/svg">
<g id="bar_chart_24px">
<path id="icon/editor/bar_chart_24px" fill-rule="evenodd" clip-rule="evenodd" d="M20 8.33333C21.2833 8.33333 22.3333 9.38333 22.3333 10.6667V29.3333C22.3333 30.6167 21.2833 31.6667 20 31.6667C18.7166 31.6667 17.6666 30.6167 17.6666 29.3333V10.6667C17.6666 9.38333 18.7166 8.33333 20 8.33333ZM10.6666 15.3333H11C12.2833 15.3333 13.3333 16.3833 13.3333 17.6667V29.3333C13.3333 30.6167 12.2833 31.6667 11 31.6667H10.6666C9.38331 31.6667 8.33331 30.6167 8.33331 29.3333V17.6667C8.33331 16.3833 9.38331 15.3333 10.6666 15.3333ZM31.6666 24C31.6666 22.7167 30.6166 21.6667 29.3333 21.6667C28.0499 21.6667 27 22.7167 27 24V29.3333C27 30.6167 28.0499 31.6667 29.3333 31.6667C30.6166 31.6667 31.6666 30.6167 31.6666 29.3333V24Z" fill="white"/>
</g>
</svg>
