<?xml version="1.0" encoding="UTF-8" standalone="no"?>
<svg
   xmlns:dc="http://purl.org/dc/elements/1.1/"
   xmlns:cc="http://creativecommons.org/ns#"
   xmlns:rdf="http://www.w3.org/1999/02/22-rdf-syntax-ns#"
   xmlns:svg="http://www.w3.org/2000/svg"
   xmlns="http://www.w3.org/2000/svg"
   xmlns:sodipodi="http://sodipodi.sourceforge.net/DTD/sodipodi-0.dtd"
   xmlns:inkscape="http://www.inkscape.org/namespaces/inkscape"
   viewBox="0 0 48 48"
   width="48px"
   height="48px"
   version="1.1"
   id="svg34"
   sodipodi:docname="calendar.svg"
   inkscape:version="0.92.3 (2405546, 2018-03-11)">
  <metadata
     id="metadata40">
    <rdf:RDF>
      <cc:Work
         rdf:about="">
        <dc:format>image/svg+xml</dc:format>
        <dc:type
           rdf:resource="http://purl.org/dc/dcmitype/StillImage" />
      </cc:Work>
    </rdf:RDF>
  </metadata>
  <defs
     id="defs38" />
  <sodipodi:namedview
     pagecolor="#ffffff"
     bordercolor="#666666"
     borderopacity="1"
     objecttolerance="10"
     gridtolerance="10"
     guidetolerance="10"
     inkscape:pageopacity="0"
     inkscape:pageshadow="2"
     inkscape:window-width="1087"
     inkscape:window-height="540"
     id="namedview36"
     showgrid="false"
     inkscape:zoom="6.1034483"
     inkscape:cx="26.5"
     inkscape:cy="20"
     inkscape:window-x="0"
     inkscape:window-y="27"
     inkscape:window-maximized="0"
     inkscape:current-layer="svg34" />
  <linearGradient
     id="WWZG4nXidbdKz8SNbGF5Za"
     x1="6.414"
     x2="41.774"
     y1="13.662"
     y2="39.488"
     gradientUnits="userSpaceOnUse">
    <stop
       offset="0"
       stop-color="#28afea"
       id="stop2" />
    <stop
       offset="1"
       stop-color="#047ed6"
       id="stop4" />
  </linearGradient>
  <path
     fill="url(#WWZG4nXidbdKz8SNbGF5Za)"
     d="M6,40V12h36v28c0,1.1-0.9,2-2,2H8C6.9,42,6,41.1,6,40z"
     id="path7"
     style="fill:#d40000" />
  <linearGradient
     id="WWZG4nXidbdKz8SNbGF5Zb"
     x1="6.42"
     x2="41.198"
     y1="6.608"
     y2="13.68"
     gradientUnits="userSpaceOnUse">
    <stop
       offset="0"
       stop-color="#0077d2"
       id="stop9" />
    <stop
       offset="1"
       stop-color="#0b59a2"
       id="stop11" />
  </linearGradient>
  <path
     fill="url(#WWZG4nXidbdKz8SNbGF5Zb)"
     d="M42,8v6H6V8c0-1.1,0.9-2,2-2h32C41.1,6,42,6.9,42,8z"
     id="path14"
     style="fill:#aa0000" />
  <path
     d="M35.5,12.5L35.5,12.5c-1.657,0-3-1.343-3-3V6h6v3.5C38.5,11.157,37.157,12.5,35.5,12.5z"
     opacity=".05"
     id="path16" />
  <path
     d="M35.5,11.75L35.5,11.75c-1.243,0-2.25-1.007-2.25-2.25V6h4.5v3.5 C37.75,10.743,36.743,11.75,35.5,11.75z"
     opacity=".07"
     id="path18" />
  <path
     d="M12.5,12.5L12.5,12.5c-1.657,0-3-1.343-3-3V6h6v3.5C15.5,11.157,14.157,12.5,12.5,12.5z"
     opacity=".05"
     id="path20" />
  <path
     d="M12.5,11.75L12.5,11.75c-1.243,0-2.25-1.007-2.25-2.25V6h4.5v3.5 C14.75,10.743,13.743,11.75,12.5,11.75z"
     opacity=".07"
     id="path22" />
  <path
     fill="#3ccbf4"
     d="M12.5,11L12.5,11c-0.828,0-1.5-0.672-1.5-1.5v-4C11,4.672,11.672,4,12.5,4h0 C13.328,4,14,4.672,14,5.5v4C14,10.328,13.328,11,12.5,11z"
     id="path24"
     style="fill:#ff0000" />
  <path
     fill="#fff"
     d="M38,19.5v3c0,0.276-0.224,0.5-0.5,0.5h-3c-0.276,0-0.5-0.224-0.5-0.5v-3c0-0.276,0.224-0.5,0.5-0.5h3 C37.776,19,38,19.224,38,19.5z M30,19.5v3c0,0.276-0.224,0.5-0.5,0.5h-3c-0.276,0-0.5-0.224-0.5-0.5v-3c0-0.276,0.224-0.5,0.5-0.5h3 C29.776,19,30,19.224,30,19.5z M22,19.5v3c0,0.276-0.224,0.5-0.5,0.5h-3c-0.276,0-0.5-0.224-0.5-0.5v-3c0-0.276,0.224-0.5,0.5-0.5h3 C21.776,19,22,19.224,22,19.5z"
     id="path26"
     style="fill:#ff5555" />
  <path
     fill="#fff"
     d="M38,26.5v3c0,0.276-0.224,0.5-0.5,0.5h-3c-0.276,0-0.5-0.224-0.5-0.5v-3c0-0.276,0.224-0.5,0.5-0.5h3 C37.776,26,38,26.224,38,26.5z M30,26.5v3c0,0.276-0.224,0.5-0.5,0.5h-3c-0.276,0-0.5-0.224-0.5-0.5v-3c0-0.276,0.224-0.5,0.5-0.5h3 C29.776,26,30,26.224,30,26.5z M22,26.5v3c0,0.276-0.224,0.5-0.5,0.5h-3c-0.276,0-0.5-0.224-0.5-0.5v-3c0-0.276,0.224-0.5,0.5-0.5h3 C21.776,26,22,26.224,22,26.5z M14,26.5v3c0,0.276-0.224,0.5-0.5,0.5h-3c-0.276,0-0.5-0.224-0.5-0.5v-3c0-0.276,0.224-0.5,0.5-0.5h3 C13.776,26,14,26.224,14,26.5z"
     id="path28"
     style="fill:#ff5555" />
  <path
     fill="#fff"
     d="M30,33.5v3c0,0.276-0.224,0.5-0.5,0.5h-3c-0.276,0-0.5-0.224-0.5-0.5v-3c0-0.276,0.224-0.5,0.5-0.5h3 C29.776,33,30,33.224,30,33.5z M22,33.5v3c0,0.276-0.224,0.5-0.5,0.5h-3c-0.276,0-0.5-0.224-0.5-0.5v-3c0-0.276,0.224-0.5,0.5-0.5h3 C21.776,33,22,33.224,22,33.5z M14,33.5v3c0,0.276-0.224,0.5-0.5,0.5h-3c-0.276,0-0.5-0.224-0.5-0.5v-3c0-0.276,0.224-0.5,0.5-0.5h3 C13.776,33,14,33.224,14,33.5z"
     id="path30"
     style="fill:#ff5555" />
  <path
     fill="#3ccbf4"
     d="M35.5,11L35.5,11c-0.828,0-1.5-0.672-1.5-1.5v-4C34,4.672,34.672,4,35.5,4l0,0 C36.328,4,37,4.672,37,5.5v4C37,10.328,36.328,11,35.5,11z"
     id="path32"
     style="fill:#ff0000" />
</svg>
