<svg width="40" height="40" viewBox="0 0 40 40" fill="none" xmlns="http://www.w3.org/2000/svg">
<g id="dashboard_24px">
<path id="icon/action/dashboard_24px" fill-rule="evenodd" clip-rule="evenodd" d="M16.6667 21.6667H6.66667C5.75 21.6667 5 20.9167 5 20V6.66667C5 5.75 5.75 5 6.66667 5H16.6667C17.5833 5 18.3333 5.75 18.3333 6.66667V20C18.3333 20.9167 17.5833 21.6667 16.6667 21.6667ZM16.6667 35H6.66667C5.75 35 5 34.25 5 33.3333V26.6667C5 25.75 5.75 25 6.66667 25H16.6667C17.5833 25 18.3333 25.75 18.3333 26.6667V33.3333C18.3333 34.25 17.5833 35 16.6667 35ZM23.3333 35H33.3333C34.25 35 35 34.25 35 33.3333V20C35 19.0833 34.25 18.3333 33.3333 18.3333H23.3333C22.4167 18.3333 21.6667 19.0833 21.6667 20V33.3333C21.6667 34.25 22.4167 35 23.3333 35ZM21.6667 13.3333V6.66667C21.6667 5.75 22.4167 5 23.3333 5H33.3333C34.25 5 35 5.75 35 6.66667V13.3333C35 14.25 34.25 15 33.3333 15H23.3333C22.4167 15 21.6667 14.25 21.6667 13.3333Z" fill="white"/>
</g>
</svg>
