<svg width="40" height="40" viewBox="0 0 40 40" fill="none" xmlns="http://www.w3.org/2000/svg">
<g id="list_24px">
<path id="Path" d="M6.66667 21.6667C7.58333 21.6667 8.33333 20.9167 8.33333 20C8.33333 19.0833 7.58333 18.3333 6.66667 18.3333C5.75 18.3333 5 19.0833 5 20C5 20.9167 5.75 21.6667 6.66667 21.6667Z" fill="white"/>
<path id="Path_2" d="M6.66667 28.3333C7.58333 28.3333 8.33333 27.5833 8.33333 26.6667C8.33333 25.75 7.58333 25 6.66667 25C5.75 25 5 25.75 5 26.6667C5 27.5833 5.75 28.3333 6.66667 28.3333Z" fill="white"/>
<path id="Path_3" d="M6.66667 15C7.58333 15 8.33333 14.25 8.33333 13.3333C8.33333 12.4167 7.58333 11.6667 6.66667 11.6667C5.75 11.6667 5 12.4167 5 13.3333C5 14.25 5.75 15 6.66667 15Z" fill="white"/>
<path id="Path_4" d="M13.3334 21.6667H33.3334C34.25 21.6667 35 20.9167 35 20C35 19.0833 34.25 18.3333 33.3334 18.3333H13.3334C12.4167 18.3333 11.6667 19.0833 11.6667 20C11.6667 20.9167 12.4167 21.6667 13.3334 21.6667Z" fill="white"/>
<path id="Path_5" d="M13.3334 28.3333H33.3334C34.25 28.3333 35 27.5833 35 26.6667C35 25.75 34.25 25 33.3334 25H13.3334C12.4167 25 11.6667 25.75 11.6667 26.6667C11.6667 27.5833 12.4167 28.3333 13.3334 28.3333Z" fill="white"/>
<path id="Path_6" d="M11.6667 13.3333C11.6667 14.25 12.4167 15 13.3334 15H33.3334C34.25 15 35 14.25 35 13.3333C35 12.4167 34.25 11.6667 33.3334 11.6667H13.3334C12.4167 11.6667 11.6667 12.4167 11.6667 13.3333Z" fill="white"/>
</g>
</svg>
