<svg width="40" height="40" viewBox="0 0 40 40" fill="none" xmlns="http://www.w3.org/2000/svg">
<g id="notifications_active_24px">
<path id="icon/social/notifications_active_24px" fill-rule="evenodd" clip-rule="evenodd" d="M30.0064 17.9167V26.25L32.1398 28.4C33.1898 29.45 32.4398 31.25 30.9564 31.25H9.00643C7.5231 31.25 6.78977 29.45 7.83977 28.4L10.0064 26.25V17.9167C10.0064 12.7833 12.7231 8.51667 17.5064 7.38333V6.25C17.5064 4.86667 18.6064 3.75 19.9898 3.75C21.3731 3.75 22.5064 4.86667 22.5064 6.25V7.38333C27.2731 8.51667 30.0064 12.8 30.0064 17.9167ZM23.3231 32.9167C23.3231 34.75 21.8231 36.25 19.9898 36.25C18.1398 36.25 16.6565 34.75 16.6565 32.9167H23.3231ZM11.2898 7.46667C11.9898 6.83333 12.0065 5.75 11.3398 5.08333C10.7065 4.45 9.67314 4.43333 9.02314 5.05C6.17314 7.65 4.20647 11.1833 3.57314 15.15C3.42314 16.1667 4.20647 17.0833 5.23981 17.0833C6.03981 17.0833 6.73981 16.5 6.87314 15.7C7.37314 12.4667 8.97314 9.58333 11.2898 7.46667ZM28.6731 5.08333C29.3064 4.45 30.3398 4.43333 31.0064 5.05C33.8398 7.66667 35.7898 11.1833 36.4231 15.1333C36.5898 16.15 35.7898 17.0667 34.7731 17.0667C33.9564 17.0667 33.2564 16.4833 33.1398 15.6833C32.6398 12.45 31.0231 9.56667 28.7231 7.45C28.0398 6.81667 28.0064 5.75 28.6731 5.08333Z" fill="white"/>
</g>
</svg>
