<svg width="40" height="40" viewBox="0 0 40 40" fill="none" xmlns="http://www.w3.org/2000/svg">
<g id="search_24px">
<path id="icon/action/search_24px" fill-rule="evenodd" clip-rule="evenodd" d="M25.3109 24.1193H26.6276L33.6943 31.2193C34.3776 31.9026 34.3776 33.0193 33.6943 33.7026C33.0109 34.3859 31.8943 34.3859 31.2109 33.7026L24.1276 26.6193V25.3026L23.6776 24.8359C21.3443 26.8359 18.1609 27.8693 14.7776 27.3026C10.1443 26.5193 6.44426 22.6526 5.87759 17.9859C5.01092 10.9359 10.9443 5.00259 17.9943 5.86926C22.6609 6.43592 26.5276 10.1359 27.3109 14.7693C27.8776 18.1526 26.8443 21.3359 24.8443 23.6693L25.3109 24.1193ZM9.12758 16.6193C9.12758 20.7693 12.4776 24.1193 16.6276 24.1193C20.7776 24.1193 24.1276 20.7693 24.1276 16.6193C24.1276 12.4693 20.7776 9.11926 16.6276 9.11926C12.4776 9.11926 9.12758 12.4693 9.12758 16.6193Z" fill="black" fill-opacity="0.54"/>
</g>
</svg>
