<svg width="40" height="40" viewBox="0 0 40 40" fill="none" xmlns="http://www.w3.org/2000/svg">
<g id="settings_24px">
<path id="icon/action/settings_24px" fill-rule="evenodd" clip-rule="evenodd" d="M32.5036 20C32.5036 20.5667 32.4536 21.1 32.387 21.6333L35.9036 24.3833C36.2203 24.6333 36.3036 25.0833 36.1036 25.45L32.7703 31.2167C32.5703 31.5833 32.137 31.7333 31.7536 31.5833L27.6036 29.9167C26.737 30.5667 25.8036 31.1333 24.787 31.55L24.1536 35.9667C24.1036 36.3667 23.7536 36.6667 23.337 36.6667H16.6703C16.2536 36.6667 15.9036 36.3667 15.8536 35.9667L15.2203 31.55C14.2036 31.1333 13.2703 30.5833 12.4036 29.9167L8.25364 31.5833C7.88697 31.7167 7.43697 31.5833 7.23697 31.2167L3.90364 25.45C3.70364 25.0833 3.78697 24.6333 4.10364 24.3833L7.62031 21.6333C7.55364 21.1 7.50364 20.55 7.50364 20C7.50364 19.45 7.55364 18.9 7.62031 18.3667L4.10364 15.6167C3.78697 15.3667 3.68697 14.9167 3.90364 14.55L7.23697 8.78334C7.43697 8.41668 7.87031 8.26668 8.25364 8.41668L12.4036 10.0833C13.2703 9.43334 14.2036 8.86668 15.2203 8.45001L15.8536 4.03334C15.9036 3.63334 16.2536 3.33334 16.6703 3.33334H23.337C23.7536 3.33334 24.1036 3.63334 24.1536 4.03334L24.787 8.45001C25.8036 8.86668 26.737 9.41668 27.6036 10.0833L31.7536 8.41668C32.1203 8.28334 32.5703 8.41668 32.7703 8.78334L36.1036 14.55C36.3036 14.9167 36.2203 15.3667 35.9036 15.6167L32.387 18.3667C32.4536 18.9 32.5036 19.4333 32.5036 20ZM14.1703 20C14.1703 23.2167 16.787 25.8333 20.0037 25.8333C23.2203 25.8333 25.837 23.2167 25.837 20C25.837 16.7833 23.2203 14.1667 20.0037 14.1667C16.787 14.1667 14.1703 16.7833 14.1703 20Z" fill="white"/>
</g>
</svg>
