<svg width="40" height="40" viewBox="0 0 40 40" fill="none" xmlns="http://www.w3.org/2000/svg">
<g id="shopping_cart_24px">
<path id="icon/action/shopping_cart_24px" fill-rule="evenodd" clip-rule="evenodd" d="M3.32727 5C3.32727 5.91667 4.07727 6.66667 4.99394 6.66667H6.6606L12.6606 19.3167L10.4106 23.3833C9.19394 25.6167 10.7939 28.3333 13.3273 28.3333H31.6606C32.5773 28.3333 33.3273 27.5833 33.3273 26.6667C33.3273 25.75 32.5773 25 31.6606 25H13.3273L15.1606 21.6667H27.5773C28.8273 21.6667 29.9273 20.9833 30.4939 19.95L36.4606 9.13333C37.0773 8.03333 36.2773 6.66667 35.0106 6.66667H10.3439L9.22727 4.28334C8.9606 3.7 8.3606 3.33334 7.72727 3.33334H4.99394C4.07727 3.33334 3.32727 4.08334 3.32727 5ZM13.3273 30C11.4939 30 10.0106 31.5 10.0106 33.3333C10.0106 35.1667 11.4939 36.6667 13.3273 36.6667C15.1606 36.6667 16.6606 35.1667 16.6606 33.3333C16.6606 31.5 15.1606 30 13.3273 30ZM26.6773 33.3333C26.6773 31.5 28.1606 30 29.994 30C31.8273 30 33.3273 31.5 33.3273 33.3333C33.3273 35.1667 31.8273 36.6667 29.994 36.6667C28.1606 36.6667 26.6773 35.1667 26.6773 33.3333Z" fill="white"/>
</g>
</svg>
